{
.appVersion = "1192";
DisplayStrings = (
"nnnn\012oooo\012"
);
copyright = "Copyright (c) 2003 by Bitstream, Inc. All Rights Reserved.\012Copyright (c) 2006 by Tavmjong Bah. All Rights Reserved.\012DejaVu changes are in public domain\012";
customParameters = (
{
name = licenseURL;
value = "http://dejavu.sourceforge.net/wiki/index.php/License";
},
{
name = license;

glyphs = (
{
export = 0;
glyphname = A;
layers = (
{
layerId = "EB88A49E-561A-4405-9552-C71224CBA53C";
paths = (
{
closed = 1;
nodes = (
"112 0 LINE",
"178 187 LINE",
"507 187 LINE",
"573 0 LINE",
"676 0 LINE",
"398 729 LINE",
"286 729 LINE",
"8 0 LINE"
);
},
{
closed = 1;
nodes = (
"342 632 LINE",
"476 269 LINE",
"208 269 LINE"
);
}
);
width = 684;
},
{
layerId = "5297CC84-2E5E-44C2-8BD8-B52BBF62A592";
paths = (
{
closed = 1;
nodes = (
"194 0 LINE",
"240 133 LINE",
"534 133 LINE",
"580 0 LINE",
"769 0 LINE",
"499 729 LINE",
"275 729 LINE",
"5 0 LINE"
);
},
{
closed = 1;
nodes = (
"387 558 LINE",
"487 268 LINE",
"287 268 LINE"
);
}
);
width = 774;
},
{
layerId = "79D829DC-9C66-44C2-8B43-D291CF08F0E9";
paths = (
{
closed = 1;
nodes = (
"51 0 LINE",
"154 187 LINE",
"482 187 LINE",
"512 0 LINE",
"615 0 LINE",
"480 729 LINE",
"368 729 LINE",
"-53 0 LINE"
);
},
{
closed = 1;
nodes = (
"404 632 LINE",
"467 269 LINE",
"199 269 LINE"
);
}
);
width = 684;
},
{
layerId = "D5B43B4B-63DF-4B35-BEE3-B41B34784265";
paths = (
{
closed = 1;
nodes = (
"128 0 LINE",
"200 133 LINE",
"491 133 LINE",
"512 0 LINE",
"691 0 LINE",
"562 729 LINE",
"347 729 LINE",
"-65 0 LINE"
);
},
{
closed = 1;
nodes = (
"423 546 LINE",
"467 265 LINE",
"271 265 LINE"
);
}
);
width = 774;
}
);
leftKerningGroup = A;
note = A;
rightKerningGroup = A;
unicode = 0041;
},
{
export = 0;
glyphname = B;
layers = (
{
layerId = "EB88A49E-561A-4405-9552-C71224CBA53C";
paths = (
{
closed = 1;
nodes = (
"360 0 LINE SMOOTH",
"523 0 OFFCURVE",
"615 73 OFFCURVE",
"615 204 CURVE SMOOTH",
"615 303 OFFCURVE",
"559 372 OFFCURVE",
"462 393 CURVE",
"542 406 OFFCURVE",
"585 460 OFFCURVE",
"585 549 CURVE SMOOTH",
"585 664 OFFCURVE",
"501 729 OFFCURVE",
"350 729 CURVE SMOOTH",
"98 729 LINE",
"98 0 LINE"
);
},
{
closed = 1;
nodes = (
"197 348 LINE",
"355 348 LINE SMOOTH",
"462 348 OFFCURVE",
"511 306 OFFCURVE",
"511 215 CURVE SMOOTH",
"511 124 OFFCURVE",
"462 81 OFFCURVE",
"355 81 CURVE SMOOTH",
"197 81 LINE"
);
},
{
closed = 1;
nodes = (
"197 648 LINE",
"343 648 LINE SMOOTH",
"439 648 OFFCURVE",
"486 611 OFFCURVE",
"486 538 CURVE SMOOTH",
"486 463 OFFCURVE",
"439 428 OFFCURVE",
"343 428 CURVE SMOOTH",
"197 428 LINE"
);
}
);
width = 686;
},
{
layerId = "5297CC84-2E5E-44C2-8BD8-B52BBF62A592";
paths = (
{
closed = 1;
nodes = (
"404 0 LINE SMOOTH",
"597 0 OFFCURVE",
"692 69 OFFCURVE",
"692 209 CURVE SMOOTH",
"692 301 OFFCURVE",
"645 367 OFFCURVE",
"565 390 CURVE",
"628 414 OFFCURVE",
"662 465 OFFCURVE",
"662 536 CURVE SMOOTH",
"662 671 OFFCURVE",
"577 729 OFFCURVE",
"374 729 CURVE SMOOTH",
"92 729 LINE",
"92 0 LINE"
);
},
{
closed = 1;
nodes = (
"280 319 LINE",
"390 319 LINE SMOOTH",
"466 319 OFFCURVE",
"504 287 OFFCURVE",
"504 224 CURVE SMOOTH",
"504 160 OFFCURVE",
"466 128 OFFCURVE",
"390 128 CURVE SMOOTH",
"280 128 LINE"
);
},
{
closed = 1;
nodes = (
"280 601 LINE",
"384 601 LINE SMOOTH",
"443 601 OFFCURVE",
"474 575 OFFCURVE",
"474 524 CURVE SMOOTH",
"474 473 OFFCURVE",
"443 447 OFFCURVE",
"384 447 CURVE SMOOTH",
"280 447 LINE"
);
}
);
width = 762;
},
{
layerId = "79D829DC-9C66-44C2-8B43-D291CF08F0E9";
paths = (
{
closed = 1;
nodes = (
"284 0 LINE SMOOTH",
"472 0 OFFCURVE",
"588 91 OFFCURVE",
"588 238 CURVE SMOOTH",
"588 323 OFFCURVE",
"547 374 OFFCURVE",
"467 393 CURVE",
"562 408 OFFCURVE",
"625 483 OFFCURVE",
"625 576 CURVE SMOOTH",
"625 679 OFFCURVE",
"557 729 OFFCURVE",
"421 729 CURVE SMOOTH",
"169 729 LINE",
"27 0 LINE"
);
},
{
closed = 1;
nodes = (
"193 348 LINE",
"351 348 LINE SMOOTH",
"446 348 OFFCURVE",
"486 314 OFFCURVE",
"486 238 CURVE SMOOTH",
"486 138 OFFCURVE",
"419 81 OFFCURVE",
"300 81 CURVE SMOOTH",
"141 81 LINE"
);
},
{
closed = 1;
nodes = (
"251 648 LINE",
"397 648 LINE SMOOTH",
"484 648 OFFCURVE",
"522 620 OFFCURVE",
"522 557 CURVE SMOOTH",
"522 477 OFFCURVE",
"460 428 OFFCURVE",
"355 428 CURVE SMOOTH",
"208 428 LINE"
);
}
);
width = 686;
},
{
layerId = "D5B43B4B-63DF-4B35-BEE3-B41B34784265";
paths = (
{
closed = 1;
nodes = (
"333 0 LINE SMOOTH",
"545 0 OFFCURVE",
"667 93 OFFCURVE",
"667 250 CURVE SMOOTH",
"667 322 OFFCURVE",
"631 371 OFFCURVE",
"567 390 CURVE",
"646 410 OFFCURVE",
"699 484 OFFCURVE",
"699 573 CURVE SMOOTH",
"699 680 OFFCURVE",
"618 729 OFFCURVE",
"445 729 CURVE SMOOTH",
"163 729 LINE",
"21 0 LINE"
);
},
{
closed = 1;
nodes = (
"270 319 LINE",
"381 319 LINE SMOOTH",
"446 319 OFFCURVE",
"478 296 OFFCURVE",
"478 247 CURVE SMOOTH",
"478 170 OFFCURVE",
"431 128 OFFCURVE",
"344 128 CURVE SMOOTH",
"233 128 LINE"
);
},
{
closed = 1;
nodes = (
"325 601 LINE",
"430 601 LINE SMOOTH",
"479 601 OFFCURVE",
"507 581 OFFCURVE",
"507 542 CURVE SMOOTH",
"507 483 OFFCURVE",
"467 447 OFFCURVE",
"400 447 CURVE SMOOTH",
"295 447 LINE"
);
}
);
width = 762;
}
);
leftKerningGroup = B;
note = B;
rightKerningGroup = B;
unicode = 0042;
},
{
export = 0;
glyphname = C;
layers = (
{
layerId = "EB88A49E-561A-4405-9552-C71224CBA53C";
paths = (
{
closed = 1;
nodes = (
"499 -14 OFFCURVE",
"575 9 OFFCURVE",
"644 56 CURVE",
"644 159 LINE",
"577 98 OFFCURVE",
"502 67 OFFCURVE",
"418 67 CURVE SMOOTH",
"251 67 OFFCURVE",
"160 172 OFFCURVE",
"160 364 CURVE SMOOTH",
"160 556 OFFCURVE",
"251 661 OFFCURVE",
"418 661 CURVE SMOOTH",
"502 661 OFFCURVE",
"577 630 OFFCURVE",
"644 569 CURVE",
"644 673 LINE",
"576 720 OFFCURVE",
"500 742 OFFCURVE",
"412 742 CURVE SMOOTH",
"192 742 OFFCURVE",
"56 599 OFFCURVE",
"56 364 CURVE SMOOTH",
"56 129 OFFCURVE",
"192 -14 OFFCURVE",
"412 -14 CURVE SMOOTH"
);
}
);
width = 698;
},
{
layerId = "5297CC84-2E5E-44C2-8BD8-B52BBF62A592";
paths = (
{
closed = 1;
nodes = (
"526 -14 OFFCURVE",
"601 4 OFFCURVE",
"670 40 CURVE",
"670 191 LINE",
"601 143 OFFCURVE",
"535 122 OFFCURVE",
"460 122 CURVE SMOOTH",
"325 122 OFFCURVE",
"244 213 OFFCURVE",
"244 364 CURVE SMOOTH",
"244 515 OFFCURVE",
"325 606 OFFCURVE",
"460 606 CURVE SMOOTH",
"535 606 OFFCURVE",
"601 585 OFFCURVE",
"670 537 CURVE",
"670 688 LINE",
"601 724 OFFCURVE",
"526 742 OFFCURVE",
"445 742 CURVE SMOOTH",
"202 742 OFFCURVE",
"50 597 OFFCURVE",
"50 364 CURVE SMOOTH",
"50 131 OFFCURVE",
"202 -14 OFFCURVE",
"445 -14 CURVE SMOOTH"
);
}
);
width = 734;
},
{
layerId = "79D829DC-9C66-44C2-8B43-D291CF08F0E9";
paths = (
{
closed = 1;
nodes = (
"419 -14 OFFCURVE",
"499 3 OFFCURVE",
"576 36 CURVE",
"599 153 LINE",
"520 94 OFFCURVE",
"438 66 OFFCURVE",
"347 66 CURVE SMOOTH",
"216 66 OFFCURVE",
"146 137 OFFCURVE",
"146 270 CURVE SMOOTH",
"146 350 OFFCURVE",
"167 429 OFFCURVE",
"206 500 CURVE SMOOTH",
"267 609 OFFCURVE",
"350 662 OFFCURVE",
"462 662 CURVE SMOOTH",
"543 662 OFFCURVE",
"612 632 OFFCURVE",
"675 569 CURVE",
"695 673 LINE",
"630 720 OFFCURVE",
"556 742 OFFCURVE",
"472 742 CURVE SMOOTH",
"337 742 OFFCURVE",
"238 697 OFFCURVE",
"158 598 CURVE SMOOTH",
"83 506 OFFCURVE",
"42 390 OFFCURVE",
"42 274 CURVE SMOOTH",
"42 93 OFFCURVE",
"153 -14 OFFCURVE",
"340 -14 CURVE SMOOTH"
);
}
);
width = 698;
},
{
layerId = "D5B43B4B-63DF-4B35-BEE3-B41B34784265";
paths = (
{
closed = 1;
nodes = (
"434 -14 OFFCURVE",
"517 2 OFFCURVE",
"606 34 CURVE",
"638 196 LINE",
"546 145 OFFCURVE",
"474 122 OFFCURVE",
"409 122 CURVE SMOOTH",
"300 122 OFFCURVE",
"233 190 OFFCURVE",
"233 302 CURVE SMOOTH",
"233 475 OFFCURVE",
"347 606 OFFCURVE",
"498 606 CURVE SMOOTH",
"570 606 OFFCURVE",
"631 585 OFFCURVE",
"694 537 CURVE",
"724 688 LINE",
"645 724 OFFCURVE",
"570 742 OFFCURVE",
"494 742 CURVE SMOOTH",
"355 742 OFFCURVE",
"231 686 OFFCURVE",
"146 586 CURVE SMOOTH",
"74 501 OFFCURVE",
"36 396 OFFCURVE",
"36 280 CURVE SMOOTH",
"36 103 OFFCURVE",
"163 -14 OFFCURVE",
"359 -14 CURVE SMOOTH"
);
}
);
width = 734;
}
);
leftKerningGroup = C;
note = C;
rightKerningGroup = C;
unicode = 0043;
},
{
export = 0;
glyphname = D;
layers = (
{
layerId = "EB88A49E-561A-4405-9552-C71224CBA53C";
paths = (
{
closed = 1;
nodes = (
"301 0 LINE SMOOTH",
"582 0 OFFCURVE",
"711 114 OFFCURVE",
"711 365 CURVE SMOOTH",
"711 616 OFFCURVE",
"584 729 OFFCURVE",
"301 729 CURVE SMOOTH",
"98 729 LINE",
"98 0 LINE"
);
},
{
closed = 1;
nodes = (
"197 648 LINE",
"316 648 LINE SMOOTH",
"517 648 OFFCURVE",
"607 561 OFFCURVE",
"607 365 CURVE SMOOTH",
"607 169 OFFCURVE",
"517 81 OFFCURVE",
"316 81 CURVE SMOOTH",
"197 81 LINE"
);
}
);
width = 770;
},
{
layerId = "5297CC84-2E5E-44C2-8BD8-B52BBF62A592";
paths = (
{
closed = 1;
nodes = (
"290 0 LINE SMOOTH",
"509 0 OFFCURVE",
"598 28 OFFCURVE",
"677 104 CURVE SMOOTH",
"745 169 OFFCURVE",
"778 256 OFFCURVE",
"778 365 CURVE SMOOTH",
"778 474 OFFCURVE",
"745 560 OFFCURVE",
"677 625 CURVE SMOOTH",
"600 701 OFFCURVE",
"511 729 OFFCURVE",
"290 729 CURVE SMOOTH",
"92 729 LINE",
"92 0 LINE"
);
},
{
closed = 1;
nodes = (
"280 587 LINE",
"347 587 LINE SMOOTH",
"502 587 OFFCURVE",
"584 510 OFFCURVE",
"584 365 CURVE SMOOTH",
"584 220 OFFCURVE",
"500 142 OFFCURVE",
"347 142 CURVE SMOOTH",
"280 142 LINE"
);
}
);
width = 830;
},
{
layerId = "79D829DC-9C66-44C2-8B43-D291CF08F0E9";
paths = (
{
closed = 1;
nodes = (
"240 0 LINE SMOOTH",
"403 0 OFFCURVE",
"522 40 OFFCURVE",
"599 120 CURVE SMOOTH",
"676 199 OFFCURVE",
"722 321 OFFCURVE",
"722 445 CURVE SMOOTH",
"722 633 OFFCURVE",
"606 729 OFFCURVE",
"381 729 CURVE SMOOTH",
"169 729 LINE",
"27 0 LINE"
);
},
{
closed = 1;
nodes = (
"252 648 LINE",
"376 648 LINE SMOOTH",
"543 648 OFFCURVE",
"618 585 OFFCURVE",
"618 445 CURVE SMOOTH",
"618 213 OFFCURVE",
"492 81 OFFCURVE",
"271 81 CURVE SMOOTH",
"142 81 LINE"
);
}
);
width = 770;
},
{
layerId = "D5B43B4B-63DF-4B35-BEE3-B41B34784265";
paths = (
{
closed = 1;
nodes = (
"219 0 LINE SMOOTH",
"455 0 OFFCURVE",
"544 27 OFFCURVE",
"631 98 CURVE SMOOTH",
"730 178 OFFCURVE",
"786 300 OFFCURVE",
"786 432 CURVE SMOOTH",
"786 527 OFFCURVE",
"754 603 OFFCURVE",
"691 656 CURVE SMOOTH",
"628 708 OFFCURVE",
"549 729 OFFCURVE",
"361 729 CURVE SMOOTH",
"163 729 LINE",
"21 0 LINE"
);
},
{
closed = 1;
nodes = (
"324 587 LINE",
"390 587 LINE SMOOTH",
"522 587 OFFCURVE",
"589 528 OFFCURVE",
"589 415 CURVE SMOOTH",
"589 248 OFFCURVE",
"480 142 OFFCURVE",
"304 142 CURVE SMOOTH",
"237 142 LINE"
);
}
);
width = 830;
}
);
leftKerningGroup = D;
note = D;
rightKerningGroup = D;
unicode = 0044;
},
{
export = 0;
glyphname = E;
layers = (
{
layerId = "EB88A49E-561A-4405-9552-C71224CBA53C";
paths = (
{
closed = 1;
nodes = (
"568 0 LINE",
"568 83 LINE",
"197 83 LINE",
"197 347 LINE",
"544 347 LINE",
"544 430 LINE",
"197 430 LINE",
"197 646 LINE",
"559 646 LINE",
"559 729 LINE",
"98 729 LINE",
"98 0 LINE"
);
}
);
width = 632;
},
{
layerId = "5297CC84-2E5E-44C2-8BD8-B52BBF62A592";
paths = (
{
closed = 1;
nodes = (
"610 0 LINE",
"610 142 LINE",
"280 142 LINE",
"280 309 LINE",
"580 309 LINE",
"580 451 LINE",
"280 451 LINE",
"280 587 LINE",
"599 587 LINE",
"599 729 LINE",
"92 729 LINE",
"92 0 LINE"
);
}
);
width = 683;
},
{
layerId = "79D829DC-9C66-44C2-8B43-D291CF08F0E9";
paths = (
{
closed = 1;
nodes = (
"497 0 LINE",
"513 83 LINE",
"142 83 LINE",
"193 347 LINE",
"541 347 LINE",
"557 430 LINE",
"209 430 LINE",
"251 646 LINE",
"614 646 LINE",
"630 729 LINE",
"169 729 LINE",
"27 0 LINE"
);
}
);
width = 632;
},
{
layerId = "D5B43B4B-63DF-4B35-BEE3-B41B34784265";
paths = (
{
closed = 1;
nodes = (
"539 0 LINE",
"566 142 LINE",
"237 142 LINE",
"269 309 LINE",
"569 309 LINE",
"597 451 LINE",
"297 451 LINE",
"323 587 LINE",
"642 587 LINE",
"670 729 LINE",
"163 729 LINE",
"21 0 LINE"
);
}
);
width = 683;
}
);
note = E;
unicode = 0045;
},
{
export = 0;
glyphname = F;
layers = (
{
layerId = "EB88A49E-561A-4405-9552-C71224CBA53C";
paths = (
{
closed = 1;
nodes = (
"197 0 LINE",
"197 348 LINE",
"486 348 LINE",
"486 431 LINE",
"197 431 LINE",
"197 646 LINE",
"517 646 LINE",
"517 729 LINE",
"98 729 LINE",
"98 0 LINE"
);
}
);
width = 575;
},
{
layerId = "5297CC84-2E5E-44C2-8BD8-B52BBF62A592";
paths = (
{
closed = 1;
nodes = (
"280 0 LINE",
"280 309 LINE",
"580 309 LINE",
"580 451 LINE",
"280 451 LINE",
"280 587 LINE",
"599 587 LINE",
"599 729 LINE",
"92 729 LINE",
"92 0 LINE"
);
}
);
width = 683;
},
{
layerId = "79D829DC-9C66-44C2-8B43-D291CF08F0E9";
paths = (
{
closed = 1;
nodes = (
"125 0 LINE",
"193 348 LINE",
"482 348 LINE",
"498 431 LINE",
"209 431 LINE",
"251 646 LINE",
"571 646 LINE",
"587 729 LINE",
"169 729 LINE",
"27 0 LINE"
);
}
);
width = 575;
},
{
layerId = "D5B43B4B-63DF-4B35-BEE3-B41B34784265";
paths = (
{
closed = 1;
nodes = (
"209 0 LINE",
"269 309 LINE",
"569 309 LINE",
"597 451 LINE",
"297 451 LINE",
"323 587 LINE",
"642 587 LINE",
"670 729 LINE",
"163 729 LINE",
"21 0 LINE"
);
}
);
width = 683;
}
);
leftKerningGroup = F;
note = F;
rightKerningGroup = F;
unicode = 0046;
},
{
export = 0;
glyphname = G;
layers = (
{
layerId = "EB88A49E-561A-4405-9552-C71224CBA53C";
paths = (
{
closed = 1;
nodes = (
"524 -14 OFFCURVE",
"617 13 OFFCURVE",
"693 68 CURVE",
"693 381 LINE",
"434 381 LINE",
"434 300 LINE",
"595 300 LINE",
"595 104 LINE",
"552 79 OFFCURVE",
"497 67 OFFCURVE",
"428 67 CURVE SMOOTH",
"249 67 OFFCURVE",
"160 167 OFFCURVE",
"160 364 CURVE SMOOTH",
"160 561 OFFCURVE",
"249 661 OFFCURVE",
"428 661 CURVE SMOOTH",
"519 661 OFFCURVE",
"601 629 OFFCURVE",
"674 568 CURVE",
"674 673 LINE",
"602 718 OFFCURVE",
"515 742 OFFCURVE",
"420 742 CURVE SMOOTH",
"192 742 OFFCURVE",
"56 601 OFFCURVE",
"56 364 CURVE SMOOTH",
"56 127 OFFCURVE",
"192 -14 OFFCURVE",
"420 -14 CURVE SMOOTH"
);
}
);
width = 775;
},
{
layerId = "5297CC84-2E5E-44C2-8BD8-B52BBF62A592";
paths = (
{
closed = 1;
nodes = (
"552 -14 OFFCURVE",
"654 9 OFFCURVE",
"747 54 CURVE",
"747 405 LINE",
"454 405 LINE",
"454 279 LINE",
"569 279 LINE",
"569 137 LINE",
"542 126 OFFCURVE",
"509 122 OFFCURVE",
"469 122 CURVE SMOOTH",
"325 122 OFFCURVE",
"244 209 OFFCURVE",
"244 364 CURVE SMOOTH",
"244 519 OFFCURVE",
"329 606 OFFCURVE",
"478 606 CURVE SMOOTH",
"559 606 OFFCURVE",
"639 584 OFFCURVE",
"720 537 CURVE",
"720 688 LINE",
"641 724 OFFCURVE",
"552 742 OFFCURVE",
"455 742 CURVE SMOOTH",
"204 742 OFFCURVE",
"50 599 OFFCURVE",
"50 364 CURVE SMOOTH",
"50 131 OFFCURVE",
"202 -14 OFFCURVE",
"445 -14 CURVE SMOOTH"
);
}
);
width = 821;
},
{
layerId = "79D829DC-9C66-44C2-8B43-D291CF08F0E9";
paths = (
{
closed = 1;
nodes = (
"441 -14 OFFCURVE",
"546 12 OFFCURVE",
"633 60 CURVE",
"696 381 LINE",
"437 381 LINE",
"422 300 LINE",
"584 300 LINE",
"546 109 LINE",
"491 81 OFFCURVE",
"426 66 OFFCURVE",
"357 66 CURVE SMOOTH",
"218 66 OFFCURVE",
"149 135 OFFCURVE",
"149 271 CURVE SMOOTH",
"149 370 OFFCURVE",
"181 470 OFFCURVE",
"234 541 CURVE SMOOTH",
"295 624 OFFCURVE",
"372 662 OFFCURVE",
"476 662 CURVE SMOOTH",
"565 662 OFFCURVE",
"646 629 OFFCURVE",
"705 568 CURVE",
"725 673 LINE",
"649 720 OFFCURVE",
"565 742 OFFCURVE",
"474 742 CURVE SMOOTH",
"373 742 OFFCURVE",
"291 715 OFFCURVE",
"222 658 CURVE SMOOTH",
"111 567 OFFCURVE",
"45 425 OFFCURVE",
"45 274 CURVE SMOOTH",
"45 93 OFFCURVE",
"154 -14 OFFCURVE",
"337 -14 CURVE SMOOTH"
);
}
);
width = 775;
},
{
layerId = "D5B43B4B-63DF-4B35-BEE3-B41B34784265";
paths = (
{
closed = 1;
nodes = (
"486 -14 OFFCURVE",
"586 9 OFFCURVE",
"681 54 CURVE",
"749 405 LINE",
"457 405 LINE",
"433 279 LINE",
"548 279 LINE",
"520 137 LINE",
"483 126 OFFCURVE",
"447 122 OFFCURVE",
"410 122 CURVE SMOOTH",
"298 122 OFFCURVE",
"234 190 OFFCURVE",
"234 306 CURVE SMOOTH",
"234 482 OFFCURVE",
"350 606 OFFCURVE",
"518 606 CURVE SMOOTH",
"595 606 OFFCURVE",
"669 584 OFFCURVE",
"749 537 CURVE",
"778 688 LINE",
"691 724 OFFCURVE",
"603 742 OFFCURVE",
"515 742 CURVE SMOOTH",
"358 742 OFFCURVE",
"236 691 OFFCURVE",
"147 587 CURVE SMOOTH",
"74 502 OFFCURVE",
"36 397 OFFCURVE",
"36 280 CURVE SMOOTH",
"36 99 OFFCURVE",
"162 -14 OFFCURVE",
"369 -14 CURVE SMOOTH"
);
}
);
width = 821;
}
);
leftKerningGroup = G;
note = G;
rightKerningGroup = G;
unicode = 0047;
},
{
export = 0;
glyphname = H;
layers = (
{
layerId = "EB88A49E-561A-4405-9552-C71224CBA53C";
paths = (
{
closed = 1;
nodes = (
"197 0 LINE",
"197 347 LINE",
"555 347 LINE",
"555 0 LINE",
"654 0 LINE",
"654 729 LINE",
"555 729 LINE",
"555 430 LINE",
"197 430 LINE",
"197 729 LINE",
"98 729 LINE",
"98 0 LINE"
);
}
);
width = 752;
},
{
layerId = "5297CC84-2E5E-44C2-8BD8-B52BBF62A592";
paths = (
{
closed = 1;
nodes = (
"280 0 LINE",
"280 309 LINE",
"557 309 LINE",
"557 0 LINE",
"745 0 LINE",
"745 729 LINE",
"557 729 LINE",
"557 451 LINE",
"280 451 LINE",
"280 729 LINE",
"92 729 LINE",
"92 0 LINE"
);
}
);
width = 837;
},
{
layerId = "79D829DC-9C66-44C2-8B43-D291CF08F0E9";
paths = (
{
closed = 1;
nodes = (
"126 0 LINE",
"194 347 LINE",
"552 347 LINE",
"484 0 LINE",
"583 0 LINE",
"725 729 LINE",
"626 729 LINE",
"568 430 LINE",
"210 430 LINE",
"268 729 LINE",
"169 729 LINE",
"27 0 LINE"
);
}
);
width = 752;
},
{
layerId = "D5B43B4B-63DF-4B35-BEE3-B41B34784265";
paths = (
{
closed = 1;
nodes = (
"209 0 LINE",
"269 309 LINE",
"546 309 LINE",
"486 0 LINE",
"674 0 LINE",
"816 729 LINE",
"628 729 LINE",
"574 451 LINE",
"297 451 LINE",
"351 729 LINE",
"163 729 LINE",
"21 0 LINE"
);
}
);
width = 837;
}
);
leftKerningGroup = F;
note = H;
rightKerningGroup = H;
unicode = 0048;
},
{
export = 0;
glyphname = I;
layers = (
{
layerId = "EB88A49E-561A-4405-9552-C71224CBA53C";
paths = (
{
closed = 1;
nodes = (
"197 0 LINE",
"197 729 LINE",
"98 729 LINE",
"98 0 LINE"
);
}
);
width = 295;
},
{
layerId = "5297CC84-2E5E-44C2-8BD8-B52BBF62A592";
paths = (
{
closed = 1;
nodes = (
"280 0 LINE",
"280 729 LINE",
"92 729 LINE",
"92 0 LINE"
);
}
);
width = 372;
},
{
layerId = "79D829DC-9C66-44C2-8B43-D291CF08F0E9";
paths = (
{
closed = 1;
nodes = (
"126 0 LINE",
"268 729 LINE",
"169 729 LINE",
"27 0 LINE"
);
}
);
width = 295;
},
{
layerId = "D5B43B4B-63DF-4B35-BEE3-B41B34784265";
paths = (
{
closed = 1;
nodes = (
"209 0 LINE",
"351 729 LINE",
"163 729 LINE",
"21 0 LINE"
);
}
);
width = 372;
}
);
note = I;
unicode = 0049;
},
{
export = 0;
glyphname = I.alt;
layers = (
{
layerId = "EB88A49E-561A-4405-9552-C71224CBA53C";
paths = (
{
closed = 1;
nodes = (
"370 0 LINE",
"370 83 LINE",
"271 83 LINE",
"271 646 LINE",
"370 646 LINE",
"370 729 LINE",
"74 729 LINE",
"74 646 LINE",
"172 646 LINE",
"172 83 LINE",
"74 83 LINE",
"74 0 LINE"
);
}
);
width = 443;
},
{
layerId = "5297CC84-2E5E-44C2-8BD8-B52BBF62A592";
paths = (
{
closed = 1;
nodes = (
"448 0 LINE",
"448 142 LINE",
"350 142 LINE",
"350 587 LINE",
"448 587 LINE",
"448 729 LINE",
"64 729 LINE",
"64 587 LINE",
"162 587 LINE",
"162 142 LINE",
"64 142 LINE",
"64 0 LINE"
);
}
);
width = 513;
},
{
layerId = "79D829DC-9C66-44C2-8B43-D291CF08F0E9";
paths = (
{
closed = 1;
nodes = (
"299 0 LINE",
"315 83 LINE",
"216 83 LINE",
"326 646 LINE",
"424 646 LINE",
"440 729 LINE",
"144 729 LINE",
"128 646 LINE",
"227 646 LINE",
"117 83 LINE",
"19 83 LINE",
"3 0 LINE"
);
}
);
width = 443;
},
{
layerId = "D5B43B4B-63DF-4B35-BEE3-B41B34784265";
paths = (
{
closed = 1;
nodes = (
"377 0 LINE",
"405 142 LINE",
"307 142 LINE",
"393 587 LINE",
"491 587 LINE",
"519 729 LINE",
"135 729 LINE",
"107 587 LINE",
"205 587 LINE",
"119 142 LINE",
"21 142 LINE",
"-6 0 LINE"
);
}
);
width = 513;
}
);
note = I.alt;
},
{
export = 0;
glyphname = J;
layers = (
{
layerId = "EB88A49E-561A-4405-9552-C71224CBA53C";
paths = (
{
closed = 1;
nodes = (
"-14 -200 LINE SMOOTH",
"134 -200 OFFCURVE",
"197 -125 OFFCURVE",
"197 51 CURVE SMOOTH",
"197 729 LINE",
"98 729 LINE",
"98 51 LINE SMOOTH",
"98 -76 OFFCURVE",
"66 -117 OFFCURVE",
"-21 -117 CURVE SMOOTH",
"-52 -117 LINE",
"-52 -200 LINE"
);
}
);
width = 295;
},
{
layerId = "5297CC84-2E5E-44C2-8BD8-B52BBF62A592";
paths = (
{
closed = 1;
nodes = (
"-18 -200 LINE SMOOTH",
"182 -200 OFFCURVE",
"280 -110 OFFCURVE",
"280 71 CURVE SMOOTH",
"280 729 LINE",
"92 729 LINE",
"92 71 LINE SMOOTH",
"92 -14 OFFCURVE",
"52 -58 OFFCURVE",
"-27 -58 CURVE SMOOTH",
"-56 -58 LINE",
"-56 -200 LINE"
);
}
);
width = 372;
},
{
layerId = "79D829DC-9C66-44C2-8B43-D291CF08F0E9";
paths = (
{
closed = 1;
nodes = (
"-125 -200 LINE SMOOTH",
"22 -200 OFFCURVE",
"99 -126 OFFCURVE",
"134 51 CURVE SMOOTH",
"266 729 LINE",
"167 729 LINE",
"35 51 LINE SMOOTH",
"11 -73 OFFCURVE",
"-29 -117 OFFCURVE",
"-117 -117 CURVE SMOOTH",
"-148 -117 LINE",
"-164 -200 LINE"
);
}
);
width = 295;
},
{
layerId = "D5B43B4B-63DF-4B35-BEE3-B41B34784265";
paths = (
{
closed = 1;
nodes = (
"-128 -200 LINE SMOOTH",
"81 -200 OFFCURVE",
"186 -120 OFFCURVE",
"223 71 CURVE SMOOTH",
"351 729 LINE",
"163 729 LINE",
"35 71 LINE SMOOTH",
"19 -13 OFFCURVE",
"-32 -58 OFFCURVE",
"-109 -58 CURVE SMOOTH",
"-138 -58 LINE",
"-166 -200 LINE"
);
}
);
width = 372;
}
);
leftKerningGroup = J;
note = J;
rightKerningGroup = J;
unicode = 004A;
},
{
export = 0;
glyphname = J.alt;
layers = (
{
layerId = "EB88A49E-561A-4405-9552-C71224CBA53C";
paths = (
{
closed = 1;
nodes = (
"351 -14 OFFCURVE",
"414 54 OFFCURVE",
"414 238 CURVE SMOOTH",
"414 729 LINE",
"315 729 LINE",
"315 238 LINE SMOOTH",
"315 106 OFFCURVE",
"283 66 OFFCURVE",
"190 66 CURVE SMOOTH",
"122 66 OFFCURVE",
"59 92 OFFCURVE",
"0 145 CURVE",
"0 30 LINE",
"67 -1 OFFCURVE",
"127 -14 OFFCURVE",
"190 -14 CURVE SMOOTH"
);
}
);
width = 512;
},
{
layerId = "5297CC84-2E5E-44C2-8BD8-B52BBF62A592";
paths = (
{
closed = 1;
nodes = (
"370 -14 OFFCURVE",
"439 57 OFFCURVE",
"439 234 CURVE SMOOTH",
"439 729 LINE",
"251 729 LINE",
"251 248 LINE SMOOTH",
"251 165 OFFCURVE",
"222 129 OFFCURVE",
"158 129 CURVE SMOOTH",
"103 129 OFFCURVE",
"48 160 OFFCURVE",
"0 217 CURVE",
"0 36 LINE",
"68 3 OFFCURVE",
"136 -14 OFFCURVE",
"199 -14 CURVE SMOOTH"
);
}
);
width = 530;
},
{
layerId = "79D829DC-9C66-44C2-8B43-D291CF08F0E9";
paths = (
{
closed = 1;
nodes = (
"348 -14 OFFCURVE",
"424 54 OFFCURVE",
"460 238 CURVE SMOOTH",
"555 729 LINE",
"457 729 LINE",
"361 238 LINE SMOOTH",
"336 106 OFFCURVE",
"295 66 OFFCURVE",
"203 66 CURVE SMOOTH",
"135 66 OFFCURVE",
"77 92 OFFCURVE",
"28 145 CURVE",
"6 30 LINE",
"67 -1 OFFCURVE",
"124 -14 OFFCURVE",
"187 -14 CURVE SMOOTH"
);
}
);
width = 512;
},
{
layerId = "D5B43B4B-63DF-4B35-BEE3-B41B34784265";
paths = (
{
closed = 1;
nodes = (
"367 -14 OFFCURVE",
"449 57 OFFCURVE",
"484 234 CURVE SMOOTH",
"581 729 LINE",
"393 729 LINE",
"299 248 LINE SMOOTH",
"283 165 OFFCURVE",
"247 129 OFFCURVE",
"183 129 CURVE SMOOTH",
"128 129 OFFCURVE",
"78 160 OFFCURVE",
"42 217 CURVE",
"7 36 LINE",
"68 3 OFFCURVE",
"133 -14 OFFCURVE",
"196 -14 CURVE SMOOTH"
);
}
);
width = 530;
}
);
note = J.alt;
},
{
export = 0;
glyphname = K;
layers = (
{
layerId = "EB88A49E-561A-4405-9552-C71224CBA53C";
paths = (
{
closed = 1;
nodes = (
"197 0 LINE",
"197 351 LINE",
"547 0 LINE",
"677 0 LINE",
"289 389 LINE",
"651 729 LINE",
"524 729 LINE",
"197 421 LINE",
"197 729 LINE",
"98 729 LINE",
"98 0 LINE"
);
}
);
width = 656;
},
{
layerId = "5297CC84-2E5E-44C2-8BD8-B52BBF62A592";
paths = (
{
closed = 1;
nodes = (
"280 0 LINE",
"280 287 LINE",
"570 0 LINE",
"805 0 LINE",
"418 384 LINE",
"769 729 LINE",
"551 729 LINE",
"280 463 LINE",
"280 729 LINE",
"92 729 LINE",
"92 0 LINE"
);
}
);
width = 775;
},
{
layerId = "79D829DC-9C66-44C2-8B43-D291CF08F0E9";
paths = (
{
closed = 1;
nodes = (
"126 0 LINE",
"195 355 LINE",
"486 0 LINE",
"606 0 LINE",
"289 381 LINE",
"722 729 LINE",
"591 729 LINE",
"208 422 LINE",
"268 729 LINE",
"169 729 LINE",
"27 0 LINE"
);
}
);
width = 656;
},
{
layerId = "D5B43B4B-63DF-4B35-BEE3-B41B34784265";
paths = (
{
closed = 1;
nodes = (
"209 0 LINE",
"268 304 LINE",
"513 0 LINE",
"734 0 LINE",
"419 375 LINE",
"837 729 LINE",
"610 729 LINE",
"300 467 LINE",
"351 729 LINE",
"163 729 LINE",
"21 0 LINE"
);
}
);
width = 775;
}
);
leftKerningGroup = F;
note = K;
rightKerningGroup = K;
unicode = 004B;
},
{
export = 0;
glyphname = L;
layers = (
{
layerId = "EB88A49E-561A-4405-9552-C71224CBA53C";
paths = (
{
closed = 1;
nodes = (
"552 0 LINE",
"552 83 LINE",
"197 83 LINE",
"197 729 LINE",
"98 729 LINE",
"98 0 LINE"
);
}
);
width = 557;
},
{
layerId = "5297CC84-2E5E-44C2-8BD8-B52BBF62A592";
paths = (
{
closed = 1;
nodes = (
"610 0 LINE",
"610 142 LINE",
"280 142 LINE",
"280 729 LINE",
"92 729 LINE",
"92 0 LINE"
);
}
);
width = 637;
},
{
layerId = "79D829DC-9C66-44C2-8B43-D291CF08F0E9";
paths = (
{
closed = 1;
nodes = (
"481 0 LINE",
"497 82 LINE",
"142 82 LINE",
"267 729 LINE",
"168 729 LINE",
"27 0 LINE"
);
}
);
width = 557;
},
{
layerId = "D5B43B4B-63DF-4B35-BEE3-B41B34784265";
paths = (
{
closed = 1;
nodes = (
"539 0 LINE",
"566 142 LINE",
"237 142 LINE",
"351 729 LINE",
"163 729 LINE",
"21 0 LINE"
);
}
);
width = 637;
}
);
leftKerningGroup = F;
note = L;
rightKerningGroup = L;
unicode = 004C;
},
{
export = 0;
glyphname = M;
layers = (
{
layerId = "EB88A49E-561A-4405-9552-C71224CBA53C";
paths = (
{
closed = 1;
nodes = (
"194 0 LINE",
"194 640 LINE",
"382 140 LINE",
"481 140 LINE",
"669 640 LINE",
"669 0 LINE",
"765 0 LINE",
"765 729 LINE",
"618 729 LINE",
"431 233 LINE",
"245 729 LINE",
"98 729 LINE",
"98 0 LINE"
);
}
);
width = 863;
},
{
layerId = "5297CC84-2E5E-44C2-8BD8-B52BBF62A592";
paths = (
{
closed = 1;
nodes = (
"270 0 LINE",
"270 533 LINE",
"438 140 LINE",
"557 140 LINE",
"725 533 LINE",
"725 0 LINE",
"903 0 LINE",
"903 729 LINE",
"664 729 LINE",
"497 339 LINE",
"331 729 LINE",
"92 729 LINE",
"92 0 LINE"
);
}
);
width = 995;
},
{
layerId = "79D829DC-9C66-44C2-8B43-D291CF08F0E9";
paths = (
{
closed = 1;
nodes = (
"123 0 LINE",
"247 641 LINE",
"340 140 LINE",
"436 140 LINE",
"722 639 LINE",
"598 0 LINE",
"694 0 LINE",
"836 729 LINE",
"684 729 LINE",
"402 238 LINE",
"317 729 LINE",
"169 729 LINE",
"27 0 LINE"
);
}
);
width = 863;
},
{
layerId = "D5B43B4B-63DF-4B35-BEE3-B41B34784265";
paths = (
{
closed = 1;
nodes = (
"199 0 LINE",
"303 538 LINE",
"404 140 LINE",
"505 140 LINE",
"758 538 LINE",
"654 0 LINE",
"832 0 LINE",
"974 729 LINE",
"734 729 LINE",
"488 342 LINE",
"394 729 LINE",
"163 729 LINE",
"21 0 LINE"
);
}
);
width = 995;
}
);
note = M;
unicode = 004D;
},
{
export = 0;
glyphname = N;
layers = (
{
layerId = "EB88A49E-561A-4405-9552-C71224CBA53C";
paths = (
{
closed = 1;
nodes = (
"194 0 LINE",
"194 610 LINE",
"517 0 LINE",
"650 0 LINE",
"650 729 LINE",
"554 729 LINE",
"554 119 LINE",
"231 729 LINE",
"98 729 LINE",
"98 0 LINE"
);
}
);
width = 748;
},
{
layerId = "5297CC84-2E5E-44C2-8BD8-B52BBF62A592";
paths = (
{
closed = 1;
nodes = (
"270 0 LINE",
"270 500 LINE",
"535 0 LINE",
"745 0 LINE",
"745 729 LINE",
"567 729 LINE",
"567 229 LINE",
"302 729 LINE",
"92 729 LINE",
"92 0 LINE"
);
}
);
width = 837;
},
{
layerId = "79D829DC-9C66-44C2-8B43-D291CF08F0E9";
paths = (
{
closed = 1;
nodes = (
"123 0 LINE",
"245 629 LINE",
"446 0 LINE",
"579 0 LINE",
"721 729 LINE",
"625 729 LINE",
"503 104 LINE",
"302 729 LINE",
"169 729 LINE",
"27 0 LINE"
);
}
);
width = 748;
},
{
layerId = "D5B43B4B-63DF-4B35-BEE3-B41B34784265";
paths = (
{
closed = 1;
nodes = (
"199 0 LINE",
"297 505 LINE",
"464 0 LINE",
"674 0 LINE",
"816 729 LINE",
"638 729 LINE",
"540 224 LINE",
"373 729 LINE",
"163 729 LINE",
"21 0 LINE"
);
}
);
width = 837;
}
);
note = N;
unicode = 004E;
},
{
export = 0;
glyphname = O;
layers = (
{
layerId = "EB88A49E-561A-4405-9552-C71224CBA53C";
paths = (
{
closed = 1;
nodes = (
"598 -14 OFFCURVE",
"731 133 OFFCURVE",
"731 364 CURVE SMOOTH",
"731 595 OFFCURVE",
"598 742 OFFCURVE",
"394 742 CURVE SMOOTH",
"189 742 OFFCURVE",
"56 595 OFFCURVE",
"56 364 CURVE SMOOTH",
"56 133 OFFCURVE",
"189 -14 OFFCURVE",
"394 -14 CURVE SMOOTH"
);
},
{
closed = 1;
nodes = (
"251 66 OFFCURVE",
"160 180 OFFCURVE",
"160 364 CURVE SMOOTH",
"160 548 OFFCURVE",
"251 662 OFFCURVE",
"394 662 CURVE SMOOTH",
"537 662 OFFCURVE",
"627 548 OFFCURVE",
"627 364 CURVE SMOOTH",
"627 180 OFFCURVE",
"537 66 OFFCURVE",
"394 66 CURVE SMOOTH"
);
}
);
width = 787;
},
{
layerId = "5297CC84-2E5E-44C2-8BD8-B52BBF62A592";
paths = (
{
closed = 1;
nodes = (
"660 -14 OFFCURVE",
"800 128 OFFCURVE",
"800 364 CURVE SMOOTH",
"800 600 OFFCURVE",
"660 742 OFFCURVE",
"425 742 CURVE SMOOTH",
"192 742 OFFCURVE",
"50 600 OFFCURVE",
"50 364 CURVE SMOOTH",
"50 128 OFFCURVE",
"192 -14 OFFCURVE",
"425 -14 CURVE SMOOTH"
);
},
{
closed = 1;
nodes = (
"310 122 OFFCURVE",
"244 211 OFFCURVE",
"244 364 CURVE SMOOTH",
"244 517 OFFCURVE",
"310 606 OFFCURVE",
"425 606 CURVE SMOOTH",
"540 606 OFFCURVE",
"606 517 OFFCURVE",
"606 364 CURVE SMOOTH",
"606 211 OFFCURVE",
"540 122 OFFCURVE",
"425 122 CURVE SMOOTH"
);
}
);
width = 850;
},
{
layerId = "79D829DC-9C66-44C2-8B43-D291CF08F0E9";
paths = (
{
closed = 1;
nodes = (
"451 -14 OFFCURVE",
"550 35 OFFCURVE",
"634 136 CURVE SMOOTH",
"706 224 OFFCURVE",
"747 336 OFFCURVE",
"747 448 CURVE SMOOTH",
"747 629 OFFCURVE",
"638 742 OFFCURVE",
"459 742 CURVE SMOOTH",
"336 742 OFFCURVE",
"236 692 OFFCURVE",
"153 592 CURVE SMOOTH",
"82 505 OFFCURVE",
"40 388 OFFCURVE",
"40 283 CURVE SMOOTH",
"40 99 OFFCURVE",
"149 -14 OFFCURVE",
"328 -14 CURVE SMOOTH"
);
},
{
closed = 1;
nodes = (
"212 66 OFFCURVE",
"145 142 OFFCURVE",
"145 278 CURVE SMOOTH",
"145 355 OFFCURVE",
"166 435 OFFCURVE",
"205 503 CURVE SMOOTH",
"266 610 OFFCURVE",
"348 662 OFFCURVE",
"456 662 CURVE SMOOTH",
"573 662 OFFCURVE",
"642 585 OFFCURVE",
"642 450 CURVE SMOOTH",
"642 374 OFFCURVE",
"621 295 OFFCURVE",
"581 224 CURVE SMOOTH",
"522 120 OFFCURVE",
"438 66 OFFCURVE",
"331 66 CURVE SMOOTH"
);
}
);
width = 787;
},
{
layerId = "D5B43B4B-63DF-4B35-BEE3-B41B34784265";
paths = (
{
closed = 1;
nodes = (
"509 -14 OFFCURVE",
"624 37 OFFCURVE",
"708 140 CURVE SMOOTH",
"777 224 OFFCURVE",
"814 331 OFFCURVE",
"814 450 CURVE SMOOTH",
"814 625 OFFCURVE",
"686 742 OFFCURVE",
"491 742 CURVE SMOOTH",
"340 742 OFFCURVE",
"226 692 OFFCURVE",
"142 589 CURVE SMOOTH",
"73 504 OFFCURVE",
"36 397 OFFCURVE",
"36 278 CURVE SMOOTH",
"36 103 OFFCURVE",
"165 -14 OFFCURVE",
"358 -14 CURVE SMOOTH"
);
},
{
closed = 1;
nodes = (
"288 122 OFFCURVE",
"234 187 OFFCURVE",
"234 299 CURVE SMOOTH",
"234 475 OFFCURVE",
"333 606 OFFCURVE",
"464 606 CURVE SMOOTH",
"563 606 OFFCURVE",
"615 545 OFFCURVE",
"615 430 CURVE SMOOTH",
"615 353 OFFCURVE",
"593 275 OFFCURVE",
"554 216 CURVE SMOOTH",
"513 153 OFFCURVE",
"455 122 OFFCURVE",
"380 122 CURVE SMOOTH"
);
}
);
width = 850;
}
);
leftKerningGroup = O;
note = O;
rightKerningGroup = O;
unicode = 004F;
},
{
export = 0;
glyphname = P;
layers = (
{
layerId = "EB88A49E-561A-4405-9552-C71224CBA53C";
paths = (
{
closed = 1;
nodes = (
"197 0 LINE",
"197 293 LINE",
"321 293 LINE SMOOTH",
"484 293 OFFCURVE",
"569 367 OFFCURVE",
"569 511 CURVE SMOOTH",
"569 654 OFFCURVE",
"484 729 OFFCURVE",
"321 729 CURVE SMOOTH",
"98 729 LINE",
"98 0 LINE"
);
},
{
closed = 1;
nodes = (
"197 648 LINE",
"321 648 LINE SMOOTH",
"413 648 OFFCURVE",
"465 599 OFFCURVE",
"465 511 CURVE SMOOTH",
"465 423 OFFCURVE",
"413 374 OFFCURVE",
"321 374 CURVE SMOOTH",
"197 374 LINE"
);
}
);
width = 603;
},
{
layerId = "5297CC84-2E5E-44C2-8BD8-B52BBF62A592";
paths = (
{
closed = 1;
nodes = (
"280 0 LINE",
"280 253 LINE",
"404 253 LINE SMOOTH",
"589 253 OFFCURVE",
"692 338 OFFCURVE",
"692 491 CURVE SMOOTH",
"692 643 OFFCURVE",
"589 729 OFFCURVE",
"404 729 CURVE SMOOTH",
"92 729 LINE",
"92 0 LINE"
);
},
{
closed = 1;
nodes = (
"280 593 LINE",
"384 593 LINE SMOOTH",
"456 593 OFFCURVE",
"498 556 OFFCURVE",
"498 491 CURVE SMOOTH",
"498 426 OFFCURVE",
"456 389 OFFCURVE",
"384 389 CURVE SMOOTH",
"280 389 LINE"
);
}
);
width = 733;
},
{
layerId = "79D829DC-9C66-44C2-8B43-D291CF08F0E9";
paths = (
{
closed = 1;
nodes = (
"126 0 LINE",
"183 293 LINE",
"307 293 LINE SMOOTH",
"494 293 OFFCURVE",
"601 387 OFFCURVE",
"601 547 CURVE SMOOTH",
"601 666 OFFCURVE",
"530 729 OFFCURVE",
"397 729 CURVE SMOOTH",
"169 729 LINE",
"27 0 LINE"
);
},
{
closed = 1;
nodes = (
"252 648 LINE",
"381 648 LINE SMOOTH",
"454 648 OFFCURVE",
"497 608 OFFCURVE",
"497 540 CURVE SMOOTH",
"497 433 OFFCURVE",
"435 374 OFFCURVE",
"323 374 CURVE SMOOTH",
"199 374 LINE"
);
}
);
width = 603;
},
{
layerId = "D5B43B4B-63DF-4B35-BEE3-B41B34784265";
paths = (
{
closed = 1;
nodes = (
"209 0 LINE",
"258 253 LINE",
"382 253 LINE SMOOTH",
"503 253 OFFCURVE",
"579 277 OFFCURVE",
"636 332 CURVE SMOOTH",
"689 384 OFFCURVE",
"719 455 OFFCURVE",
"719 531 CURVE SMOOTH",
"719 655 OFFCURVE",
"628 729 OFFCURVE",
"475 729 CURVE SMOOTH",
"163 729 LINE",
"21 0 LINE"
);
},
{
closed = 1;
nodes = (
"325 593 LINE",
"428 593 LINE SMOOTH",
"492 593 OFFCURVE",
"526 564 OFFCURVE",
"526 511 CURVE SMOOTH",
"526 432 OFFCURVE",
"478 389 OFFCURVE",
"389 389 CURVE SMOOTH",
"285 389 LINE"
);
}
);
width = 733;
}
);
leftKerningGroup = F;
note = P;
rightKerningGroup = P;
unicode = 0050;
},
{
export = 0;
glyphname = Q;
layers = (
{
layerId = "EB88A49E-561A-4405-9552-C71224CBA53C";
paths = (
{
closed = 1;
nodes = (
"662 -129 LINE",
"532 13 LINE",
"661 70 OFFCURVE",
"731 195 OFFCURVE",
"731 364 CURVE SMOOTH",
"731 595 OFFCURVE",
"598 742 OFFCURVE",
"394 742 CURVE SMOOTH",
"189 742 OFFCURVE",
"56 595 OFFCURVE",
"56 364 CURVE SMOOTH",
"56 133 OFFCURVE",
"189 -14 OFFCURVE",
"394 -14 CURVE SMOOTH",
"405 -14 OFFCURVE",
"414 -13 OFFCURVE",
"435 -12 CURVE",
"543 -129 LINE"
);
},
{
closed = 1;
nodes = (
"251 66 OFFCURVE",
"160 180 OFFCURVE",
"160 364 CURVE SMOOTH",
"160 548 OFFCURVE",
"251 662 OFFCURVE",
"394 662 CURVE SMOOTH",
"537 662 OFFCURVE",
"627 548 OFFCURVE",
"627 364 CURVE SMOOTH",
"627 180 OFFCURVE",
"537 66 OFFCURVE",
"394 66 CURVE SMOOTH"
);
}
);
width = 787;
},
{
layerId = "5297CC84-2E5E-44C2-8BD8-B52BBF62A592";
paths = (
{
closed = 1;
nodes = (
"743 -146 LINE",
"596 18 LINE",
"728 78 OFFCURVE",
"800 200 OFFCURVE",
"800 364 CURVE SMOOTH",
"800 603 OFFCURVE",
"661 742 OFFCURVE",
"425 742 CURVE SMOOTH",
"192 742 OFFCURVE",
"50 600 OFFCURVE",
"50 364 CURVE SMOOTH",
"50 127 OFFCURVE",
"190 -13 OFFCURVE",
"430 -13 CURVE SMOOTH",
"445 -13 LINE",
"564 -146 LINE"
);
},
{
closed = 1;
nodes = (
"308 122 OFFCURVE",
"244 208 OFFCURVE",
"244 364 CURVE SMOOTH",
"244 517 OFFCURVE",
"310 606 OFFCURVE",
"425 606 CURVE SMOOTH",
"540 606 OFFCURVE",
"606 517 OFFCURVE",
"606 364 CURVE SMOOTH",
"606 211 OFFCURVE",
"540 122 OFFCURVE",
"425 122 CURVE SMOOTH"
);
}
);
width = 850;
},
{
layerId = "79D829DC-9C66-44C2-8B43-D291CF08F0E9";
paths = (
{
closed = 1;
nodes = (
"555 -129 LINE",
"456 7 LINE",
"629 74 OFFCURVE",
"747 252 OFFCURVE",
"747 448 CURVE SMOOTH",
"747 629 OFFCURVE",
"638 742 OFFCURVE",
"459 742 CURVE SMOOTH",
"336 742 OFFCURVE",
"234 692 OFFCURVE",
"153 592 CURVE SMOOTH",
"82 504 OFFCURVE",
"41 389 OFFCURVE",
"41 281 CURVE SMOOTH",
"41 97 OFFCURVE",
"149 -14 OFFCURVE",
"332 -14 CURVE SMOOTH",
"340 -14 OFFCURVE",
"346 -14 OFFCURVE",
"350 -14 CURVE SMOOTH",
"353 -14 OFFCURVE",
"357 -14 OFFCURVE",
"361 -13 CURVE",
"445 -129 LINE"
);
},
{
closed = 1;
nodes = (
"212 66 OFFCURVE",
"145 142 OFFCURVE",
"145 278 CURVE SMOOTH",
"145 355 OFFCURVE",
"166 435 OFFCURVE",
"205 503 CURVE SMOOTH",
"266 610 OFFCURVE",
"348 662 OFFCURVE",
"456 662 CURVE SMOOTH",
"573 662 OFFCURVE",
"642 585 OFFCURVE",
"642 450 CURVE SMOOTH",
"642 374 OFFCURVE",
"621 295 OFFCURVE",
"581 224 CURVE SMOOTH",
"522 120 OFFCURVE",
"438 66 OFFCURVE",
"331 66 CURVE SMOOTH"
);
}
);
width = 787;
},
{
layerId = "D5B43B4B-63DF-4B35-BEE3-B41B34784265";
paths = (
{
closed = 1;
nodes = (
"644 -146 LINE",
"532 13 LINE",
"709 84 OFFCURVE",
"814 246 OFFCURVE",
"814 450 CURVE SMOOTH",
"814 625 OFFCURVE",
"686 742 OFFCURVE",
"491 742 CURVE SMOOTH",
"339 742 OFFCURVE",
"226 693 OFFCURVE",
"142 589 CURVE SMOOTH",
"73 505 OFFCURVE",
"36 397 OFFCURVE",
"36 278 CURVE SMOOTH",
"36 185 OFFCURVE",
"78 98 OFFCURVE",
"150 46 CURVE SMOOTH",
"203 6 OFFCURVE",
"270 -14 OFFCURVE",
"343 -14 CURVE SMOOTH",
"351 -14 OFFCURVE",
"357 -14 OFFCURVE",
"361 -14 CURVE SMOOTH",
"364 -14 OFFCURVE",
"368 -14 OFFCURVE",
"371 -13 CURVE",
"465 -146 LINE"
);
},
{
closed = 1;
nodes = (
"288 122 OFFCURVE",
"234 187 OFFCURVE",
"234 299 CURVE SMOOTH",
"234 475 OFFCURVE",
"333 606 OFFCURVE",
"464 606 CURVE SMOOTH",
"563 606 OFFCURVE",
"615 545 OFFCURVE",
"615 430 CURVE SMOOTH",
"615 353 OFFCURVE",
"593 275 OFFCURVE",
"554 216 CURVE SMOOTH",
"513 153 OFFCURVE",
"455 122 OFFCURVE",
"380 122 CURVE SMOOTH"
);
}
);
width = 850;
}
);
leftKerningGroup = Q;
note = Q;
rightKerningGroup = Q;
unicode = 0051;
},
{
export = 0;
glyphname = R;
layers = (
{
layerId = "EB88A49E-561A-4405-9552-C71224CBA53C";
paths = (
{
closed = 1;
nodes = (
"197 0 LINE",
"197 308 LINE",
"304 308 LINE SMOOTH",
"383 308 OFFCURVE",
"419 284 OFFCURVE",
"467 187 CURVE SMOOTH",
"560 0 LINE",
"666 0 LINE",
"566 199 LINE SMOOTH",
"526 282 OFFCURVE",
"487 327 OFFCURVE",
"444 342 CURVE",
"525 365 OFFCURVE",
"569 427 OFFCURVE",
"569 519 CURVE SMOOTH",
"569 660 OFFCURVE",
"488 729 OFFCURVE",
"321 729 CURVE SMOOTH",
"98 729 LINE",
"98 0 LINE"
);
},
{
closed = 1;
nodes = (
"197 648 LINE",
"321 648 LINE SMOOTH",
"416 648 OFFCURVE",
"465 604 OFFCURVE",
"465 519 CURVE SMOOTH",
"465 434 OFFCURVE",
"416 389 OFFCURVE",
"321 389 CURVE SMOOTH",
"197 389 LINE"
);
}
);
width = 695;
},
{
layerId = "5297CC84-2E5E-44C2-8BD8-B52BBF62A592";
paths = (
{
closed = 1;
nodes = (
"280 0 LINE",
"280 276 LINE",
"333 276 LINE SMOOTH",
"394 276 OFFCURVE",
"425 254 OFFCURVE",
"461 181 CURVE SMOOTH",
"550 0 LINE",
"750 0 LINE",
"648 207 LINE SMOOTH",
"607 291 OFFCURVE",
"569 329 OFFCURVE",
"517 341 CURVE",
"610 370 OFFCURVE",
"657 432 OFFCURVE",
"657 528 CURVE SMOOTH",
"657 667 OFFCURVE",
"571 729 OFFCURVE",
"379 729 CURVE SMOOTH",
"92 729 LINE",
"92 0 LINE"
);
},
{
closed = 1;
nodes = (
"280 593 LINE",
"359 593 LINE SMOOTH",
"438 593 OFFCURVE",
"469 567 OFFCURVE",
"469 500 CURVE SMOOTH",
"469 433 OFFCURVE",
"438 406 OFFCURVE",
"359 406 CURVE SMOOTH",
"280 406 LINE"
);
}
);
width = 770;
},
{
layerId = "79D829DC-9C66-44C2-8B43-D291CF08F0E9";
paths = (
{
closed = 1;
nodes = (
"126 0 LINE",
"186 308 LINE",
"295 308 LINE SMOOTH",
"374 308 OFFCURVE",
"405 283 OFFCURVE",
"434 187 CURVE SMOOTH",
"491 0 LINE",
"595 0 LINE",
"533 199 LINE SMOOTH",
"515 256 OFFCURVE",
"499 295 OFFCURVE",
"485 314 CURVE SMOOTH",
"471 333 OFFCURVE",
"454 345 OFFCURVE",
"433 350 CURVE",
"533 369 OFFCURVE",
"600 451 OFFCURVE",
"600 552 CURVE SMOOTH",
"600 667 OFFCURVE",
"526 729 OFFCURVE",
"391 729 CURVE SMOOTH",
"169 729 LINE",
"27 0 LINE"
);
},
{
closed = 1;
nodes = (
"252 648 LINE",
"376 648 LINE SMOOTH",
"453 648 OFFCURVE",
"496 609 OFFCURVE",
"496 538 CURVE SMOOTH",
"496 450 OFFCURVE",
"429 389 OFFCURVE",
"329 389 CURVE SMOOTH",
"202 389 LINE"
);
}
);
width = 695;
},
{
layerId = "D5B43B4B-63DF-4B35-BEE3-B41B34784265";
paths = (
{
closed = 1;
nodes = (
"209 0 LINE",
"263 276 LINE",
"323 276 LINE SMOOTH",
"383 276 OFFCURVE",
"411 253 OFFCURVE",
"432 181 CURVE SMOOTH",
"487 0 LINE",
"674 0 LINE",
"612 207 LINE SMOOTH",
"587 292 OFFCURVE",
"555 330 OFFCURVE",
"504 341 CURVE",
"615 352 OFFCURVE",
"685 433 OFFCURVE",
"685 552 CURVE SMOOTH",
"685 668 OFFCURVE",
"601 729 OFFCURVE",
"441 729 CURVE SMOOTH",
"163 729 LINE",
"21 0 LINE"
);
},
{
closed = 1;
nodes = (
"325 593 LINE",
"403 593 LINE SMOOTH",
"468 593 OFFCURVE",
"497 571 OFFCURVE",
"497 523 CURVE SMOOTH",
"497 446 OFFCURVE",
"452 406 OFFCURVE",
"367 406 CURVE SMOOTH",
"288 406 LINE"
);
}
);
width = 770;
}
);
leftKerningGroup = F;
note = R;
rightKerningGroup = R;
unicode = 0052;
},
{
export = 0;
glyphname = S;
layers = (
{
layerId = "EB88A49E-561A-4405-9552-C71224CBA53C";
paths = (
{
closed = 1;
nodes = (
"483 -14 OFFCURVE",
"579 60 OFFCURVE",
"579 201 CURVE SMOOTH",
"579 320 OFFCURVE",
"511 389 OFFCURVE",
"364 417 CURVE SMOOTH",
"304 429 LINE SMOOTH",
"196 449 OFFCURVE",
"165 478 OFFCURVE",
"165 542 CURVE SMOOTH",
"165 619 OFFCURVE",
"225 662 OFFCURVE",
"333 662 CURVE SMOOTH",
"394 662 OFFCURVE",
"460 645 OFFCURVE",
"535 609 CURVE",
"535 705 LINE",
"460 730 OFFCURVE",
"390 742 OFFCURVE",
"322 742 CURVE SMOOTH",
"162 742 OFFCURVE",
"66 663 OFFCURVE",
"66 534 CURVE SMOOTH",
"66 423 OFFCURVE",
"128 364 OFFCURVE",
"275 335 CURVE SMOOTH",
"335 323 LINE SMOOTH",
"435 303 OFFCURVE",
"476 266 OFFCURVE",
"476 194 CURVE SMOOTH",
"476 111 OFFCURVE",
"412 66 OFFCURVE",
"300 66 CURVE SMOOTH",
"225 66 OFFCURVE",
"149 89 OFFCURVE",
"69 134 CURVE",
"69 32 LINE",
"152 1 OFFCURVE",
"231 -14 OFFCURVE",
"300 -14 CURVE SMOOTH"
);
}
);
width = 635;
},
{
layerId = "5297CC84-2E5E-44C2-8BD8-B52BBF62A592";
paths = (
{
closed = 1;
nodes = (
"553 -14 OFFCURVE",
"647 64 OFFCURVE",
"647 224 CURVE SMOOTH",
"647 347 OFFCURVE",
"584 408 OFFCURVE",
"423 440 CURVE SMOOTH",
"343 456 LINE SMOOTH",
"267 472 OFFCURVE",
"242 490 OFFCURVE",
"242 530 CURVE SMOOTH",
"242 582 OFFCURVE",
"285 606 OFFCURVE",
"374 606 CURVE SMOOTH",
"442 606 OFFCURVE",
"519 588 OFFCURVE",
"599 552 CURVE",
"599 706 LINE",
"508 730 OFFCURVE",
"424 742 OFFCURVE",
"344 742 CURVE SMOOTH",
"168 742 OFFCURVE",
"72 661 OFFCURVE",
"72 516 CURVE SMOOTH",
"72 400 OFFCURVE",
"137 335 OFFCURVE",
"282 303 CURVE SMOOTH",
"355 287 LINE SMOOTH",
"443 267 OFFCURVE",
"466 246 OFFCURVE",
"466 201 CURVE SMOOTH",
"466 150 OFFCURVE",
"420 122 OFFCURVE",
"339 122 CURVE SMOOTH",
"258 122 OFFCURVE",
"171 148 OFFCURVE",
"78 197 CURVE",
"78 38 LINE",
"171 3 OFFCURVE",
"265 -14 OFFCURVE",
"357 -14 CURVE SMOOTH"
);
}
);
width = 720;
},
{
layerId = "79D829DC-9C66-44C2-8B43-D291CF08F0E9";
paths = (
{
closed = 1;
nodes = (
"429 -14 OFFCURVE",
"555 88 OFFCURVE",
"555 235 CURVE SMOOTH",
"555 331 OFFCURVE",
"510 377 OFFCURVE",
"377 412 CURVE SMOOTH",
"318 427 LINE SMOOTH",
"265 441 OFFCURVE",
"232 454 OFFCURVE",
"219 467 CURVE SMOOTH",
"206 480 OFFCURVE",
"199 498 OFFCURVE",
"199 521 CURVE SMOOTH",
"199 606 OFFCURVE",
"275 662 OFFCURVE",
"392 662 CURVE SMOOTH",
"453 662 OFFCURVE",
"519 644 OFFCURVE",
"584 609 CURVE",
"603 705 LINE",
"535 730 OFFCURVE",
"466 742 OFFCURVE",
"397 742 CURVE SMOOTH",
"218 742 OFFCURVE",
"95 639 OFFCURVE",
"95 494 CURVE SMOOTH",
"95 411 OFFCURVE",
"135 372 OFFCURVE",
"270 337 CURVE SMOOTH",
"329 322 LINE SMOOTH",
"426 297 OFFCURVE",
"447 273 OFFCURVE",
"447 214 CURVE SMOOTH",
"447 126 OFFCURVE",
"366 66 OFFCURVE",
"243 66 CURVE SMOOTH",
"171 66 OFFCURVE",
"98 89 OFFCURVE",
"26 134 CURVE",
"6 32 LINE",
"85 1 OFFCURVE",
"163 -14 OFFCURVE",
"240 -14 CURVE SMOOTH"
);
}
);
width = 635;
},
{
layerId = "D5B43B4B-63DF-4B35-BEE3-B41B34784265";
paths = (
{
closed = 1;
nodes = (
"496 -14 OFFCURVE",
"625 89 OFFCURVE",
"625 248 CURVE SMOOTH",
"625 345 OFFCURVE",
"567 406 OFFCURVE",
"438 438 CURVE SMOOTH",
"361 457 LINE SMOOTH",
"325 466 OFFCURVE",
"301 475 OFFCURVE",
"290 484 CURVE SMOOTH",
"278 493 OFFCURVE",
"272 506 OFFCURVE",
"272 523 CURVE SMOOTH",
"272 575 OFFCURVE",
"328 606 OFFCURVE",
"421 606 CURVE SMOOTH",
"489 606 OFFCURVE",
"562 588 OFFCURVE",
"635 552 CURVE",
"665 706 LINE",
"580 730 OFFCURVE",
"496 742 OFFCURVE",
"417 742 CURVE SMOOTH",
"221 742 OFFCURVE",
"95 643 OFFCURVE",
"95 491 CURVE SMOOTH",
"95 395 OFFCURVE",
"150 335 OFFCURVE",
"263 307 CURVE SMOOTH",
"340 288 LINE SMOOTH",
"381 277 OFFCURVE",
"407 267 OFFCURVE",
"419 258 CURVE SMOOTH",
"431 248 OFFCURVE",
"437 234 OFFCURVE",
"437 216 CURVE SMOOTH",
"437 161 OFFCURVE",
"377 122 OFFCURVE",
"292 122 CURVE SMOOTH",
"212 122 OFFCURVE",
"132 146 OFFCURVE",
"45 197 CURVE",
"15 38 LINE",
"104 3 OFFCURVE",
"198 -14 OFFCURVE",
"293 -14 CURVE SMOOTH"
);
}
);
width = 720;
}
);
leftKerningGroup = S;
note = S;
rightKerningGroup = S;
unicode = 0053;
},
{
export = 0;
glyphname = T;
layers = (
{
layerId = "EB88A49E-561A-4405-9552-C71224CBA53C";
paths = (
{
closed = 1;
nodes = (
"355 0 LINE",
"355 646 LINE",
"614 646 LINE",
"614 729 LINE",
"-3 729 LINE",
"-3 646 LINE",
"256 646 LINE",
"256 0 LINE"
);
}
);
width = 611;
},
{
layerId = "5297CC84-2E5E-44C2-8BD8-B52BBF62A592";
paths = (
{
closed = 1;
nodes = (
"435 0 LINE",
"435 587 LINE",
"677 587 LINE",
"677 729 LINE",
"5 729 LINE",
"5 587 LINE",
"247 587 LINE",
"247 0 LINE"
);
}
);
width = 682;
},
{
layerId = "79D829DC-9C66-44C2-8B43-D291CF08F0E9";
paths = (
{
closed = 1;
nodes = (
"275 0 LINE",
"400 646 LINE",
"660 646 LINE",
"676 729 LINE",
"59 729 LINE",
"43 646 LINE",
"301 646 LINE",
"176 0 LINE"
);
}
);
width = 611;
},
{
layerId = "D5B43B4B-63DF-4B35-BEE3-B41B34784265";
paths = (
{
closed = 1;
nodes = (
"364 0 LINE",
"478 587 LINE",
"720 587 LINE",
"748 729 LINE",
"76 729 LINE",
"48 587 LINE",
"290 587 LINE",
"176 0 LINE"
);
}
);
width = 682;
}
);
leftKerningGroup = T;
note = T;
rightKerningGroup = T;
unicode = 0054;
},
{
export = 0;
glyphname = U;
layers = (
{
layerId = "EB88A49E-561A-4405-9552-C71224CBA53C";
paths = (
{
closed = 1;
nodes = (
"550 -14 OFFCURVE",
"645 83 OFFCURVE",
"645 274 CURVE SMOOTH",
"645 729 LINE",
"546 729 LINE",
"546 286 LINE SMOOTH",
"546 130 OFFCURVE",
"493 66 OFFCURVE",
"366 66 CURVE SMOOTH",
"239 66 OFFCURVE",
"186 130 OFFCURVE",
"186 286 CURVE SMOOTH",
"186 729 LINE",
"87 729 LINE",
"87 274 LINE SMOOTH",
"87 83 OFFCURVE",
"182 -14 OFFCURVE",
"366 -14 CURVE SMOOTH"
);
}
);
width = 732;
},
{
layerId = "5297CC84-2E5E-44C2-8BD8-B52BBF62A592";
paths = (
{
closed = 1;
nodes = (
"618 -14 OFFCURVE",
"720 85 OFFCURVE",
"720 292 CURVE SMOOTH",
"720 729 LINE",
"532 729 LINE",
"532 292 LINE SMOOTH",
"532 172 OFFCURVE",
"495 124 OFFCURVE",
"406 124 CURVE SMOOTH",
"317 124 OFFCURVE",
"280 172 OFFCURVE",
"280 292 CURVE SMOOTH",
"280 729 LINE",
"92 729 LINE",
"92 292 LINE SMOOTH",
"92 85 OFFCURVE",
"194 -14 OFFCURVE",
"406 -14 CURVE SMOOTH"
);
}
);
width = 812;
},
{
layerId = "79D829DC-9C66-44C2-8B43-D291CF08F0E9";
paths = (
{
closed = 1;
nodes = (
"482 -14 OFFCURVE",
"586 77 OFFCURVE",
"625 274 CURVE SMOOTH",
"713 729 LINE",
"614 729 LINE",
"528 286 LINE SMOOTH",
"497 130 OFFCURVE",
"431 66 OFFCURVE",
"306 66 CURVE SMOOTH",
"209 66 OFFCURVE",
"158 114 OFFCURVE",
"158 203 CURVE SMOOTH",
"158 223 OFFCURVE",
"161 246 OFFCURVE",
"168 286 CURVE SMOOTH",
"254 729 LINE",
"155 729 LINE",
"68 274 LINE SMOOTH",
"61 242 OFFCURVE",
"58 213 OFFCURVE",
"58 190 CURVE SMOOTH",
"58 65 OFFCURVE",
"150 -14 OFFCURVE",
"295 -14 CURVE SMOOTH"
);
}
);
width = 732;
},
{
layerId = "D5B43B4B-63DF-4B35-BEE3-B41B34784265";
paths = (
{
closed = 1;
nodes = (
"552 -14 OFFCURVE",
"663 77 OFFCURVE",
"706 292 CURVE SMOOTH",
"791 729 LINE",
"603 729 LINE",
"518 292 LINE SMOOTH",
"494 171 OFFCURVE",
"450 124 OFFCURVE",
"359 124 CURVE SMOOTH",
"291 124 OFFCURVE",
"257 155 OFFCURVE",
"257 219 CURVE SMOOTH",
"257 238 OFFCURVE",
"259 261 OFFCURVE",
"266 292 CURVE SMOOTH",
"351 729 LINE",
"163 729 LINE",
"78 292 LINE SMOOTH",
"71 253 OFFCURVE",
"68 226 OFFCURVE",
"68 202 CURVE SMOOTH",
"68 62 OFFCURVE",
"160 -14 OFFCURVE",
"332 -14 CURVE SMOOTH"
);
}
);
width = 812;
}
);
leftKerningGroup = U;
note = U;
rightKerningGroup = U;
unicode = 0055;
},
{
export = 0;
glyphname = V;
layers = (
{
layerId = "EB88A49E-561A-4405-9552-C71224CBA53C";
paths = (
{
closed = 1;
nodes = (
"398 0 LINE",
"676 729 LINE",
"573 729 LINE",
"342 115 LINE",
"111 729 LINE",
"8 729 LINE",
"286 0 LINE"
);
}
);
width = 684;
},
{
layerId = "5297CC84-2E5E-44C2-8BD8-B52BBF62A592";
paths = (
{
closed = 1;
nodes = (
"499 0 LINE",
"769 729 LINE",
"580 729 LINE",
"387 191 LINE",
"194 729 LINE",
"5 729 LINE",
"275 0 LINE"
);
}
);
width = 774;
},
{
layerId = "79D829DC-9C66-44C2-8B43-D291CF08F0E9";
paths = (
{
closed = 1;
nodes = (
"321 0 LINE",
"742 729 LINE",
"635 729 LINE",
"281 102 LINE",
"175 729 LINE",
"78 729 LINE",
"206 0 LINE"
);
}
);
width = 684;
},
{
layerId = "D5B43B4B-63DF-4B35-BEE3-B41B34784265";
paths = (
{
closed = 1;
nodes = (
"428 0 LINE",
"840 729 LINE",
"646 729 LINE",
"344 184 LINE",
"255 729 LINE",
"76 729 LINE",
"204 0 LINE"
);
}
);
width = 774;
}
);
leftKerningGroup = V;
note = V;
rightKerningGroup = V;
unicode = 0056;
},
{
export = 0;
glyphname = W;
layers = (
{
layerId = "EB88A49E-561A-4405-9552-C71224CBA53C";
paths = (
{
closed = 1;
nodes = (
"340 0 LINE",
"495 633 LINE",
"649 0 LINE",
"773 0 LINE",
"956 729 LINE",
"856 729 LINE",
"703 113 LINE",
"550 729 LINE",
"439 729 LINE",
"286 113 LINE",
"133 729 LINE",
"33 729 LINE",
"216 0 LINE"
);
}
);
width = 989;
},
{
layerId = "5297CC84-2E5E-44C2-8BD8-B52BBF62A592";
paths = (
{
closed = 1;
nodes = (
"420 0 LINE",
"551 554 LINE",
"683 0 LINE",
"900 0 LINE",
"1072 729 LINE",
"893 729 LINE",
"767 199 LINE",
"642 729 LINE",
"461 729 LINE",
"336 199 LINE",
"210 729 LINE",
"30 729 LINE",
"203 0 LINE"
);
}
);
width = 1103;
},
{
layerId = "79D829DC-9C66-44C2-8B43-D291CF08F0E9";
paths = (
{
closed = 1;
nodes = (
"265 0 LINE",
"538 608 LINE",
"572 0 LINE",
"696 0 LINE",
"1020 729 LINE",
"920 729 LINE",
"648 109 LINE",
"612 729 LINE",
"502 729 LINE",
"227 109 LINE",
"192 729 LINE",
"96 729 LINE",
"141 0 LINE"
);
}
);
width = 989;
},
{
layerId = "D5B43B4B-63DF-4B35-BEE3-B41B34784265";
paths = (
{
closed = 1;
nodes = (
"356 0 LINE",
"592 554 LINE",
"616 0 LINE",
"829 0 LINE",
"1143 729 LINE",
"956 729 LINE",
"735 199 LINE",
"711 729 LINE",
"532 729 LINE",
"303 199 LINE",
"281 729 LINE",
"107 729 LINE",
"138 0 LINE"
);
}
);
width = 1103;
}
);
leftKerningGroup = W;
note = W;
rightKerningGroup = W;
unicode = 0057;
},
{
export = 0;
glyphname = X;
layers = (
{
layerId = "EB88A49E-561A-4405-9552-C71224CBA53C";
paths = (
{
closed = 1;
nodes = (
"136 0 LINE",
"343 310 LINE",
"548 0 LINE",
"654 0 LINE",
"404 379 LINE",
"638 729 LINE",
"532 729 LINE",
"350 458 LINE",
"169 729 LINE",
"63 729 LINE",
"290 389 LINE",
"30 0 LINE"
);
}
);
width = 685;
},
{
layerId = "5297CC84-2E5E-44C2-8BD8-B52BBF62A592";
paths = (
{
closed = 1;
nodes = (
"216 0 LINE",
"385 249 LINE",
"555 0 LINE",
"751 0 LINE",
"498 372 LINE",
"741 729 LINE",
"544 729 LINE",
"385 494 LINE",
"225 729 LINE",
"29 729 LINE",
"272 372 LINE",
"19 0 LINE"
);
}
);
width = 771;
},
{
layerId = "79D829DC-9C66-44C2-8B43-D291CF08F0E9";
paths = (
{
closed = 1;
nodes = (
"72 0 LINE",
"338 307 LINE",
"485 0 LINE",
"584 0 LINE",
"403 381 LINE",
"703 729 LINE",
"588 729 LINE",
"362 466 LINE",
"237 729 LINE",
"137 729 LINE",
"298 392 LINE",
"-43 0 LINE"
);
}
);
width = 685;
},
{
layerId = "D5B43B4B-63DF-4B35-BEE3-B41B34784265";
paths = (
{
closed = 1;
nodes = (
"152 0 LINE",
"365 244 LINE",
"484 0 LINE",
"675 0 LINE",
"496 369 LINE",
"812 729 LINE",
"608 729 LINE",
"408 500 LINE",
"296 729 LINE",
"104 729 LINE",
"277 374 LINE",
"-51 0 LINE"
);
}
);
width = 771;
}
);
leftKerningGroup = X;
note = X;
rightKerningGroup = X;
unicode = 0058;
},
{
export = 0;
glyphname = Y;
layers = (
{
layerId = "EB88A49E-561A-4405-9552-C71224CBA53C";
paths = (
{
closed = 1;
nodes = (
"355 0 LINE",
"355 347 LINE",
"613 729 LINE",
"507 729 LINE",
"306 429 LINE",
"104 729 LINE",
"-2 729 LINE",
"256 347 LINE",
"256 0 LINE"
);
}
);
width = 611;
},
{
layerId = "5297CC84-2E5E-44C2-8BD8-B52BBF62A592";
paths = (
{
closed = 1;
nodes = (
"456 0 LINE",
"456 307 LINE",
"734 729 LINE",
"528 729 LINE",
"362 469 LINE",
"196 729 LINE",
"-10 729 LINE",
"268 307 LINE",
"268 0 LINE"
);
}
);
width = 724;
},
{
layerId = "79D829DC-9C66-44C2-8B43-D291CF08F0E9";
paths = (
{
closed = 1;
nodes = (
"278 0 LINE",
"345 347 LINE",
"676 729 LINE",
"565 729 LINE",
"305 429 LINE",
"169 729 LINE",
"63 729 LINE",
"246 347 LINE",
"179 0 LINE"
);
}
);
width = 611;
},
{
layerId = "D5B43B4B-63DF-4B35-BEE3-B41B34784265";
paths = (
{
closed = 1;
nodes = (
"390 0 LINE",
"449 304 LINE",
"809 729 LINE",
"592 729 LINE",
"375 459 LINE",
"251 729 LINE",
"63 729 LINE",
"261 304 LINE",
"202 0 LINE"
);
}
);
width = 724;
}
);
leftKerningGroup = Y;
note = Y;
rightKerningGroup = Y;
unicode = 0059;
},
{
export = 0;
glyphname = Z;
layers = (
{
layerId = "EB88A49E-561A-4405-9552-C71224CBA53C";
paths = (
{
closed = 1;
nodes = (
"640 0 LINE",
"640 83 LINE",
"168 83 LINE",
"629 654 LINE",
"629 729 LINE",
"56 729 LINE",
"56 646 LINE",
"506 646 LINE",
"45 75 LINE",
"45 0 LINE"
);
}
);
width = 685;
},
{
layerId = "5297CC84-2E5E-44C2-8BD8-B52BBF62A592";
paths = (
{
closed = 1;
nodes = (
"680 0 LINE",
"680 142 LINE",
"278 142 LINE",
"669 615 LINE",
"669 729 LINE",
"56 729 LINE",
"56 587 LINE",
"436 587 LINE",
"45 114 LINE",
"45 0 LINE"
);
}
);
width = 725;
},
{
layerId = "79D829DC-9C66-44C2-8B43-D291CF08F0E9";
paths = (
{
closed = 1;
nodes = (
"573 0 LINE",
"589 83 LINE",
"124 83 LINE",
"689 654 LINE",
"703 729 LINE",
"131 729 LINE",
"115 646 LINE",
"557 646 LINE",
"-8 75 LINE",
"-22 0 LINE"
);
}
);
width = 685;
},
{
layerId = "D5B43B4B-63DF-4B35-BEE3-B41B34784265";
paths = (
{
closed = 1;
nodes = (
"609 0 LINE",
"637 142 LINE",
"244 142 LINE",
"717 613 LINE",
"740 729 LINE",
"127 729 LINE",
"99 587 LINE",
"470 587 LINE",
"-4 116 LINE",
"-26 0 LINE"
);
}
);
width = 725;
}
);
leftKerningGroup = Z;
note = Z;
rightKerningGroup = Z;
unicode = 005A;
},
{
glyphname = n;
layers = (
{
layerId = "EB88A49E-561A-4405-9552-C71224CBA53C";
paths = (
{
closed = 1;
nodes = (
"181 0 LINE",
"181 309 LINE SMOOTH",
"181 417 OFFCURVE",
"242 482 OFFCURVE",
"336 482 CURVE SMOOTH",
"418 482 OFFCURVE",
"459 432 OFFCURVE",
"459 327 CURVE SMOOTH",
"459 308 OFFCURVE",
"459 286 OFFCURVE",
"459 270 CURVE SMOOTH",
"459 0 LINE",
"549 0 LINE",
"549 270 LINE SMOOTH",
"549 290 OFFCURVE",
"549 310 OFFCURVE",
"549 330 CURVE SMOOTH",
"549 482 OFFCURVE",
"482 560 OFFCURVE",
"361 560 CURVE SMOOTH",
"271 560 OFFCURVE",
"208 517 OFFCURVE",
"164 433 CURVE",
"181 417 LINE",
"181 547 LINE",
"91 547 LINE",
"91 0 LINE"
);
}
);
width = 634;
},
{
layerId = "5297CC84-2E5E-44C2-8BD8-B52BBF62A592";
paths = (
{
closed = 1;
nodes = (
"259 0 LINE",
"259 269 LINE SMOOTH",
"259 369 OFFCURVE",
"303 428 OFFCURVE",
"377 428 CURVE SMOOTH",
"461 428 OFFCURVE",
"458 351 OFFCURVE",
"458 255 CURVE SMOOTH",
"458 242 OFFCURVE",
"458 230 OFFCURVE",
"458 217 CURVE SMOOTH",
"458 0 LINE",
"634 0 LINE",
"634 294 LINE SMOOTH",
"634 307 OFFCURVE",
"634 320 OFFCURVE",
"634 333 CURVE SMOOTH",
"634 482 OFFCURVE",
"567 560 OFFCURVE",
"444 560 CURVE SMOOTH",
"359 560 OFFCURVE",
"295 522 OFFCURVE",
"238 438 CURVE",
"259 422 LINE",
"259 547 LINE",
"84 547 LINE",
"84 0 LINE"
);
}
);
width = 712;
},
{
layerId = "79D829DC-9C66-44C2-8B43-D291CF08F0E9";
paths = (
{
closed = 1;
nodes = (
"125 0 LINE",
"185 303 LINE SMOOTH",
"207 414 OFFCURVE",
"283 482 OFFCURVE",
"378 482 CURVE SMOOTH",
"439 482 OFFCURVE",
"476 450 OFFCURVE",
"476 395 CURVE SMOOTH",
"476 376 OFFCURVE",
"474 364 OFFCURVE",
"467 328 CURVE SMOOTH",
"403 0 LINE",
"493 0 LINE",
"557 328 LINE SMOOTH",
"563 358 OFFCURVE",
"566 390 OFFCURVE",
"566 411 CURVE SMOOTH",
"566 506 OFFCURVE",
"510 560 OFFCURVE",
"414 560 CURVE SMOOTH",
"327 560 OFFCURVE",
"243 514 OFFCURVE",
"195 435 CURVE",
"204 417 LINE",
"231 547 LINE",
"141 547 LINE",
"35 0 LINE"
);
}
);
width = 634;
},
{
layerId = "D5B43B4B-63DF-4B35-BEE3-B41B34784265";
paths = (
{
closed = 1;
nodes = (
"206 0 LINE",
"259 269 LINE SMOOTH",
"279 369 OFFCURVE",
"334 428 OFFCURVE",
"406 428 CURVE SMOOTH",
"449 428 OFFCURVE",
"472 404 OFFCURVE",
"472 363 CURVE SMOOTH",
"472 346 OFFCURVE",
"468 324 OFFCURVE",
"460 283 CURVE SMOOTH",
"405 0 LINE",
"580 0 LINE",
"642 318 LINE SMOOTH",
"650 361 OFFCURVE",
"654 384 OFFCURVE",
"654 409 CURVE SMOOTH",
"654 505 OFFCURVE",
"597 560 OFFCURVE",
"496 560 CURVE SMOOTH",
"416 560 OFFCURVE",
"344 521 OFFCURVE",
"271 440 CURVE",
"288 423 LINE",
"313 547 LINE",
"137 547 LINE",
"31 0 LINE"
);
}
);
width = 712;
}
);
leftKerningGroup = n;
note = n;
rightKerningGroup = n;
unicode = 006E;
},
{
glyphname = o;
layers = (
{
layerId = "EB88A49E-561A-4405-9552-C71224CBA53C";
paths = (
{
closed = 1;
nodes = (
"387 -14 OFFCURVE",
"454 16 OFFCURVE",
"497 71 CURVE SMOOTH",
"536 122 OFFCURVE",
"557 191 OFFCURVE",
"557 273 CURVE SMOOTH",
"557 452 OFFCURVE",
"463 560 OFFCURVE",
"306 560 CURVE SMOOTH",
"229 560 OFFCURVE",
"167 535 OFFCURVE",
"123 486 CURVE SMOOTH",
"78 435 OFFCURVE",
"55 362 OFFCURVE",
"55 273 CURVE SMOOTH",
"55 94 OFFCURVE",
"149 -14 OFFCURVE",
"306 -14 CURVE SMOOTH"
);
},
{
closed = 1;
nodes = (
"209 62 OFFCURVE",
"150 142 OFFCURVE",
"150 273 CURVE SMOOTH",
"150 340 OFFCURVE",
"166 395 OFFCURVE",
"194 431 CURVE SMOOTH",
"222 466 OFFCURVE",
"260 484 OFFCURVE",
"306 484 CURVE SMOOTH",
"402 484 OFFCURVE",
"462 402 OFFCURVE",
"462 273 CURVE SMOOTH",
"462 211 OFFCURVE",
"449 162 OFFCURVE",
"423 122 CURVE SMOOTH",
"397 84 OFFCURVE",
"356 62 OFFCURVE",
"306 62 CURVE SMOOTH"
);
}
);
width = 612;
},
{
layerId = "5297CC84-2E5E-44C2-8BD8-B52BBF62A592";
paths = (
{
closed = 1;
nodes = (
"442 -14 OFFCURVE",
"521 15 OFFCURVE",
"574 71 CURVE SMOOTH",
"620 121 OFFCURVE",
"644 190 OFFCURVE",
"644 273 CURVE SMOOTH",
"644 453 OFFCURVE",
"532 560 OFFCURVE",
"344 560 CURVE SMOOTH",
"241 560 OFFCURVE",
"159 528 OFFCURVE",
"107 467 CURVE SMOOTH",
"65 419 OFFCURVE",
"43 353 OFFCURVE",
"43 273 CURVE SMOOTH",
"43 93 OFFCURVE",
"156 -14 OFFCURVE",
"344 -14 CURVE SMOOTH"
);
},
{
closed = 1;
nodes = (
"267 111 OFFCURVE",
"225 168 OFFCURVE",
"225 273 CURVE SMOOTH",
"225 324 OFFCURVE",
"235 364 OFFCURVE",
"254 391 CURVE SMOOTH",
"274 420 OFFCURVE",
"305 435 OFFCURVE",
"344 435 CURVE SMOOTH",
"420 435 OFFCURVE",
"462 378 OFFCURVE",
"462 273 CURVE SMOOTH",
"462 222 OFFCURVE",
"453 184 OFFCURVE",
"434 156 CURVE SMOOTH",
"414 126 OFFCURVE",
"384 111 OFFCURVE",
"344 111 CURVE SMOOTH"
);
}
);
width = 687;
},
{
associatedMasterId = "79D829DC-9C66-44C2-8B43-D291CF08F0E9";
layerId = "BD9C0221-2C02-4E8C-8FA6-71BC2954E208";
name = "Original Cubic";
paths = (
{
closed = 1;
nodes = (
"355 -14 OFFCURVE",
"433 26 OFFCURVE",
"497 114 CURVE SMOOTH",
"538 170 OFFCURVE",
"566 263 OFFCURVE",
"566 350 CURVE SMOOTH",
"566 475 OFFCURVE",
"482 560 OFFCURVE",
"358 560 CURVE SMOOTH",
"258 560 OFFCURVE",
"180 520 OFFCURVE",
"115 432 CURVE SMOOTH",
"74 376 OFFCURVE",
"46 287 OFFCURVE",
"46 207 CURVE SMOOTH",
"46 70 OFFCURVE",
"126 -14 OFFCURVE",
"254 -14 CURVE SMOOTH"
);
},
{
closed = 1;
nodes = (
"180 62 OFFCURVE",
"139 111 OFFCURVE",
"139 210 CURVE SMOOTH",
"139 275 OFFCURVE",
"156 340 OFFCURVE",
"187 388 CURVE SMOOTH",
"228 453 OFFCURVE",
"280 484 OFFCURVE",
"348 484 CURVE SMOOTH",
"431 484 OFFCURVE",
"473 436 OFFCURVE",
"473 341 CURVE SMOOTH",
"473 180 OFFCURVE",
"384 62 OFFCURVE",
"264 62 CURVE SMOOTH"
);
}
);
width = 612;
},
{
layerId = "79D829DC-9C66-44C2-8B43-D291CF08F0E9";
paths = (
{
closed = 1;
nodes = (
"356 -14 OFFCURVE",
"434 27 OFFCURVE",
"497 114 CURVE SMOOTH",
"539 171 OFFCURVE",
"566 264 OFFCURVE",
"566 350 CURVE SMOOTH",
"566 475 OFFCURVE",
"482 560 OFFCURVE",
"358 560 CURVE SMOOTH",
"257 560 OFFCURVE",
"179 519 OFFCURVE",
"115 432 CURVE SMOOTH",
"73 375 OFFCURVE",
"46 286 OFFCURVE",
"46 207 CURVE SMOOTH",
"46 71 OFFCURVE",
"126 -14 OFFCURVE",
"254 -14 CURVE SMOOTH"
);
},
{
closed = 1;
nodes = (
"180 62 OFFCURVE",
"139 111 OFFCURVE",
"139 210 CURVE SMOOTH",
"139 281 OFFCURVE",
"158 344 OFFCURVE",
"186 387 CURVE SMOOTH",
"230 455 OFFCURVE",
"281 484 OFFCURVE",
"348 484 CURVE SMOOTH",
"431 484 OFFCURVE",
"473 436 OFFCURVE",
"473 341 CURVE SMOOTH",
"473 270 OFFCURVE",
"457 208 OFFCURVE",
"426 159 CURVE SMOOTH",
"387 97 OFFCURVE",
"329 62 OFFCURVE",
"264 62 CURVE SMOOTH"
);
}
);
width = 612;
},
{
associatedMasterId = "D5B43B4B-63DF-4B35-BEE3-B41B34784265";
layerId = "0B2415A7-5FA3-4EDC-8AB0-3A158D27C7D0";
name = "Original Cubic";
paths = (
{
closed = 1;
nodes = (
"407 -14 OFFCURVE",
"498 25 OFFCURVE",
"565 102 CURVE SMOOTH",
"621 166 OFFCURVE",
"651 246 OFFCURVE",
"651 329 CURVE SMOOTH",
"651 472 OFFCURVE",
"552 560 OFFCURVE",
"389 560 CURVE SMOOTH",
"280 560 OFFCURVE",
"188 520 OFFCURVE",
"123 445 CURVE SMOOTH",
"67 380 OFFCURVE",
"36 298 OFFCURVE",
"36 217 CURVE SMOOTH",
"36 74 OFFCURVE",
"135 -14 OFFCURVE",
"296 -14 CURVE SMOOTH"
);
},
{
closed = 1;
nodes = (
"252 111 OFFCURVE",
"219 148 OFFCURVE",
"219 217 CURVE SMOOTH",
"219 344 OFFCURVE",
"284 435 OFFCURVE",
"375 435 CURVE SMOOTH",
"435 435 OFFCURVE",
"468 398 OFFCURVE",
"468 330 CURVE SMOOTH",
"468 202 OFFCURVE",
"403 111 OFFCURVE",
"312 111 CURVE SMOOTH"
);
}
);
width = 687;
},
{
layerId = "D5B43B4B-63DF-4B35-BEE3-B41B34784265";
paths = (
{
closed = 1;
nodes = (
"407 -14 OFFCURVE",
"498 25 OFFCURVE",
"565 102 CURVE SMOOTH",
"621 166 OFFCURVE",
"651 246 OFFCURVE",
"651 329 CURVE SMOOTH",
"651 472 OFFCURVE",
"552 560 OFFCURVE",
"389 560 CURVE SMOOTH",
"280 560 OFFCURVE",
"188 520 OFFCURVE",
"123 445 CURVE SMOOTH",
"67 380 OFFCURVE",
"36 298 OFFCURVE",
"36 217 CURVE SMOOTH",
"36 74 OFFCURVE",
"135 -14 OFFCURVE",
"296 -14 CURVE SMOOTH"
);
},
{
closed = 1;
nodes = (
"252 111 OFFCURVE",
"219 148 OFFCURVE",
"219 217 CURVE SMOOTH",
"219 278 OFFCURVE",
"235 334 OFFCURVE",
"264 375 CURVE SMOOTH",
"292 414 OFFCURVE",
"331 435 OFFCURVE",
"375 435 CURVE SMOOTH",
"435 435 OFFCURVE",
"468 398 OFFCURVE",
"468 330 CURVE SMOOTH",
"468 270 OFFCURVE",
"454 220 OFFCURVE",
"428 178 CURVE SMOOTH",
"400 134 OFFCURVE",
"357 111 OFFCURVE",
"312 111 CURVE SMOOTH"
);
}
);
width = 687;
}
);
leftKerningGroup = o;
note = o;
rightKerningGroup = o;
unicode = 006F;
},
{
export = 0;
glyphname = a;
layers = (
{
layerId = "EB88A49E-561A-4405-9552-C71224CBA53C";
paths = (
{
closed = 1;
nodes = (
"332 -14 OFFCURVE",
"391 16 OFFCURVE",
"432 83 CURVE",
"432 0 LINE",
"522 0 LINE",
"522 312 LINE SMOOTH",
"522 479 OFFCURVE",
"445 560 OFFCURVE",
"286 560 CURVE SMOOTH",
"227 560 OFFCURVE",
"165 547 OFFCURVE",
"100 522 CURVE",
"100 439 LINE",
"155 468 OFFCURVE",
"214 484 OFFCURVE",
"277 484 CURVE SMOOTH",
"376 484 OFFCURVE",
"432 437 OFFCURVE",
"432 354 CURVE SMOOTH",
"432 345 LINE",
"306 345 LINE SMOOTH",
"143 345 OFFCURVE",
"60 282 OFFCURVE",
"60 159 CURVE SMOOTH",
"60 54 OFFCURVE",
"131 -14 OFFCURVE",
"243 -14 CURVE SMOOTH"
);
},
{
closed = 1;
nodes = (
"195 61 OFFCURVE",
"150 101 OFFCURVE",
"150 165 CURVE SMOOTH",
"150 245 OFFCURVE",
"198 275 OFFCURVE",
"343 275 CURVE SMOOTH",
"432 275 LINE",
"432 255 LINE SMOOTH",
"432 138 OFFCURVE",
"367 61 OFFCURVE",
"267 61 CURVE SMOOTH"
);
}
);
width = 613;
},
{
layerId = "5297CC84-2E5E-44C2-8BD8-B52BBF62A592";
paths = (
{
closed = 1;
nodes = (
"318 -14 OFFCURVE",
"373 14 OFFCURVE",
"420 81 CURVE",
"420 0 LINE",
"596 0 LINE",
"596 312 LINE SMOOTH",
"596 487 OFFCURVE",
"514 560 OFFCURVE",
"317 560 CURVE SMOOTH",
"241 560 OFFCURVE",
"166 551 OFFCURVE",
"91 532 CURVE",
"91 399 LINE",
"146 428 OFFCURVE",
"210 444 OFFCURVE",
"285 444 CURVE SMOOTH",
"377 444 OFFCURVE",
"420 419 OFFCURVE",
"420 364 CURVE SMOOTH",
"420 350 LINE",
"317 350 LINE SMOOTH",
"128 350 OFFCURVE",
"43 292 OFFCURVE",
"43 164 CURVE SMOOTH",
"43 59 OFFCURVE",
"121 -14 OFFCURVE",
"234 -14 CURVE SMOOTH"
);
},
{
closed = 1;
nodes = (
"251 102 OFFCURVE",
"219 129 OFFCURVE",
"219 173 CURVE SMOOTH",
"219 221 OFFCURVE",
"256 246 OFFCURVE",
"329 246 CURVE SMOOTH",
"420 246 LINE",
"420 226 LINE SMOOTH",
"420 155 OFFCURVE",
"370 102 OFFCURVE",
"303 102 CURVE SMOOTH"
);
}
);
width = 675;
},
{
layerId = "79D829DC-9C66-44C2-8B43-D291CF08F0E9";
paths = (
{
closed = 1;
nodes = (
"283 -14 OFFCURVE",
"350 18 OFFCURVE",
"403 83 CURVE",
"386 0 LINE",
"476 0 LINE",
"537 312 LINE SMOOTH",
"544 344 OFFCURVE",
"547 375 OFFCURVE",
"547 396 CURVE SMOOTH",
"547 503 OFFCURVE",
"478 560 OFFCURVE",
"349 560 CURVE SMOOTH",
"289 560 OFFCURVE",
"224 547 OFFCURVE",
"156 522 CURVE",
"140 439 LINE",
"205 468 OFFCURVE",
"266 484 OFFCURVE",
"325 484 CURVE SMOOTH",
"410 484 OFFCURVE",
"460 451 OFFCURVE",
"460 392 CURVE SMOOTH",
"460 379 OFFCURVE",
"459 374 OFFCURVE",
"458 369 CURVE",
"453 345 LINE",
"328 345 LINE SMOOTH",
"149 345 OFFCURVE",
"41 266 OFFCURVE",
"41 138 CURVE SMOOTH",
"41 49 OFFCURVE",
"107 -14 OFFCURVE",
"200 -14 CURVE SMOOTH"
);
},
{
closed = 1;
nodes = (
"172 62 OFFCURVE",
"134 97 OFFCURVE",
"134 154 CURVE SMOOTH",
"134 237 OFFCURVE",
"203 275 OFFCURVE",
"350 275 CURVE SMOOTH",
"440 275 LINE",
"436 255 LINE SMOOTH",
"412 138 OFFCURVE",
"333 62 OFFCURVE",
"236 62 CURVE SMOOTH"
);
}
);
width = 613;
},
{
layerId = "D5B43B4B-63DF-4B35-BEE3-B41B34784265";
paths = (
{
closed = 1;
nodes = (
"261 -14 OFFCURVE",
"324 16 OFFCURVE",
"381 81 CURVE",
"366 0 LINE",
"541 0 LINE",
"602 312 LINE SMOOTH",
"607 343 OFFCURVE",
"611 370 OFFCURVE",
"611 391 CURVE SMOOTH",
"611 506 OFFCURVE",
"534 560 OFFCURVE",
"371 560 CURVE SMOOTH",
"290 560 OFFCURVE",
"213 551 OFFCURVE",
"140 532 CURVE",
"114 399 LINE",
"177 428 OFFCURVE",
"245 444 OFFCURVE",
"317 444 CURVE SMOOTH",
"397 444 OFFCURVE",
"438 422 OFFCURVE",
"438 379 CURVE SMOOTH",
"438 377 OFFCURVE",
"438 375 OFFCURVE",
"438 374 CURVE SMOOTH",
"438 372 OFFCURVE",
"437 369 OFFCURVE",
"436 364 CURVE",
"434 350 LINE",
"331 350 LINE SMOOTH",
"128 350 OFFCURVE",
"17 274 OFFCURVE",
"17 135 CURVE SMOOTH",
"17 43 OFFCURVE",
"82 -14 OFFCURVE",
"186 -14 CURVE SMOOTH"
);
},
{
closed = 1;
nodes = (
"224 102 OFFCURVE",
"197 126 OFFCURVE",
"197 166 CURVE SMOOTH",
"197 219 OFFCURVE",
"242 246 OFFCURVE",
"329 246 CURVE SMOOTH",
"413 246 LINE",
"409 226 LINE SMOOTH",
"393 147 OFFCURVE",
"343 102 OFFCURVE",
"271 102 CURVE SMOOTH"
);
}
);
width = 675;
}
);
leftKerningGroup = a;
note = a;
unicode = 0061;
},
{
export = 0;
glyphname = b;
layers = (
{
layerId = "EB88A49E-561A-4405-9552-C71224CBA53C";
paths = (
{
closed = 1;
nodes = (
"489 -14 OFFCURVE",
"580 101 OFFCURVE",
"580 273 CURVE SMOOTH",
"580 445 OFFCURVE",
"489 560 OFFCURVE",
"356 560 CURVE SMOOTH",
"276 560 OFFCURVE",
"218 529 OFFCURVE",
"181 464 CURVE",
"181 760 LINE",
"91 760 LINE",
"91 0 LINE",
"181 0 LINE",
"181 82 LINE",
"218 17 OFFCURVE",
"276 -14 OFFCURVE",
"356 -14 CURVE SMOOTH"
);
},
{
closed = 1;
nodes = (
"239 61 OFFCURVE",
"181 141 OFFCURVE",
"181 273 CURVE SMOOTH",
"181 405 OFFCURVE",
"239 485 OFFCURVE",
"334 485 CURVE SMOOTH",
"429 485 OFFCURVE",
"487 405 OFFCURVE",
"487 273 CURVE SMOOTH",
"487 141 OFFCURVE",
"429 61 OFFCURVE",
"334 61 CURVE SMOOTH"
);
}
);
width = 635;
},
{
layerId = "5297CC84-2E5E-44C2-8BD8-B52BBF62A592";
paths = (
{
closed = 1;
nodes = (
"575 -14 OFFCURVE",
"671 104 OFFCURVE",
"671 273 CURVE SMOOTH",
"671 441 OFFCURVE",
"575 560 OFFCURVE",
"440 560 CURVE SMOOTH",
"364 560 OFFCURVE",
"307 531 OFFCURVE",
"259 467 CURVE",
"259 760 LINE",
"84 760 LINE",
"84 0 LINE",
"259 0 LINE",
"259 79 LINE",
"307 15 OFFCURVE",
"364 -14 OFFCURVE",
"440 -14 CURVE SMOOTH"
);
},
{
closed = 1;
nodes = (
"300 113 OFFCURVE",
"259 169 OFFCURVE",
"259 273 CURVE SMOOTH",
"259 377 OFFCURVE",
"300 433 OFFCURVE",
"375 433 CURVE SMOOTH",
"450 433 OFFCURVE",
"490 377 OFFCURVE",
"490 273 CURVE SMOOTH",
"490 169 OFFCURVE",
"450 113 OFFCURVE",
"375 113 CURVE SMOOTH"
);
}
);
width = 716;
},
{
layerId = "79D829DC-9C66-44C2-8B43-D291CF08F0E9";
paths = (
{
closed = 1;
nodes = (
"365 -14 OFFCURVE",
"428 14 OFFCURVE",
"475 65 CURVE SMOOTH",
"547 142 OFFCURVE",
"587 245 OFFCURVE",
"587 350 CURVE SMOOTH",
"587 479 OFFCURVE",
"516 560 OFFCURVE",
"404 560 CURVE SMOOTH",
"331 560 OFFCURVE",
"260 524 OFFCURVE",
"216 464 CURVE",
"274 760 LINE",
"184 760 LINE",
"36 0 LINE",
"126 0 LINE",
"142 83 LINE",
"175 19 OFFCURVE",
"227 -14 OFFCURVE",
"298 -14 CURVE SMOOTH"
);
},
{
closed = 1;
nodes = (
"216 61 OFFCURVE",
"171 116 OFFCURVE",
"171 205 CURVE SMOOTH",
"171 276 OFFCURVE",
"195 351 OFFCURVE",
"232 406 CURVE SMOOTH",
"268 457 OFFCURVE",
"318 485 OFFCURVE",
"373 485 CURVE SMOOTH",
"449 485 OFFCURVE",
"495 429 OFFCURVE",
"495 334 CURVE SMOOTH",
"495 270 OFFCURVE",
"470 192 OFFCURVE",
"433 139 CURVE SMOOTH",
"397 88 OFFCURVE",
"347 61 OFFCURVE",
"291 61 CURVE SMOOTH"
);
}
);
width = 635;
},
{
layerId = "D5B43B4B-63DF-4B35-BEE3-B41B34784265";
paths = (
{
closed = 1;
nodes = (
"469 -14 OFFCURVE",
"545 28 OFFCURVE",
"604 111 CURVE SMOOTH",
"651 176 OFFCURVE",
"677 258 OFFCURVE",
"677 342 CURVE SMOOTH",
"677 477 OFFCURVE",
"600 560 OFFCURVE",
"477 560 CURVE SMOOTH",
"408 560 OFFCURVE",
"350 531 OFFCURVE",
"297 467 CURVE",
"354 760 LINE",
"178 760 LINE",
"31 0 LINE",
"206 0 LINE",
"222 79 LINE",
"258 15 OFFCURVE",
"309 -14 OFFCURVE",
"384 -14 CURVE SMOOTH"
);
},
{
closed = 1;
nodes = (
"287 113 OFFCURVE",
"253 149 OFFCURVE",
"253 209 CURVE SMOOTH",
"253 342 OFFCURVE",
"315 433 OFFCURVE",
"406 433 CURVE SMOOTH",
"465 433 OFFCURVE",
"496 398 OFFCURVE",
"496 331 CURVE SMOOTH",
"496 203 OFFCURVE",
"432 113 OFFCURVE",
"344 113 CURVE SMOOTH"
);
}
);
width = 716;
}
);
note = b;
unicode = 0062;
},
{
export = 0;
glyphname = c;
layers = (
{
layerId = "EB88A49E-561A-4405-9552-C71224CBA53C";
paths = (
{
closed = 1;
nodes = (
"385 -14 OFFCURVE",
"437 -3 OFFCURVE",
"488 21 CURVE",
"488 104 LINE",
"437 76 OFFCURVE",
"386 62 OFFCURVE",
"334 62 CURVE SMOOTH",
"218 62 OFFCURVE",
"150 140 OFFCURVE",
"150 273 CURVE SMOOTH",
"150 406 OFFCURVE",
"218 484 OFFCURVE",
"334 484 CURVE SMOOTH",
"386 484 OFFCURVE",
"437 470 OFFCURVE",
"488 442 CURVE",
"488 526 LINE",
"439 549 OFFCURVE",
"386 560 OFFCURVE",
"330 560 CURVE SMOOTH",
"159 560 OFFCURVE",
"55 452 OFFCURVE",
"55 273 CURVE SMOOTH",
"55 97 OFFCURVE",
"160 -14 OFFCURVE",
"324 -14 CURVE SMOOTH"
);
}
);
width = 550;
},
{
layerId = "5297CC84-2E5E-44C2-8BD8-B52BBF62A592";
paths = (
{
closed = 1;
nodes = (
"414 -14 OFFCURVE",
"471 -4 OFFCURVE",
"526 16 CURVE",
"526 159 LINE",
"485 127 OFFCURVE",
"435 111 OFFCURVE",
"380 111 CURVE SMOOTH",
"283 111 OFFCURVE",
"225 170 OFFCURVE",
"225 273 CURVE SMOOTH",
"225 376 OFFCURVE",
"283 435 OFFCURVE",
"380 435 CURVE SMOOTH",
"431 435 OFFCURVE",
"478 420 OFFCURVE",
"526 387 CURVE",
"526 530 LINE",
"470 550 OFFCURVE",
"415 560 OFFCURVE",
"358 560 CURVE SMOOTH",
"161 560 OFFCURVE",
"43 453 OFFCURVE",
"43 273 CURVE SMOOTH",
"43 93 OFFCURVE",
"161 -14 OFFCURVE",
"358 -14 CURVE SMOOTH"
);
}
);
width = 593;
},
{
layerId = "79D829DC-9C66-44C2-8B43-D291CF08F0E9";
paths = (
{
closed = 1;
nodes = (
"329 -14 OFFCURVE",
"385 -3 OFFCURVE",
"437 18 CURVE",
"454 107 LINE",
"394 76 OFFCURVE",
"337 62 OFFCURVE",
"288 62 CURVE SMOOTH",
"188 62 OFFCURVE",
"139 109 OFFCURVE",
"139 208 CURVE SMOOTH",
"139 289 OFFCURVE",
"171 369 OFFCURVE",
"227 426 CURVE SMOOTH",
"262 463 OFFCURVE",
"317 484 OFFCURVE",
"374 484 CURVE SMOOTH",
"426 484 OFFCURVE",
"475 468 OFFCURVE",
"518 437 CURVE",
"536 526 LINE",
"484 549 OFFCURVE",
"435 560 OFFCURVE",
"384 560 CURVE SMOOTH",
"296 560 OFFCURVE",
"222 533 OFFCURVE",
"167 481 CURVE SMOOTH",
"87 405 OFFCURVE",
"46 309 OFFCURVE",
"46 196 CURVE SMOOTH",
"46 61 OFFCURVE",
"127 -14 OFFCURVE",
"272 -14 CURVE SMOOTH"
);
}
);
width = 550;
},
{
layerId = "D5B43B4B-63DF-4B35-BEE3-B41B34784265";
paths = (
{
closed = 1;
nodes = (
"365 -14 OFFCURVE",
"424 -4 OFFCURVE",
"481 16 CURVE",
"508 159 LINE",
"460 127 OFFCURVE",
"407 111 OFFCURVE",
"352 111 CURVE SMOOTH",
"271 111 OFFCURVE",
"223 155 OFFCURVE",
"223 231 CURVE SMOOTH",
"223 350 OFFCURVE",
"304 435 OFFCURVE",
"417 435 CURVE SMOOTH",
"461 435 OFFCURVE",
"506 419 OFFCURVE",
"553 387 CURVE",
"581 530 LINE",
"528 550 OFFCURVE",
"472 560 OFFCURVE",
"417 560 CURVE SMOOTH",
"297 560 OFFCURVE",
"207 524 OFFCURVE",
"136 451 CURVE SMOOTH",
"72 384 OFFCURVE",
"37 297 OFFCURVE",
"37 208 CURVE SMOOTH",
"37 67 OFFCURVE",
"133 -14 OFFCURVE",
"305 -14 CURVE SMOOTH"
);
}
);
width = 593;
}
);
leftKerningGroup = c;
note = c;
unicode = 0063;
},
{
export = 0;
glyphname = d;
layers = (
{
layerId = "EB88A49E-561A-4405-9552-C71224CBA53C";
paths = (
{
closed = 1;
nodes = (
"359 -14 OFFCURVE",
"417 17 OFFCURVE",
"454 82 CURVE",
"454 0 LINE",
"544 0 LINE",
"544 760 LINE",
"454 760 LINE",
"454 464 LINE",
"417 529 OFFCURVE",
"359 560 OFFCURVE",
"279 560 CURVE SMOOTH",
"147 560 OFFCURVE",
"55 445 OFFCURVE",
"55 273 CURVE SMOOTH",
"55 101 OFFCURVE",
"147 -14 OFFCURVE",
"279 -14 CURVE SMOOTH"
);
},
{
closed = 1;
nodes = (
"205 61 OFFCURVE",
"148 141 OFFCURVE",
"148 273 CURVE SMOOTH",
"148 405 OFFCURVE",
"205 485 OFFCURVE",
"301 485 CURVE SMOOTH",
"396 485 OFFCURVE",
"454 405 OFFCURVE",
"454 273 CURVE SMOOTH",
"454 141 OFFCURVE",
"396 61 OFFCURVE",
"301 61 CURVE SMOOTH"
);
}
);
width = 635;
},
{
layerId = "5297CC84-2E5E-44C2-8BD8-B52BBF62A592";
paths = (
{
closed = 1;
nodes = (
"352 -14 OFFCURVE",
"408 15 OFFCURVE",
"456 79 CURVE",
"456 0 LINE",
"632 0 LINE",
"632 760 LINE",
"456 760 LINE",
"456 467 LINE",
"408 531 OFFCURVE",
"352 560 OFFCURVE",
"276 560 CURVE SMOOTH",
"141 560 OFFCURVE",
"45 441 OFFCURVE",
"45 273 CURVE SMOOTH",
"45 104 OFFCURVE",
"141 -14 OFFCURVE",
"276 -14 CURVE SMOOTH"
);
},
{
closed = 1;
nodes = (
"266 113 OFFCURVE",
"226 169 OFFCURVE",
"226 273 CURVE SMOOTH",
"226 377 OFFCURVE",
"266 433 OFFCURVE",
"341 433 CURVE SMOOTH",
"416 433 OFFCURVE",
"456 377 OFFCURVE",
"456 273 CURVE SMOOTH",
"456 169 OFFCURVE",
"416 113 OFFCURVE",
"341 113 CURVE SMOOTH"
);
}
);
width = 716;
},
{
layerId = "79D829DC-9C66-44C2-8B43-D291CF08F0E9";
paths = (
{
closed = 1;
nodes = (
"303 -14 OFFCURVE",
"370 19 OFFCURVE",
"418 82 CURVE",
"401 0 LINE",
"491 0 LINE",
"639 760 LINE",
"549 760 LINE",
"490 462 LINE",
"461 525 OFFCURVE",
"406 560 OFFCURVE",
"335 560 CURVE SMOOTH",
"268 560 OFFCURVE",
"206 533 OFFCURVE",
"158 481 CURVE SMOOTH",
"86 404 OFFCURVE",
"46 303 OFFCURVE",
"46 195 CURVE SMOOTH",
"46 66 OFFCURVE",
"114 -14 OFFCURVE",
"223 -14 CURVE SMOOTH"
);
},
{
closed = 1;
nodes = (
"184 61 OFFCURVE",
"139 116 OFFCURVE",
"139 211 CURVE SMOOTH",
"139 276 OFFCURVE",
"164 355 OFFCURVE",
"201 408 CURVE SMOOTH",
"236 459 OFFCURVE",
"286 486 OFFCURVE",
"343 486 CURVE SMOOTH",
"418 486 OFFCURVE",
"463 433 OFFCURVE",
"463 342 CURVE SMOOTH",
"463 273 OFFCURVE",
"440 196 OFFCURVE",
"401 141 CURVE SMOOTH",
"365 89 OFFCURVE",
"316 61 OFFCURVE",
"260 61 CURVE SMOOTH"
);
}
);
width = 635;
},
{
layerId = "D5B43B4B-63DF-4B35-BEE3-B41B34784265";
paths = (
{
closed = 1;
nodes = (
"305 -14 OFFCURVE",
"363 15 OFFCURVE",
"416 79 CURVE",
"400 0 LINE",
"576 0 LINE",
"724 760 LINE",
"548 760 LINE",
"491 467 LINE",
"455 531 OFFCURVE",
"404 560 OFFCURVE",
"329 560 CURVE SMOOTH",
"244 560 OFFCURVE",
"168 518 OFFCURVE",
"109 435 CURVE SMOOTH",
"62 370 OFFCURVE",
"36 288 OFFCURVE",
"36 204 CURVE SMOOTH",
"36 69 OFFCURVE",
"113 -14 OFFCURVE",
"236 -14 CURVE SMOOTH"
);
},
{
closed = 1;
nodes = (
"248 113 OFFCURVE",
"217 148 OFFCURVE",
"217 215 CURVE SMOOTH",
"217 343 OFFCURVE",
"281 433 OFFCURVE",
"369 433 CURVE SMOOTH",
"426 433 OFFCURVE",
"459 397 OFFCURVE",
"459 337 CURVE SMOOTH",
"459 204 OFFCURVE",
"398 113 OFFCURVE",
"307 113 CURVE SMOOTH"
);
}
);
width = 716;
}
);
leftKerningGroup = d;
note = d;
unicode = 0064;
},
{
export = 0;
glyphname = e;
layers = (
{
layerId = "EB88A49E-561A-4405-9552-C71224CBA53C";
paths = (
{
closed = 1;
nodes = (
"408 -14 OFFCURVE",
"477 0 OFFCURVE",
"541 28 CURVE",
"541 113 LINE",
"477 78 OFFCURVE",
"413 62 OFFCURVE",
"344 62 CURVE SMOOTH",
"225 62 OFFCURVE",
"157 128 OFFCURVE",
"149 252 CURVE",
"562 252 LINE",
"562 296 LINE SMOOTH",
"562 459 OFFCURVE",
"471 560 OFFCURVE",
"323 560 CURVE SMOOTH",
"159 560 OFFCURVE",
"55 447 OFFCURVE",
"55 268 CURVE SMOOTH",
"55 95 OFFCURVE",
"164 -14 OFFCURVE",
"339 -14 CURVE SMOOTH"
);
},
{
closed = 1;
nodes = (
"161 425 OFFCURVE",
"224 484 OFFCURVE",
"324 484 CURVE SMOOTH",
"413 484 OFFCURVE",
"471 421 OFFCURVE",
"472 322 CURVE",
"152 322 LINE"
);
}
);
width = 615;
},
{
layerId = "5297CC84-2E5E-44C2-8BD8-B52BBF62A592";
paths = (
{
closed = 1;
nodes = (
"439 -14 OFFCURVE",
"521 2 OFFCURVE",
"604 33 CURVE",
"604 168 LINE",
"523 124 OFFCURVE",
"445 102 OFFCURVE",
"372 102 CURVE SMOOTH",
"281 102 OFFCURVE",
"230 144 OFFCURVE",
"221 225 CURVE",
"630 225 LINE",
"630 275 LINE SMOOTH",
"630 448 OFFCURVE",
"518 560 OFFCURVE",
"346 560 CURVE SMOOTH",
"158 560 OFFCURVE",
"43 452 OFFCURVE",
"43 273 CURVE SMOOTH",
"43 92 OFFCURVE",
"159 -14 OFFCURVE",
"356 -14 CURVE SMOOTH"
);
},
{
closed = 1;
nodes = (
"234 405 OFFCURVE",
"277 444 OFFCURVE",
"345 444 CURVE SMOOTH",
"408 444 OFFCURVE",
"450 400 OFFCURVE",
"450 333 CURVE",
"223 333 LINE"
);
}
);
width = 678;
},
{
layerId = "79D829DC-9C66-44C2-8B43-D291CF08F0E9";
paths = (
{
closed = 1;
nodes = (
"353 -14 OFFCURVE",
"422 -2 OFFCURVE",
"487 25 CURVE",
"504 114 LINE",
"444 79 OFFCURVE",
"373 62 OFFCURVE",
"296 62 CURVE SMOOTH",
"195 62 OFFCURVE",
"136 113 OFFCURVE",
"136 204 CURVE SMOOTH",
"136 215 OFFCURVE",
"137 227 OFFCURVE",
"141 252 CURVE",
"559 252 LINE",
"567 291 OFFCURVE",
"571 326 OFFCURVE",
"571 355 CURVE SMOOTH",
"571 480 OFFCURVE",
"492 560 OFFCURVE",
"368 560 CURVE SMOOTH",
"289 560 OFFCURVE",
"217 533 OFFCURVE",
"166 485 CURVE SMOOTH",
"87 408 OFFCURVE",
"46 308 OFFCURVE",
"46 195 CURVE SMOOTH",
"46 62 OFFCURVE",
"130 -14 OFFCURVE",
"282 -14 CURVE SMOOTH"
);
},
{
closed = 1;
nodes = (
"194 425 OFFCURVE",
"265 484 OFFCURVE",
"354 484 CURVE SMOOTH",
"434 484 OFFCURVE",
"484 435 OFFCURVE",
"484 355 CURVE SMOOTH",
"484 344 OFFCURVE",
"482 333 OFFCURVE",
"481 322 CURVE",
"158 322 LINE"
);
}
);
width = 615;
},
{
layerId = "D5B43B4B-63DF-4B35-BEE3-B41B34784265";
paths = (
{
closed = 1;
nodes = (
"391 -14 OFFCURVE",
"474 1 OFFCURVE",
"559 32 CURVE",
"586 168 LINE",
"497 124 OFFCURVE",
"414 102 OFFCURVE",
"341 102 CURVE SMOOTH",
"256 102 OFFCURVE",
"213 137 OFFCURVE",
"213 208 CURVE SMOOTH",
"213 210 OFFCURVE",
"213 213 OFFCURVE",
"214 217 CURVE SMOOTH",
"214 220 OFFCURVE",
"214 223 OFFCURVE",
"214 225 CURVE",
"623 225 LINE",
"629 253 LINE SMOOTH",
"637 288 OFFCURVE",
"640 315 OFFCURVE",
"640 342 CURVE SMOOTH",
"640 475 OFFCURVE",
"547 560 OFFCURVE",
"399 560 CURVE SMOOTH",
"284 560 OFFCURVE",
"190 520 OFFCURVE",
"123 441 CURVE SMOOTH",
"67 376 OFFCURVE",
"36 295 OFFCURVE",
"36 212 CURVE SMOOTH",
"36 68 OFFCURVE",
"132 -14 OFFCURVE",
"303 -14 CURVE SMOOTH"
);
},
{
closed = 1;
nodes = (
"263 406 OFFCURVE",
"312 444 OFFCURVE",
"380 444 CURVE SMOOTH",
"433 444 OFFCURVE",
"467 411 OFFCURVE",
"467 359 CURVE SMOOTH",
"467 351 OFFCURVE",
"465 341 OFFCURVE",
"464 333 CURVE",
"238 333 LINE"
);
}
);
width = 678;
}
);
leftKerningGroup = e;
note = e;
rightKerningGroup = e;
unicode = 0065;
},
{
export = 0;
glyphname = f;
layers = (
{
layerId = "EB88A49E-561A-4405-9552-C71224CBA53C";
paths = (
{
closed = 1;
nodes = (
"199 0 LINE",
"199 477 LINE",
"347 477 LINE",
"347 547 LINE",
"199 547 LINE",
"199 595 LINE SMOOTH",
"199 663 OFFCURVE",
"221 685 OFFCURVE",
"285 685 CURVE SMOOTH",
"371 685 LINE",
"371 760 LINE",
"286 760 LINE SMOOTH",
"163 760 OFFCURVE",
"109 706 OFFCURVE",
"109 585 CURVE SMOOTH",
"109 547 LINE",
"23 547 LINE",
"23 477 LINE",
"109 477 LINE",
"109 0 LINE"
);
}
);
width = 352;
},
{
layerId = "5297CC84-2E5E-44C2-8BD8-B52BBF62A592";
paths = (
{
closed = 1;
nodes = (
"281 0 LINE",
"281 422 LINE",
"430 422 LINE",
"430 547 LINE",
"281 547 LINE",
"281 585 LINE SMOOTH",
"281 629 OFFCURVE",
"298 645 OFFCURVE",
"347 645 CURVE SMOOTH",
"444 645 LINE",
"444 760 LINE",
"310 760 LINE SMOOTH",
"171 760 OFFCURVE",
"106 704 OFFCURVE",
"106 585 CURVE SMOOTH",
"106 547 LINE",
"19 547 LINE",
"19 422 LINE",
"106 422 LINE",
"106 0 LINE"
);
}
);
width = 435;
},
{
layerId = "79D829DC-9C66-44C2-8B43-D291CF08F0E9";
paths = (
{
closed = 1;
nodes = (
"158 0 LINE",
"251 477 LINE",
"399 477 LINE",
"412 547 LINE",
"264 547 LINE",
"274 595 LINE SMOOTH",
"289 663 OFFCURVE",
"313 685 OFFCURVE",
"378 685 CURVE SMOOTH",
"464 685 LINE",
"478 760 LINE",
"393 760 LINE SMOOTH",
"260 760 OFFCURVE",
"206 714 OFFCURVE",
"181 585 CURVE SMOOTH",
"174 547 LINE",
"88 547 LINE",
"75 477 LINE",
"161 477 LINE",
"68 0 LINE"
);
}
);
width = 352;
},
{
layerId = "D5B43B4B-63DF-4B35-BEE3-B41B34784265";
paths = (
{
closed = 1;
nodes = (
"230 0 LINE",
"312 422 LINE",
"460 422 LINE",
"484 547 LINE",
"336 547 LINE",
"344 585 LINE SMOOTH",
"353 629 OFFCURVE",
"372 645 OFFCURVE",
"421 645 CURVE SMOOTH",
"517 645 LINE",
"540 760 LINE",
"406 760 LINE SMOOTH",
"265 760 OFFCURVE",
"192 706 OFFCURVE",
"168 585 CURVE SMOOTH",
"160 547 LINE",
"74 547 LINE",
"50 422 LINE",
"136 422 LINE",
"54 0 LINE"
);
}
);
width = 435;
}
);
leftKerningGroup = f;
note = f;
rightKerningGroup = f;
unicode = 0066;
},
{
export = 0;
glyphname = g;
layers = (
{
layerId = "EB88A49E-561A-4405-9552-C71224CBA53C";
paths = (
{
closed = 1;
nodes = (
"463 -208 OFFCURVE",
"544 -119 OFFCURVE",
"544 68 CURVE SMOOTH",
"544 547 LINE",
"454 547 LINE",
"454 464 LINE",
"417 528 OFFCURVE",
"359 560 OFFCURVE",
"279 560 CURVE SMOOTH",
"144 560 OFFCURVE",
"55 449 OFFCURVE",
"55 280 CURVE SMOOTH",
"55 111 OFFCURVE",
"144 0 OFFCURVE",
"279 0 CURVE SMOOTH",
"359 0 OFFCURVE",
"417 32 OFFCURVE",
"454 96 CURVE",
"454 52 LINE SMOOTH",
"454 -73 OFFCURVE",
"395 -134 OFFCURVE",
"278 -134 CURVE SMOOTH",
"225 -134 OFFCURVE",
"174 -120 OFFCURVE",
"121 -92 CURVE",
"121 -179 LINE",
"174 -199 OFFCURVE",
"229 -208 OFFCURVE",
"292 -208 CURVE SMOOTH"
);
},
{
closed = 1;
nodes = (
"205 75 OFFCURVE",
"148 151 OFFCURVE",
"148 280 CURVE SMOOTH",
"148 409 OFFCURVE",
"205 485 OFFCURVE",
"301 485 CURVE SMOOTH",
"398 485 OFFCURVE",
"454 409 OFFCURVE",
"454 280 CURVE SMOOTH",
"454 151 OFFCURVE",
"398 75 OFFCURVE",
"301 75 CURVE SMOOTH"
);
}
);
width = 635;
},
{
layerId = "5297CC84-2E5E-44C2-8BD8-B52BBF62A592";
paths = (
{
closed = 1;
nodes = (
"518 -216 OFFCURVE",
"632 -121 OFFCURVE",
"632 55 CURVE SMOOTH",
"632 547 LINE",
"456 547 LINE",
"456 466 LINE",
"408 530 OFFCURVE",
"352 559 OFFCURVE",
"276 559 CURVE SMOOTH",
"143 559 OFFCURVE",
"45 443 OFFCURVE",
"45 280 CURVE SMOOTH",
"45 117 OFFCURVE",
"143 0 OFFCURVE",
"276 0 CURVE SMOOTH",
"352 0 OFFCURVE",
"408 29 OFFCURVE",
"456 93 CURVE",
"456 55 LINE SMOOTH",
"456 -52 OFFCURVE",
"405 -100 OFFCURVE",
"290 -100 CURVE SMOOTH",
"231 -100 OFFCURVE",
"173 -83 OFFCURVE",
"112 -48 CURVE",
"112 -184 LINE",
"176 -205 OFFCURVE",
"239 -216 OFFCURVE",
"307 -216 CURVE SMOOTH"
);
},
{
closed = 1;
nodes = (
"266 127 OFFCURVE",
"226 180 OFFCURVE",
"226 280 CURVE SMOOTH",
"226 377 OFFCURVE",
"269 433 OFFCURVE",
"341 433 CURVE SMOOTH",
"414 433 OFFCURVE",
"456 377 OFFCURVE",
"456 280 CURVE SMOOTH",
"456 183 OFFCURVE",
"414 127 OFFCURVE",
"341 127 CURVE SMOOTH"
);
}
);
width = 716;
},
{
layerId = "79D829DC-9C66-44C2-8B43-D291CF08F0E9";
paths = (
{
closed = 1;
nodes = (
"367 -208 OFFCURVE",
"467 -117 OFFCURVE",
"503 68 CURVE SMOOTH",
"596 547 LINE",
"506 547 LINE",
"490 462 LINE",
"463 525 OFFCURVE",
"406 560 OFFCURVE",
"333 560 CURVE SMOOTH",
"266 560 OFFCURVE",
"201 532 OFFCURVE",
"156 483 CURVE SMOOTH",
"87 408 OFFCURVE",
"46 307 OFFCURVE",
"46 206 CURVE SMOOTH",
"46 78 OFFCURVE",
"113 0 OFFCURVE",
"224 0 CURVE SMOOTH",
"301 0 OFFCURVE",
"368 31 OFFCURVE",
"419 88 CURVE",
"411 47 LINE SMOOTH",
"388 -70 OFFCURVE",
"313 -134 OFFCURVE",
"198 -134 CURVE SMOOTH",
"142 -134 OFFCURVE",
"93 -120 OFFCURVE",
"49 -92 CURVE",
"32 -179 LINE",
"79 -199 OFFCURVE",
"132 -208 OFFCURVE",
"196 -208 CURVE SMOOTH"
);
},
{
closed = 1;
nodes = (
"182 75 OFFCURVE",
"139 124 OFFCURVE",
"139 215 CURVE SMOOTH",
"139 295 OFFCURVE",
"169 375 OFFCURVE",
"218 431 CURVE SMOOTH",
"249 466 OFFCURVE",
"293 485 OFFCURVE",
"341 485 CURVE SMOOTH",
"417 485 OFFCURVE",
"461 435 OFFCURVE",
"461 346 CURVE SMOOTH",
"461 191 OFFCURVE",
"376 75 OFFCURVE",
"261 75 CURVE SMOOTH"
);
}
);
width = 635;
},
{
layerId = "D5B43B4B-63DF-4B35-BEE3-B41B34784265";
paths = (
{
closed = 1;
nodes = (
"431 -216 OFFCURVE",
"553 -124 OFFCURVE",
"590 72 CURVE SMOOTH",
"682 547 LINE",
"506 547 LINE",
"491 466 LINE",
"455 530 OFFCURVE",
"405 559 OFFCURVE",
"328 559 CURVE SMOOTH",
"243 559 OFFCURVE",
"167 517 OFFCURVE",
"110 438 CURVE SMOOTH",
"63 373 OFFCURVE",
"37 296 OFFCURVE",
"37 223 CURVE SMOOTH",
"37 86 OFFCURVE",
"114 0 OFFCURVE",
"238 0 CURVE SMOOTH",
"306 0 OFFCURVE",
"362 29 OFFCURVE",
"418 93 CURVE",
"410 55 LINE SMOOTH",
"389 -53 OFFCURVE",
"330 -100 OFFCURVE",
"214 -100 CURVE SMOOTH",
"155 -100 OFFCURVE",
"101 -83 OFFCURVE",
"46 -48 CURVE",
"20 -184 LINE",
"81 -205 OFFCURVE",
"143 -216 OFFCURVE",
"211 -216 CURVE SMOOTH"
);
},
{
closed = 1;
nodes = (
"250 127 OFFCURVE",
"219 162 OFFCURVE",
"219 229 CURVE SMOOTH",
"219 346 OFFCURVE",
"284 433 OFFCURVE",
"369 433 CURVE SMOOTH",
"428 433 OFFCURVE",
"459 397 OFFCURVE",
"459 329 CURVE SMOOTH",
"459 214 OFFCURVE",
"394 127 OFFCURVE",
"309 127 CURVE SMOOTH"
);
}
);
width = 716;
}
);
leftKerningGroup = g;
note = g;
unicode = 0067;
},
{
export = 0;
glyphname = h;
layers = (
{
layerId = "EB88A49E-561A-4405-9552-C71224CBA53C";
paths = (
{
closed = 1;
nodes = (
"181 0 LINE",
"181 309 LINE SMOOTH",
"181 416 OFFCURVE",
"241 482 OFFCURVE",
"338 482 CURVE SMOOTH",
"418 482 OFFCURVE",
"459 431 OFFCURVE",
"459 327 CURVE SMOOTH",
"459 0 LINE",
"549 0 LINE",
"549 330 LINE SMOOTH",
"549 481 OFFCURVE",
"483 560 OFFCURVE",
"358 560 CURVE SMOOTH",
"282 560 OFFCURVE",
"224 527 OFFCURVE",
"181 462 CURVE",
"181 760 LINE",
"91 760 LINE",
"91 0 LINE"
);
}
);
width = 634;
},
{
layerId = "5297CC84-2E5E-44C2-8BD8-B52BBF62A592";
paths = (
{
closed = 1;
nodes = (
"259 0 LINE",
"259 269 LINE SMOOTH",
"259 369 OFFCURVE",
"303 428 OFFCURVE",
"376 428 CURVE SMOOTH",
"405 428 OFFCURVE",
"431 415 OFFCURVE",
"444 392 CURVE SMOOTH",
"449 383 OFFCURVE",
"453 370 OFFCURVE",
"455 353 CURVE SMOOTH",
"457 335 OFFCURVE",
"458 302 OFFCURVE",
"458 254 CURVE SMOOTH",
"458 0 LINE",
"634 0 LINE",
"634 333 LINE SMOOTH",
"634 481 OFFCURVE",
"568 560 OFFCURVE",
"441 560 CURVE SMOOTH",
"369 560 OFFCURVE",
"311 531 OFFCURVE",
"259 467 CURVE",
"259 760 LINE",
"84 760 LINE",
"84 0 LINE"
);
}
);
width = 712;
},
{
layerId = "79D829DC-9C66-44C2-8B43-D291CF08F0E9";
paths = (
{
closed = 1;
nodes = (
"125 0 LINE",
"184 303 LINE SMOOTH",
"205 411 OFFCURVE",
"282 482 OFFCURVE",
"378 482 CURVE SMOOTH",
"439 482 OFFCURVE",
"476 450 OFFCURVE",
"476 395 CURVE SMOOTH",
"476 382 OFFCURVE",
"472 358 OFFCURVE",
"467 327 CURVE SMOOTH",
"403 0 LINE",
"493 0 LINE",
"557 330 LINE SMOOTH",
"564 362 OFFCURVE",
"566 388 OFFCURVE",
"566 411 CURVE SMOOTH",
"566 506 OFFCURVE",
"510 560 OFFCURVE",
"414 560 CURVE SMOOTH",
"335 560 OFFCURVE",
"260 522 OFFCURVE",
"215 461 CURVE",
"273 760 LINE",
"183 760 LINE",
"35 0 LINE"
);
}
);
width = 634;
},
{
layerId = "D5B43B4B-63DF-4B35-BEE3-B41B34784265";
paths = (
{
closed = 1;
nodes = (
"206 0 LINE",
"259 269 LINE SMOOTH",
"279 369 OFFCURVE",
"334 428 OFFCURVE",
"406 428 CURVE SMOOTH",
"449 428 OFFCURVE",
"472 404 OFFCURVE",
"472 363 CURVE SMOOTH",
"472 348 OFFCURVE",
"468 322 OFFCURVE",
"460 285 CURVE SMOOTH",
"405 0 LINE",
"580 0 LINE",
"645 333 LINE SMOOTH",
"650 362 OFFCURVE",
"654 389 OFFCURVE",
"654 409 CURVE SMOOTH",
"654 505 OFFCURVE",
"597 560 OFFCURVE",
"496 560 CURVE SMOOTH",
"425 560 OFFCURVE",
"361 530 OFFCURVE",
"297 467 CURVE",
"354 760 LINE",
"178 760 LINE",
"31 0 LINE"
);
}
);
width = 712;
}
);
leftKerningGroup = g;
note = h;
unicode = 0068;
},
{
export = 0;
glyphname = i;
layers = (
{
layerId = "EB88A49E-561A-4405-9552-C71224CBA53C";
paths = (
{
closed = 1;
nodes = (
"184 0 LINE",
"184 547 LINE",
"94 547 LINE",
"94 0 LINE"
);
},
{
closed = 1;
nodes = (
"184 646 LINE",
"184 760 LINE",
"94 760 LINE",
"94 646 LINE"
);
}
);
width = 278;
},
{
layerId = "5297CC84-2E5E-44C2-8BD8-B52BBF62A592";
paths = (
{
closed = 1;
nodes = (
"259 0 LINE",
"259 547 LINE",
"84 547 LINE",
"84 0 LINE"
);
},
{
closed = 1;
nodes = (
"259 617 LINE",
"259 760 LINE",
"84 760 LINE",
"84 617 LINE"
);
}
);
width = 343;
},
{
layerId = "79D829DC-9C66-44C2-8B43-D291CF08F0E9";
paths = (
{
closed = 1;
nodes = (
"125 0 LINE",
"232 547 LINE",
"142 547 LINE",
"35 0 LINE"
);
},
{
closed = 1;
nodes = (
"251 646 LINE",
"273 760 LINE",
"183 760 LINE",
"161 646 LINE"
);
}
);
width = 278;
},
{
layerId = "D5B43B4B-63DF-4B35-BEE3-B41B34784265";
paths = (
{
closed = 1;
nodes = (
"206 0 LINE",
"313 547 LINE",
"137 547 LINE",
"31 0 LINE"
);
},
{
closed = 1;
nodes = (
"326 617 LINE",
"354 760 LINE",
"178 760 LINE",
"150 617 LINE"
);
}
);
width = 343;
}
);
leftKerningGroup = i;
note = i;
unicode = 0069;
},
{
export = 0;
glyphname = j;
layers = (
{
layerId = "EB88A49E-561A-4405-9552-C71224CBA53C";
paths = (
{
closed = 1;
nodes = (
"16 -208 LINE SMOOTH",
"133 -208 OFFCURVE",
"184 -149 OFFCURVE",
"184 -10 CURVE SMOOTH",
"184 547 LINE",
"94 547 LINE",
"94 -10 LINE SMOOTH",
"94 -109 OFFCURVE",
"74 -132 OFFCURVE",
"6 -132 CURVE SMOOTH",
"-18 -132 LINE",
"-18 -208 LINE"
);
},
{
closed = 1;
nodes = (
"184 646 LINE",
"184 760 LINE",
"94 760 LINE",
"94 646 LINE"
);
}
);
width = 278;
},
{
layerId = "5297CC84-2E5E-44C2-8BD8-B52BBF62A592";
paths = (
{
closed = 1;
nodes = (
"53 -216 LINE SMOOTH",
"186 -216 OFFCURVE",
"259 -137 OFFCURVE",
"259 10 CURVE SMOOTH",
"259 547 LINE",
"84 547 LINE",
"84 10 LINE SMOOTH",
"84 -78 OFFCURVE",
"64 -101 OFFCURVE",
"-3 -101 CURVE SMOOTH",
"-33 -101 LINE",
"-33 -216 LINE"
);
},
{
closed = 1;
nodes = (
"259 617 LINE",
"259 760 LINE",
"84 760 LINE",
"84 617 LINE"
);
}
);
width = 343;
},
{
layerId = "79D829DC-9C66-44C2-8B43-D291CF08F0E9";
paths = (
{
closed = 1;
nodes = (
"-79 -208 LINE SMOOTH",
"-2 -208 OFFCURVE",
"56 -184 OFFCURVE",
"85 -140 CURVE SMOOTH",
"100 -117 OFFCURVE",
"114 -74 OFFCURVE",
"126 -12 CURVE",
"127 -10 LINE",
"235 547 LINE",
"145 547 LINE",
"37 -10 LINE SMOOTH",
"17 -114 OFFCURVE",
"-4 -132 OFFCURVE",
"-75 -132 CURVE SMOOTH",
"-98 -132 LINE",
"-113 -208 LINE"
);
},
{
closed = 1;
nodes = (
"255 646 LINE",
"277 760 LINE",
"187 760 LINE",
"165 646 LINE"
);
}
);
width = 278;
},
{
layerId = "D5B43B4B-63DF-4B35-BEE3-B41B34784265";
paths = (
{
closed = 1;
nodes = (
"-41 -216 LINE SMOOTH",
"98 -216 OFFCURVE",
"179 -143 OFFCURVE",
"208 10 CURVE SMOOTH",
"313 547 LINE",
"137 547 LINE",
"32 10 LINE SMOOTH",
"16 -79 OFFCURVE",
"-10 -101 OFFCURVE",
"-75 -101 CURVE SMOOTH",
"-106 -101 LINE",
"-128 -216 LINE"
);
},
{
closed = 1;
nodes = (
"326 617 LINE",
"354 760 LINE",
"178 760 LINE",
"150 617 LINE"
);
}
);
width = 343;
}
);
note = j;
unicode = 006A;
},
{
export = 0;
glyphname = k;
layers = (
{
layerId = "EB88A49E-561A-4405-9552-C71224CBA53C";
paths = (
{
closed = 1;
nodes = (
"181 0 LINE",
"181 267 LINE",
"459 0 LINE",
"576 0 LINE",
"274 291 LINE",
"564 547 LINE",
"449 547 LINE",
"181 311 LINE",
"181 760 LINE",
"91 760 LINE",
"91 0 LINE"
);
}
);
width = 579;
},
{
layerId = "5297CC84-2E5E-44C2-8BD8-B52BBF62A592";
paths = (
{
closed = 1;
nodes = (
"259 0 LINE",
"259 228 LINE",
"472 0 LINE",
"684 0 LINE",
"396 296 LINE",
"663 547 LINE",
"460 547 LINE",
"259 346 LINE",
"259 760 LINE",
"84 760 LINE",
"84 0 LINE"
);
}
);
width = 665;
},
{
layerId = "79D829DC-9C66-44C2-8B43-D291CF08F0E9";
paths = (
{
closed = 1;
nodes = (
"125 0 LINE",
"177 267 LINE",
"410 0 LINE",
"519 0 LINE",
"268 285 LINE",
"612 547 LINE",
"495 547 LINE",
"187 317 LINE",
"273 760 LINE",
"183 760 LINE",
"35 0 LINE"
);
}
);
width = 579;
},
{
layerId = "D5B43B4B-63DF-4B35-BEE3-B41B34784265";
paths = (
{
closed = 1;
nodes = (
"206 0 LINE",
"252 236 LINE",
"429 0 LINE",
"629 0 LINE",
"398 294 LINE",
"716 547 LINE",
"510 547 LINE",
"274 348 LINE",
"354 760 LINE",
"178 760 LINE",
"31 0 LINE"
);
}
);
width = 665;
}
);
note = k;
rightKerningGroup = k;
unicode = 006B;
},
{
export = 0;
glyphname = l;
layers = (
{
layerId = "EB88A49E-561A-4405-9552-C71224CBA53C";
paths = (
{
closed = 1;
nodes = (
"184 0 LINE",
"184 760 LINE",
"94 760 LINE",
"94 0 LINE"
);
}
);
width = 278;
},
{
layerId = "5297CC84-2E5E-44C2-8BD8-B52BBF62A592";
paths = (
{
closed = 1;
nodes = (
"259 0 LINE",
"259 760 LINE",
"84 760 LINE",
"84 0 LINE"
);
}
);
width = 343;
},
{
layerId = "79D829DC-9C66-44C2-8B43-D291CF08F0E9";
paths = (
{
closed = 1;
nodes = (
"125 0 LINE",
"273 760 LINE",
"183 760 LINE",
"35 0 LINE"
);
}
);
width = 278;
},
{
layerId = "D5B43B4B-63DF-4B35-BEE3-B41B34784265";
paths = (
{
closed = 1;
nodes = (
"206 0 LINE",
"354 760 LINE",
"178 760 LINE",
"31 0 LINE"
);
}
);
width = 343;
}
);
leftKerningGroup = l;
note = l;
unicode = 006C;
},
{
export = 0;
glyphname = l.alt;
layers = (
{
layerId = "EB88A49E-561A-4405-9552-C71224CBA53C";
paths = (
{
closed = 1;
nodes = (
"278 0 LINE",
"278 76 LINE",
"272 76 LINE SMOOTH",
"204 76 OFFCURVE",
"184 99 OFFCURVE",
"184 198 CURVE SMOOTH",
"184 760 LINE",
"94 760 LINE",
"94 198 LINE SMOOTH",
"94 59 OFFCURVE",
"145 0 OFFCURVE",
"262 0 CURVE SMOOTH"
);
}
);
width = 278;
},
{
layerId = "5297CC84-2E5E-44C2-8BD8-B52BBF62A592";
paths = (
{
closed = 1;
nodes = (
"350 0 LINE",
"350 115 LINE",
"346 115 LINE SMOOTH",
"279 115 OFFCURVE",
"259 138 OFFCURVE",
"259 226 CURVE SMOOTH",
"259 760 LINE",
"84 760 LINE",
"84 226 LINE SMOOTH",
"84 79 OFFCURVE",
"155 0 OFFCURVE",
"290 0 CURVE SMOOTH"
);
}
);
width = 343;
},
{
layerId = "79D829DC-9C66-44C2-8B43-D291CF08F0E9";
paths = (
{
closed = 1;
nodes = (
"219 0 LINE",
"234 76 LINE",
"229 76 LINE SMOOTH",
"160 76 OFFCURVE",
"144 99 OFFCURVE",
"164 198 CURVE SMOOTH",
"273 760 LINE",
"183 760 LINE",
"74 198 LINE SMOOTH",
"47 59 OFFCURVE",
"85 0 OFFCURVE",
"204 0 CURVE SMOOTH"
);
}
);
width = 278;
},
{
layerId = "D5B43B4B-63DF-4B35-BEE3-B41B34784265";
paths = (
{
closed = 1;
nodes = (
"296 0 LINE",
"318 115 LINE",
"314 115 LINE SMOOTH",
"249 115 OFFCURVE",
"232 138 OFFCURVE",
"249 226 CURVE SMOOTH",
"353 760 LINE",
"178 760 LINE",
"74 226 LINE SMOOTH",
"46 79 OFFCURVE",
"103 0 OFFCURVE",
"236 0 CURVE SMOOTH"
);
}
);
width = 343;
}
);
note = l.alt;
},
{
export = 0;
glyphname = m;
layers = (
{
layerId = "EB88A49E-561A-4405-9552-C71224CBA53C";
paths = (
{
closed = 1;
nodes = (
"181 0 LINE",
"181 309 LINE SMOOTH",
"181 416 OFFCURVE",
"239 482 OFFCURVE",
"331 482 CURVE SMOOTH",
"408 482 OFFCURVE",
"445 432 OFFCURVE",
"445 327 CURVE SMOOTH",
"445 0 LINE",
"535 0 LINE",
"535 309 LINE SMOOTH",
"535 416 OFFCURVE",
"593 482 OFFCURVE",
"686 482 CURVE SMOOTH",
"762 482 OFFCURVE",
"799 432 OFFCURVE",
"799 327 CURVE SMOOTH",
"799 0 LINE",
"889 0 LINE",
"889 330 LINE SMOOTH",
"889 477 OFFCURVE",
"824 560 OFFCURVE",
"711 560 CURVE SMOOTH",
"626 560 OFFCURVE",
"565 522 OFFCURVE",
"520 442 CURVE",
"493 519 OFFCURVE",
"437 560 OFFCURVE",
"357 560 CURVE SMOOTH",
"278 560 OFFCURVE",
"222 529 OFFCURVE",
"181 462 CURVE",
"181 547 LINE",
"91 547 LINE",
"91 0 LINE"
);
}
);
width = 974;
},
{
layerId = "5297CC84-2E5E-44C2-8BD8-B52BBF62A592";
paths = (
{
closed = 1;
nodes = (
"259 0 LINE",
"259 269 LINE SMOOTH",
"259 372 OFFCURVE",
"296 428 OFFCURVE",
"364 428 CURVE SMOOTH",
"391 428 OFFCURVE",
"409 419 OFFCURVE",
"420 402 CURVE",
"430 385 OFFCURVE",
"435 346 OFFCURVE",
"435 285 CURVE SMOOTH",
"435 0 LINE",
"611 0 LINE",
"611 269 LINE SMOOTH",
"612 372 OFFCURVE",
"649 428 OFFCURVE",
"716 428 CURVE SMOOTH",
"767 428 OFFCURVE",
"788 395 OFFCURVE",
"788 318 CURVE SMOOTH",
"788 299 LINE SMOOTH",
"788 294 OFFCURVE",
"788 290 OFFCURVE",
"787 285 CURVE",
"787 0 LINE",
"963 0 LINE",
"963 333 LINE SMOOTH",
"963 481 OFFCURVE",
"895 560 OFFCURVE",
"770 560 CURVE SMOOTH",
"697 560 OFFCURVE",
"635 524 OFFCURVE",
"591 456 CURVE",
"560 521 OFFCURVE",
"500 560 OFFCURVE",
"425 560 CURVE SMOOTH",
"358 560 OFFCURVE",
"302 528 OFFCURVE",
"259 467 CURVE",
"259 547 LINE",
"83 547 LINE",
"83 0 LINE"
);
}
);
width = 1042;
},
{
layerId = "79D829DC-9C66-44C2-8B43-D291CF08F0E9";
paths = (
{
closed = 1;
nodes = (
"125 0 LINE",
"185 305 LINE SMOOTH",
"205 410 OFFCURVE",
"281 482 OFFCURVE",
"369 482 CURVE SMOOTH",
"426 482 OFFCURVE",
"461 448 OFFCURVE",
"461 388 CURVE SMOOTH",
"461 372 OFFCURVE",
"458 351 OFFCURVE",
"453 327 CURVE SMOOTH",
"389 0 LINE",
"479 0 LINE",
"539 305 LINE SMOOTH",
"559 410 OFFCURVE",
"635 482 OFFCURVE",
"722 482 CURVE SMOOTH",
"781 482 OFFCURVE",
"815 448 OFFCURVE",
"815 389 CURVE SMOOTH",
"815 374 OFFCURVE",
"812 355 OFFCURVE",
"807 327 CURVE SMOOTH",
"744 0 LINE",
"834 0 LINE",
"898 330 LINE SMOOTH",
"903 357 OFFCURVE",
"906 384 OFFCURVE",
"906 405 CURVE SMOOTH",
"906 504 OFFCURVE",
"852 560 OFFCURVE",
"759 560 CURVE SMOOTH",
"679 560 OFFCURVE",
"605 519 OFFCURVE",
"550 442 CURVE",
"539 517 OFFCURVE",
"485 560 OFFCURVE",
"406 560 CURVE SMOOTH",
"331 560 OFFCURVE",
"263 526 OFFCURVE",
"215 462 CURVE",
"232 547 LINE",
"142 547 LINE",
"35 0 LINE"
);
}
);
width = 974;
},
{
layerId = "D5B43B4B-63DF-4B35-BEE3-B41B34784265";
paths = (
{
closed = 1;
nodes = (
"206 0 LINE",
"259 269 LINE SMOOTH",
"278 368 OFFCURVE",
"330 428 OFFCURVE",
"394 428 CURVE SMOOTH",
"430 428 OFFCURVE",
"451 406 OFFCURVE",
"451 370 CURVE SMOOTH",
"451 363 OFFCURVE",
"450 353 OFFCURVE",
"448 341 CURVE SMOOTH",
"446 328 OFFCURVE",
"443 310 OFFCURVE",
"438 285 CURVE SMOOTH",
"382 0 LINE",
"558 0 LINE",
"611 269 LINE SMOOTH",
"631 372 OFFCURVE",
"679 428 OFFCURVE",
"746 428 CURVE SMOOTH",
"781 428 OFFCURVE",
"803 406 OFFCURVE",
"803 370 CURVE SMOOTH",
"803 359 OFFCURVE",
"799 333 OFFCURVE",
"791 292 CURVE",
"789 285 LINE",
"734 0 LINE",
"910 0 LINE",
"975 333 LINE SMOOTH",
"980 365 OFFCURVE",
"984 390 OFFCURVE",
"984 409 CURVE SMOOTH",
"984 502 OFFCURVE",
"923 560 OFFCURVE",
"826 560 CURVE SMOOTH",
"753 560 OFFCURVE",
"680 523 OFFCURVE",
"627 456 CURVE",
"616 517 OFFCURVE",
"557 560 OFFCURVE",
"481 560 CURVE SMOOTH",
"414 560 OFFCURVE",
"352 528 OFFCURVE",
"297 467 CURVE",
"313 547 LINE",
"137 547 LINE",
"31 0 LINE"
);
}
);
width = 1042;
}
);
leftKerningGroup = g;
note = m;
unicode = 006D;
},
{
export = 0;
glyphname = p;
layers = (
{
layerId = "EB88A49E-561A-4405-9552-C71224CBA53C";
paths = (
{
closed = 1;
nodes = (
"181 -208 LINE",
"181 82 LINE",
"218 17 OFFCURVE",
"276 -14 OFFCURVE",
"356 -14 CURVE SMOOTH",
"489 -14 OFFCURVE",
"580 101 OFFCURVE",
"580 273 CURVE SMOOTH",
"580 445 OFFCURVE",
"489 560 OFFCURVE",
"356 560 CURVE SMOOTH",
"276 560 OFFCURVE",
"218 529 OFFCURVE",
"181 464 CURVE",
"181 547 LINE",
"91 547 LINE",
"91 -208 LINE"
);
},
{
closed = 1;
nodes = (
"239 61 OFFCURVE",
"181 141 OFFCURVE",
"181 273 CURVE SMOOTH",
"181 405 OFFCURVE",
"239 485 OFFCURVE",
"334 485 CURVE SMOOTH",
"429 485 OFFCURVE",
"487 405 OFFCURVE",
"487 273 CURVE SMOOTH",
"487 141 OFFCURVE",
"429 61 OFFCURVE",
"334 61 CURVE SMOOTH"
);
}
);
width = 635;
},
{
layerId = "5297CC84-2E5E-44C2-8BD8-B52BBF62A592";
paths = (
{
closed = 1;
nodes = (
"259 -208 LINE",
"259 79 LINE",
"307 15 OFFCURVE",
"364 -14 OFFCURVE",
"440 -14 CURVE SMOOTH",
"575 -14 OFFCURVE",
"671 104 OFFCURVE",
"671 273 CURVE SMOOTH",
"671 441 OFFCURVE",
"575 560 OFFCURVE",
"440 560 CURVE SMOOTH",
"364 560 OFFCURVE",
"307 531 OFFCURVE",
"259 467 CURVE",
"259 547 LINE",
"84 547 LINE",
"84 -208 LINE"
);
},
{
closed = 1;
nodes = (
"300 113 OFFCURVE",
"259 169 OFFCURVE",
"259 273 CURVE SMOOTH",
"259 377 OFFCURVE",
"300 433 OFFCURVE",
"375 433 CURVE SMOOTH",
"450 433 OFFCURVE",
"490 377 OFFCURVE",
"490 273 CURVE SMOOTH",
"490 169 OFFCURVE",
"450 113 OFFCURVE",
"375 113 CURVE SMOOTH"
);
}
);
width = 716;
},
{
layerId = "79D829DC-9C66-44C2-8B43-D291CF08F0E9";
paths = (
{
closed = 1;
nodes = (
"87 -208 LINE",
"143 82 LINE",
"170 18 OFFCURVE",
"223 -14 OFFCURVE",
"300 -14 CURVE SMOOTH",
"367 -14 OFFCURVE",
"429 13 OFFCURVE",
"477 65 CURVE SMOOTH",
"549 142 OFFCURVE",
"589 243 OFFCURVE",
"589 351 CURVE SMOOTH",
"589 483 OFFCURVE",
"524 560 OFFCURVE",
"412 560 CURVE SMOOTH",
"332 560 OFFCURVE",
"266 527 OFFCURVE",
"218 464 CURVE",
"234 547 LINE",
"144 547 LINE",
"-3 -208 LINE"
);
},
{
closed = 1;
nodes = (
"216 61 OFFCURVE",
"173 112 OFFCURVE",
"173 203 CURVE SMOOTH",
"173 275 OFFCURVE",
"197 353 OFFCURVE",
"234 405 CURVE SMOOTH",
"271 457 OFFCURVE",
"322 485 OFFCURVE",
"375 485 CURVE SMOOTH",
"454 485 OFFCURVE",
"496 433 OFFCURVE",
"496 337 CURVE SMOOTH",
"496 272 OFFCURVE",
"471 192 OFFCURVE",
"434 139 CURVE SMOOTH",
"399 88 OFFCURVE",
"349 61 OFFCURVE",
"293 61 CURVE SMOOTH"
);
}
);
width = 635;
},
{
layerId = "D5B43B4B-63DF-4B35-BEE3-B41B34784265";
paths = (
{
closed = 1;
nodes = (
"166 -208 LINE",
"222 79 LINE",
"258 15 OFFCURVE",
"309 -14 OFFCURVE",
"384 -14 CURVE SMOOTH",
"469 -14 OFFCURVE",
"545 28 OFFCURVE",
"604 111 CURVE SMOOTH",
"651 176 OFFCURVE",
"677 258 OFFCURVE",
"677 342 CURVE SMOOTH",
"677 477 OFFCURVE",
"600 560 OFFCURVE",
"477 560 CURVE SMOOTH",
"408 560 OFFCURVE",
"350 531 OFFCURVE",
"297 467 CURVE",
"313 547 LINE",
"137 547 LINE",
"-10 -208 LINE"
);
},
{
closed = 1;
nodes = (
"287 113 OFFCURVE",
"253 149 OFFCURVE",
"253 209 CURVE SMOOTH",
"253 342 OFFCURVE",
"315 433 OFFCURVE",
"406 433 CURVE SMOOTH",
"465 433 OFFCURVE",
"496 398 OFFCURVE",
"496 331 CURVE SMOOTH",
"496 203 OFFCURVE",
"432 113 OFFCURVE",
"344 113 CURVE SMOOTH"
);
}
);
width = 716;
}
);
note = p;
unicode = 0070;
},
{
export = 0;
glyphname = q;
layers = (
{
layerId = "EB88A49E-561A-4405-9552-C71224CBA53C";
paths = (
{
closed = 1;
nodes = (
"544 -208 LINE",
"544 547 LINE",
"454 547 LINE",
"454 464 LINE",
"417 529 OFFCURVE",
"359 560 OFFCURVE",
"279 560 CURVE SMOOTH",
"147 560 OFFCURVE",
"55 445 OFFCURVE",
"55 273 CURVE SMOOTH",
"55 101 OFFCURVE",
"147 -14 OFFCURVE",
"279 -14 CURVE SMOOTH",
"359 -14 OFFCURVE",
"417 17 OFFCURVE",
"454 82 CURVE",
"454 -208 LINE"
);
},
{
closed = 1;
nodes = (
"205 61 OFFCURVE",
"148 141 OFFCURVE",
"148 273 CURVE SMOOTH",
"148 405 OFFCURVE",
"205 485 OFFCURVE",
"301 485 CURVE SMOOTH",
"396 485 OFFCURVE",
"454 405 OFFCURVE",
"454 273 CURVE SMOOTH",
"454 141 OFFCURVE",
"396 61 OFFCURVE",
"301 61 CURVE SMOOTH"
);
}
);
width = 635;
},
{
layerId = "5297CC84-2E5E-44C2-8BD8-B52BBF62A592";
paths = (
{
closed = 1;
nodes = (
"632 -208 LINE",
"632 547 LINE",
"456 547 LINE",
"456 466 LINE",
"408 530 OFFCURVE",
"352 559 OFFCURVE",
"276 559 CURVE SMOOTH",
"141 559 OFFCURVE",
"45 441 OFFCURVE",
"45 273 CURVE SMOOTH",
"45 104 OFFCURVE",
"141 -14 OFFCURVE",
"276 -14 CURVE SMOOTH",
"352 -14 OFFCURVE",
"408 15 OFFCURVE",
"456 79 CURVE",
"456 -208 LINE"
);
},
{
closed = 1;
nodes = (
"266 113 OFFCURVE",
"226 169 OFFCURVE",
"226 273 CURVE SMOOTH",
"226 377 OFFCURVE",
"266 433 OFFCURVE",
"341 433 CURVE SMOOTH",
"416 433 OFFCURVE",
"456 377 OFFCURVE",
"456 273 CURVE SMOOTH",
"456 169 OFFCURVE",
"416 113 OFFCURVE",
"341 113 CURVE SMOOTH"
);
}
);
width = 716;
},
{
layerId = "79D829DC-9C66-44C2-8B43-D291CF08F0E9";
paths = (
{
closed = 1;
nodes = (
"451 -206 LINE",
"597 546 LINE",
"507 546 LINE",
"491 464 LINE",
"468 528 OFFCURVE",
"416 560 OFFCURVE",
"335 560 CURVE SMOOTH",
"268 560 OFFCURVE",
"205 532 OFFCURVE",
"158 481 CURVE SMOOTH",
"86 402 OFFCURVE",
"46 301 OFFCURVE",
"46 196 CURVE SMOOTH",
"46 65 OFFCURVE",
"112 -14 OFFCURVE",
"223 -14 CURVE SMOOTH",
"303 -14 OFFCURVE",
"369 19 OFFCURVE",
"417 82 CURVE",
"361 -206 LINE"
);
},
{
closed = 1;
nodes = (
"181 61 OFFCURVE",
"139 113 OFFCURVE",
"139 209 CURVE SMOOTH",
"139 277 OFFCURVE",
"163 354 OFFCURVE",
"200 407 CURVE SMOOTH",
"236 458 OFFCURVE",
"285 485 OFFCURVE",
"342 485 CURVE SMOOTH",
"419 485 OFFCURVE",
"462 433 OFFCURVE",
"462 340 CURVE SMOOTH",
"462 185 OFFCURVE",
"370 61 OFFCURVE",
"257 61 CURVE SMOOTH"
);
}
);
width = 635;
},
{
layerId = "D5B43B4B-63DF-4B35-BEE3-B41B34784265";
paths = (
{
closed = 1;
nodes = (
"535 -208 LINE",
"682 547 LINE",
"506 547 LINE",
"491 467 LINE",
"455 531 OFFCURVE",
"404 560 OFFCURVE",
"329 560 CURVE SMOOTH",
"244 560 OFFCURVE",
"168 518 OFFCURVE",
"109 435 CURVE SMOOTH",
"62 370 OFFCURVE",
"36 288 OFFCURVE",
"36 204 CURVE SMOOTH",
"36 69 OFFCURVE",
"113 -14 OFFCURVE",
"236 -14 CURVE SMOOTH",
"305 -14 OFFCURVE",
"363 15 OFFCURVE",
"415 79 CURVE",
"359 -208 LINE"
);
},
{
closed = 1;
nodes = (
"248 113 OFFCURVE",
"217 148 OFFCURVE",
"217 215 CURVE SMOOTH",
"217 343 OFFCURVE",
"281 433 OFFCURVE",
"369 433 CURVE SMOOTH",
"426 433 OFFCURVE",
"459 397 OFFCURVE",
"459 337 CURVE SMOOTH",
"459 204 OFFCURVE",
"398 113 OFFCURVE",
"307 113 CURVE SMOOTH"
);
}
);
width = 716;
}
);
leftKerningGroup = d;
note = q;
unicode = 0071;
},
{
export = 0;
glyphname = r;
layers = (
{
layerId = "EB88A49E-561A-4405-9552-C71224CBA53C";
paths = (
{
closed = 1;
nodes = (
"181 0 LINE",
"181 288 LINE SMOOTH",
"181 412 OFFCURVE",
"238 480 OFFCURVE",
"339 480 CURVE SMOOTH",
"367 480 OFFCURVE",
"391 475 OFFCURVE",
"411 463 CURVE",
"411 555 LINE",
"392 559 OFFCURVE",
"378 560 OFFCURVE",
"365 560 CURVE SMOOTH",
"278 560 OFFCURVE",
"218 529 OFFCURVE",
"181 462 CURVE",
"181 547 LINE",
"91 547 LINE",
"91 0 LINE"
);
}
);
width = 411;
},
{
layerId = "5297CC84-2E5E-44C2-8BD8-B52BBF62A592";
paths = (
{
closed = 1;
nodes = (
"259 0 LINE",
"259 252 LINE SMOOTH",
"259 360 OFFCURVE",
"310 419 OFFCURVE",
"399 419 CURVE SMOOTH",
"430 419 OFFCURVE",
"459 413 OFFCURVE",
"490 398 CURVE",
"490 556 LINE",
"463 560 OFFCURVE",
"453 560 OFFCURVE",
"441 560 CURVE SMOOTH",
"360 560 OFFCURVE",
"303 529 OFFCURVE",
"259 457 CURVE",
"259 547 LINE",
"84 547 LINE",
"84 0 LINE"
);
}
);
width = 493;
},
{
layerId = "79D829DC-9C66-44C2-8B43-D291CF08F0E9";
paths = (
{
closed = 1;
nodes = (
"125 0 LINE",
"180 279 LINE SMOOTH",
"204 400 OFFCURVE",
"281 479 OFFCURVE",
"377 479 CURVE SMOOTH",
"404 479 OFFCURVE",
"427 473 OFFCURVE",
"446 464 CURVE",
"463 553 LINE",
"444 558 OFFCURVE",
"425 560 OFFCURVE",
"406 560 CURVE SMOOTH",
"331 560 OFFCURVE",
"262 525 OFFCURVE",
"215 462 CURVE",
"232 547 LINE",
"142 547 LINE",
"35 0 LINE"
);
}
);
width = 411;
},
{
layerId = "D5B43B4B-63DF-4B35-BEE3-B41B34784265";
paths = (
{
closed = 1;
nodes = (
"206 0 LINE",
"256 252 LINE SMOOTH",
"276 360 OFFCURVE",
"338 419 OFFCURVE",
"427 419 CURVE SMOOTH",
"460 419 OFFCURVE",
"490 411 OFFCURVE",
"514 398 CURVE",
"545 556 LINE",
"524 559 OFFCURVE",
"508 560 OFFCURVE",
"496 560 CURVE SMOOTH",
"412 560 OFFCURVE",
"341 522 OFFCURVE",
"294 453 CURVE",
"313 547 LINE",
"137 547 LINE",
"31 0 LINE"
);
}
);
width = 493;
}
);
leftKerningGroup = r;
note = r;
rightKerningGroup = r;
unicode = 0072;
},
{
export = 0;
glyphname = s;
layers = (
{
layerId = "EB88A49E-561A-4405-9552-C71224CBA53C";
paths = (
{
closed = 1;
nodes = (
"387 -14 OFFCURVE",
"472 50 OFFCURVE",
"472 151 CURVE SMOOTH",
"472 240 OFFCURVE",
"424 285 OFFCURVE",
"296 313 CURVE SMOOTH",
"265 320 LINE SMOOTH",
"217 331 OFFCURVE",
"185 342 OFFCURVE",
"169 354 CURVE SMOOTH",
"153 366 OFFCURVE",
"145 382 OFFCURVE",
"145 403 CURVE SMOOTH",
"145 458 OFFCURVE",
"190 485 OFFCURVE",
"279 485 CURVE SMOOTH",
"338 485 OFFCURVE",
"392 471 OFFCURVE",
"443 446 CURVE",
"443 531 LINE",
"394 550 OFFCURVE",
"335 560 OFFCURVE",
"268 560 CURVE SMOOTH",
"133 560 OFFCURVE",
"58 502 OFFCURVE",
"58 399 CURVE SMOOTH",
"58 314 OFFCURVE",
"104 269 OFFCURVE",
"216 245 CURVE SMOOTH",
"247 238 LINE SMOOTH",
"303 226 OFFCURVE",
"339 214 OFFCURVE",
"356 201 CURVE SMOOTH",
"372 188 OFFCURVE",
"380 169 OFFCURVE",
"380 144 CURVE SMOOTH",
"380 91 OFFCURVE",
"333 61 OFFCURVE",
"248 61 CURVE SMOOTH",
"185 61 OFFCURVE",
"121 78 OFFCURVE",
"54 113 CURVE",
"54 20 LINE",
"125 -3 OFFCURVE",
"187 -14 OFFCURVE",
"246 -14 CURVE SMOOTH"
);
}
);
width = 521;
},
{
layerId = "5297CC84-2E5E-44C2-8BD8-B52BBF62A592";
paths = (
{
closed = 1;
nodes = (
"462 -14 OFFCURVE",
"548 45 OFFCURVE",
"548 161 CURVE SMOOTH",
"548 273 OFFCURVE",
"500 317 OFFCURVE",
"321 340 CURVE SMOOTH",
"290 344 LINE SMOOTH",
"259 348 OFFCURVE",
"237 354 OFFCURVE",
"225 361 CURVE SMOOTH",
"212 368 OFFCURVE",
"206 379 OFFCURVE",
"206 393 CURVE SMOOTH",
"206 428 OFFCURVE",
"237 444 OFFCURVE",
"304 444 CURVE SMOOTH",
"367 444 OFFCURVE",
"436 428 OFFCURVE",
"511 397 CURVE",
"511 530 LINE",
"428 550 OFFCURVE",
"358 560 OFFCURVE",
"294 560 CURVE SMOOTH",
"130 560 OFFCURVE",
"52 505 OFFCURVE",
"52 389 CURVE SMOOTH",
"52 282 OFFCURVE",
"107 234 OFFCURVE",
"262 215 CURVE SMOOTH",
"293 211 LINE SMOOTH",
"328 207 OFFCURVE",
"352 201 OFFCURVE",
"364 194 CURVE",
"376 186 OFFCURVE",
"382 174 OFFCURVE",
"382 158 CURVE SMOOTH",
"382 121 OFFCURVE",
"347 102 OFFCURVE",
"279 102 CURVE SMOOTH",
"203 102 OFFCURVE",
"129 118 OFFCURVE",
"60 153 CURVE",
"60 20 LINE",
"141 -3 OFFCURVE",
"219 -14 OFFCURVE",
"291 -14 CURVE SMOOTH"
);
}
);
width = 595;
},
{
layerId = "79D829DC-9C66-44C2-8B43-D291CF08F0E9";
paths = (
{
closed = 1;
nodes = (
"357 -14 OFFCURVE",
"458 66 OFFCURVE",
"458 182 CURVE SMOOTH",
"458 245 OFFCURVE",
"428 276 OFFCURVE",
"308 309 CURVE SMOOTH",
"279 318 LINE SMOOTH",
"277 319 OFFCURVE",
"274 320 OFFCURVE",
"269 321 CURVE SMOOTH",
"206 338 OFFCURVE",
"174 363 OFFCURVE",
"174 395 CURVE SMOOTH",
"174 451 OFFCURVE",
"231 485 OFFCURVE",
"326 485 CURVE SMOOTH",
"382 485 OFFCURVE",
"435 471 OFFCURVE",
"483 446 CURVE",
"500 531 LINE",
"445 550 OFFCURVE",
"390 560 OFFCURVE",
"330 560 CURVE SMOOTH",
"179 560 OFFCURVE",
"86 487 OFFCURVE",
"86 370 CURVE SMOOTH",
"86 309 OFFCURVE",
"126 271 OFFCURVE",
"218 247 CURVE SMOOTH",
"249 239 LINE",
"258 237 LINE",
"330 218 OFFCURVE",
"366 192 OFFCURVE",
"366 161 CURVE SMOOTH",
"366 104 OFFCURVE",
"306 61 OFFCURVE",
"218 61 CURVE SMOOTH",
"159 61 OFFCURVE",
"94 78 OFFCURVE",
"29 113 CURVE",
"11 20 LINE",
"88 -4 OFFCURVE",
"151 -14 OFFCURVE",
"208 -14 CURVE SMOOTH"
);
}
);
width = 521;
},
{
layerId = "D5B43B4B-63DF-4B35-BEE3-B41B34784265";
paths = (
{
closed = 1;
nodes = (
"423 -14 OFFCURVE",
"528 61 OFFCURVE",
"528 188 CURVE SMOOTH",
"528 272 OFFCURVE",
"478 315 OFFCURVE",
"337 344 CURVE SMOOTH",
"305 350 LINE SMOOTH",
"274 357 OFFCURVE",
"254 363 OFFCURVE",
"244 369 CURVE SMOOTH",
"233 374 OFFCURVE",
"228 382 OFFCURVE",
"228 392 CURVE SMOOTH",
"228 425 OFFCURVE",
"267 444 OFFCURVE",
"336 444 CURVE SMOOTH",
"396 444 OFFCURVE",
"466 426 OFFCURVE",
"534 394 CURVE",
"560 530 LINE",
"487 550 OFFCURVE",
"415 560 OFFCURVE",
"340 560 CURVE SMOOTH",
"168 560 OFFCURVE",
"73 491 OFFCURVE",
"73 370 CURVE SMOOTH",
"73 281 OFFCURVE",
"122 234 OFFCURVE",
"247 207 CURVE SMOOTH",
"279 201 LINE SMOOTH",
"312 194 OFFCURVE",
"333 188 OFFCURVE",
"344 181 CURVE SMOOTH",
"354 174 OFFCURVE",
"359 165 OFFCURVE",
"359 154 CURVE SMOOTH",
"359 137 OFFCURVE",
"350 124 OFFCURVE",
"331 115 CURVE SMOOTH",
"312 106 OFFCURVE",
"285 102 OFFCURVE",
"248 102 CURVE SMOOTH",
"172 102 OFFCURVE",
"99 121 OFFCURVE",
"36 158 CURVE",
"10 21 LINE",
"91 -3 OFFCURVE",
"169 -14 OFFCURVE",
"244 -14 CURVE SMOOTH"
);
}
);
width = 595;
}
);
leftKerningGroup = s;
note = s;
unicode = 0073;
},
{
export = 0;
glyphname = t;
layers = (
{
layerId = "EB88A49E-561A-4405-9552-C71224CBA53C";
paths = (
{
closed = 1;
nodes = (
"368 0 LINE",
"368 75 LINE",
"276 75 LINE SMOOTH",
"201 75 OFFCURVE",
"183 91 OFFCURVE",
"183 180 CURVE SMOOTH",
"183 477 LINE",
"368 477 LINE",
"368 547 LINE",
"183 547 LINE",
"183 702 LINE",
"93 702 LINE",
"93 547 LINE",
"27 547 LINE",
"27 477 LINE",
"93 477 LINE",
"93 180 LINE SMOOTH",
"93 44 OFFCURVE",
"137 0 OFFCURVE",
"276 0 CURVE SMOOTH"
);
}
);
width = 392;
},
{
layerId = "5297CC84-2E5E-44C2-8BD8-B52BBF62A592";
paths = (
{
closed = 1;
nodes = (
"440 0 LINE",
"440 125 LINE",
"350 125 LINE SMOOTH",
"290 125 OFFCURVE",
"275 139 OFFCURVE",
"275 190 CURVE SMOOTH",
"275 422 LINE",
"455 422 LINE",
"455 547 LINE",
"275 547 LINE",
"275 702 LINE",
"100 702 LINE",
"100 547 LINE",
"13 547 LINE",
"13 422 LINE",
"100 422 LINE",
"100 190 LINE SMOOTH",
"100 51 OFFCURVE",
"153 0 OFFCURVE",
"290 0 CURVE SMOOTH"
);
}
);
width = 478;
},
{
layerId = "79D829DC-9C66-44C2-8B43-D291CF08F0E9";
paths = (
{
closed = 1;
nodes = (
"321 0 LINE",
"336 75 LINE",
"245 75 LINE SMOOTH",
"190 75 OFFCURVE",
"166 94 OFFCURVE",
"166 135 CURVE SMOOTH",
"166 143 OFFCURVE",
"168 159 OFFCURVE",
"172 180 CURVE SMOOTH",
"230 477 LINE",
"409 477 LINE",
"423 547 LINE",
"243 547 LINE",
"273 702 LINE",
"183 702 LINE",
"153 547 LINE",
"78 547 LINE",
"64 477 LINE",
"140 477 LINE",
"82 180 LINE SMOOTH",
"78 159 OFFCURVE",
"76 141 OFFCURVE",
"76 126 CURVE SMOOTH",
"76 42 OFFCURVE",
"128 0 OFFCURVE",
"235 0 CURVE SMOOTH"
);
}
);
width = 392;
},
{
layerId = "D5B43B4B-63DF-4B35-BEE3-B41B34784265";
paths = (
{
closed = 1;
nodes = (
"387 0 LINE",
"412 125 LINE",
"322 125 LINE SMOOTH",
"275 125 OFFCURVE",
"257 138 OFFCURVE",
"257 167 CURVE SMOOTH",
"257 174 OFFCURVE",
"257 181 OFFCURVE",
"260 190 CURVE",
"305 422 LINE",
"484 422 LINE",
"509 547 LINE",
"330 547 LINE",
"360 702 LINE",
"184 702 LINE",
"154 547 LINE",
"67 547 LINE",
"43 422 LINE",
"129 422 LINE",
"84 190 LINE SMOOTH",
"80 169 OFFCURVE",
"78 148 OFFCURVE",
"78 129 CURVE SMOOTH",
"78 45 OFFCURVE",
"135 0 OFFCURVE",
"240 0 CURVE SMOOTH"
);
}
);
width = 478;
}
);
leftKerningGroup = t;
note = t;
unicode = 0074;
},
{
export = 0;
glyphname = u;
layers = (
{
layerId = "EB88A49E-561A-4405-9552-C71224CBA53C";
paths = (
{
closed = 1;
nodes = (
"353 -14 OFFCURVE",
"409 17 OFFCURVE",
"453 84 CURVE",
"453 0 LINE",
"543 0 LINE",
"543 547 LINE",
"453 547 LINE",
"453 237 LINE SMOOTH",
"453 130 OFFCURVE",
"393 64 OFFCURVE",
"296 64 CURVE SMOOTH",
"215 64 OFFCURVE",
"175 116 OFFCURVE",
"175 219 CURVE SMOOTH",
"175 547 LINE",
"85 547 LINE",
"85 216 LINE SMOOTH",
"85 65 OFFCURVE",
"152 -14 OFFCURVE",
"277 -14 CURVE SMOOTH"
);
}
);
width = 634;
},
{
layerId = "5297CC84-2E5E-44C2-8BD8-B52BBF62A592";
paths = (
{
closed = 1;
nodes = (
"343 -14 OFFCURVE",
"401 15 OFFCURVE",
"453 79 CURVE",
"453 0 LINE",
"628 0 LINE",
"628 547 LINE",
"453 547 LINE",
"453 277 LINE SMOOTH",
"453 177 OFFCURVE",
"409 118 OFFCURVE",
"336 118 CURVE SMOOTH",
"305 118 OFFCURVE",
"283 131 OFFCURVE",
"268 154 CURVE",
"263 163 OFFCURVE",
"259 177 OFFCURVE",
"257 196 CURVE",
"254 215 OFFCURVE",
"253 247 OFFCURVE",
"253 291 CURVE SMOOTH",
"253 306 OFFCURVE",
"253 336 OFFCURVE",
"254 381 CURVE SMOOTH",
"254 492 LINE",
"254 547 LINE",
"78 547 LINE",
"78 213 LINE SMOOTH",
"78 65 OFFCURVE",
"145 -14 OFFCURVE",
"272 -14 CURVE SMOOTH"
);
}
);
width = 712;
},
{
layerId = "79D829DC-9C66-44C2-8B43-D291CF08F0E9";
paths = (
{
closed = 1;
nodes = (
"288 -14 OFFCURVE",
"360 22 OFFCURVE",
"411 86 CURVE",
"393 0 LINE",
"483 0 LINE",
"589 547 LINE",
"499 547 LINE",
"439 244 LINE SMOOTH",
"418 135 OFFCURVE",
"341 64 OFFCURVE",
"245 64 CURVE SMOOTH",
"184 64 OFFCURVE",
"148 95 OFFCURVE",
"148 151 CURVE SMOOTH",
"148 166 OFFCURVE",
"150 188 OFFCURVE",
"157 220 CURVE SMOOTH",
"221 547 LINE",
"131 547 LINE",
"67 217 LINE SMOOTH",
"60 185 OFFCURVE",
"57 154 OFFCURVE",
"57 135 CURVE SMOOTH",
"57 40 OFFCURVE",
"113 -14 OFFCURVE",
"209 -14 CURVE SMOOTH"
);
}
);
width = 634;
},
{
layerId = "D5B43B4B-63DF-4B35-BEE3-B41B34784265";
paths = (
{
closed = 1;
nodes = (
"289 -14 OFFCURVE",
"355 17 OFFCURVE",
"415 80 CURVE",
"399 0 LINE",
"575 0 LINE",
"681 547 LINE",
"506 547 LINE",
"453 278 LINE SMOOTH",
"433 178 OFFCURVE",
"378 119 OFFCURVE",
"306 119 CURVE SMOOTH",
"263 119 OFFCURVE",
"240 143 OFFCURVE",
"240 184 CURVE SMOOTH",
"240 199 OFFCURVE",
"244 225 OFFCURVE",
"252 262 CURVE SMOOTH",
"307 547 LINE",
"132 547 LINE",
"68 213 LINE SMOOTH",
"63 185 OFFCURVE",
"60 160 OFFCURVE",
"60 137 CURVE SMOOTH",
"60 41 OFFCURVE",
"117 -14 OFFCURVE",
"217 -14 CURVE SMOOTH"
);
}
);
width = 712;
}
);
leftKerningGroup = u;
note = u;
unicode = 0075;
},
{
export = 0;
glyphname = v;
layers = (
{
layerId = "EB88A49E-561A-4405-9552-C71224CBA53C";
paths = (
{
closed = 1;
nodes = (
"357 0 LINE",
"562 547 LINE",
"467 547 LINE",
"296 88 LINE",
"125 547 LINE",
"30 547 LINE",
"235 0 LINE"
);
}
);
width = 592;
},
{
layerId = "5297CC84-2E5E-44C2-8BD8-B52BBF62A592";
paths = (
{
closed = 1;
nodes = (
"422 0 LINE",
"637 547 LINE",
"462 547 LINE",
"326 169 LINE",
"190 547 LINE",
"15 547 LINE",
"230 0 LINE"
);
}
);
width = 652;
},
{
layerId = "79D829DC-9C66-44C2-8B43-D291CF08F0E9";
paths = (
{
closed = 1;
nodes = (
"293 0 LINE",
"604 547 LINE",
"509 547 LINE",
"247 82 LINE",
"167 547 LINE",
"72 547 LINE",
"172 0 LINE"
);
}
);
width = 592;
},
{
layerId = "D5B43B4B-63DF-4B35-BEE3-B41B34784265";
paths = (
{
closed = 1;
nodes = (
"357 0 LINE",
"678 547 LINE",
"501 547 LINE",
"295 165 LINE",
"224 547 LINE",
"63 547 LINE",
"172 0 LINE"
);
}
);
width = 652;
}
);
leftKerningGroup = v;
note = v;
rightKerningGroup = v;
unicode = 0076;
},
{
export = 0;
glyphname = w;
layers = (
{
layerId = "EB88A49E-561A-4405-9552-C71224CBA53C";
paths = (
{
closed = 1;
nodes = (
"291 0 LINE",
"409 448 LINE",
"527 0 LINE",
"633 0 LINE",
"776 547 LINE",
"686 547 LINE",
"574 120 LINE",
"462 547 LINE",
"356 547 LINE",
"244 120 LINE",
"132 547 LINE",
"42 547 LINE",
"185 0 LINE"
);
}
);
width = 818;
},
{
layerId = "5297CC84-2E5E-44C2-8BD8-B52BBF62A592";
paths = (
{
closed = 1;
nodes = (
"370 0 LINE",
"462 376 LINE",
"554 0 LINE",
"745 0 LINE",
"889 547 LINE",
"719 547 LINE",
"627 174 LINE",
"535 547 LINE",
"389 547 LINE",
"297 170 LINE",
"205 547 LINE",
"35 547 LINE",
"179 0 LINE"
);
}
);
width = 924;
},
{
layerId = "79D829DC-9C66-44C2-8B43-D291CF08F0E9";
paths = (
{
closed = 1;
nodes = (
"228 0 LINE",
"437 453 LINE",
"464 0 LINE",
"569 0 LINE",
"819 547 LINE",
"729 547 LINE",
"535 107 LINE",
"505 547 LINE",
"401 547 LINE",
"197 107 LINE",
"174 547 LINE",
"85 547 LINE",
"122 0 LINE"
);
}
);
width = 818;
},
{
layerId = "D5B43B4B-63DF-4B35-BEE3-B41B34784265";
paths = (
{
closed = 1;
nodes = (
"306 0 LINE",
"473 376 LINE",
"491 0 LINE",
"677 0 LINE",
"927 547 LINE",
"755 547 LINE",
"591 172 LINE",
"571 547 LINE",
"432 547 LINE",
"267 171 LINE",
"248 547 LINE",
"87 547 LINE",
"125 0 LINE"
);
}
);
width = 924;
}
);
leftKerningGroup = w;
note = w;
rightKerningGroup = w;
unicode = 0077;
},
{
export = 0;
glyphname = x;
layers = (
{
layerId = "EB88A49E-561A-4405-9552-C71224CBA53C";
paths = (
{
closed = 1;
nodes = (
"135 0 LINE",
"294 215 LINE",
"453 0 LINE",
"559 0 LINE",
"351 281 LINE",
"549 547 LINE",
"443 547 LINE",
"298 352 LINE",
"153 547 LINE",
"47 547 LINE",
"241 286 LINE",
"29 0 LINE"
);
}
);
width = 592;
},
{
layerId = "5297CC84-2E5E-44C2-8BD8-B52BBF62A592";
paths = (
{
closed = 1;
nodes = (
"200 0 LINE",
"322 173 LINE",
"445 0 LINE",
"630 0 LINE",
"423 281 LINE",
"620 547 LINE",
"435 547 LINE",
"322 385 LINE",
"210 547 LINE",
"25 547 LINE",
"222 280 LINE",
"15 0 LINE"
);
}
);
width = 645;
},
{
layerId = "79D829DC-9C66-44C2-8B43-D291CF08F0E9";
paths = (
{
closed = 1;
nodes = (
"83 0 LINE",
"284 217 LINE",
"400 0 LINE",
"503 0 LINE",
"349 279 LINE",
"600 547 LINE",
"491 547 LINE",
"308 349 LINE",
"203 547 LINE",
"100 547 LINE",
"243 288 LINE",
"-26 0 LINE"
);
}
);
width = 592;
},
{
layerId = "D5B43B4B-63DF-4B35-BEE3-B41B34784265";
paths = (
{
closed = 1;
nodes = (
"149 0 LINE",
"306 173 LINE",
"392 0 LINE",
"574 0 LINE",
"422 281 LINE",
"671 547 LINE",
"481 547 LINE",
"339 385 LINE",
"258 547 LINE",
"76 547 LINE",
"221 280 LINE",
"-41 0 LINE"
);
}
);
width = 645;
}
);
leftKerningGroup = x;
note = x;
rightKerningGroup = x;
unicode = 0078;
},
{
export = 0;
glyphname = y;
layers = (
{
layerId = "EB88A49E-561A-4405-9552-C71224CBA53C";
paths = (
{
closed = 1;
nodes = (
"151 -208 LINE SMOOTH",
"231 -208 OFFCURVE",
"271 -180 OFFCURVE",
"322 -51 CURVE SMOOTH",
"562 547 LINE",
"467 547 LINE",
"296 119 LINE",
"125 547 LINE",
"30 547 LINE",
"251 9 LINE",
"235 -32 LINE SMOOTH",
"202 -120 OFFCURVE",
"181 -133 OFFCURVE",
"132 -133 CURVE SMOOTH",
"79 -133 LINE",
"79 -208 LINE"
);
}
);
width = 592;
},
{
layerId = "5297CC84-2E5E-44C2-8BD8-B52BBF62A592";
paths = (
{
closed = 1;
nodes = (
"201 -216 LINE SMOOTH",
"302 -216 OFFCURVE",
"357 -173 OFFCURVE",
"404 -52 CURVE SMOOTH",
"634 547 LINE",
"459 547 LINE",
"334 176 LINE",
"187 547 LINE",
"12 547 LINE",
"256 -21 LINE",
"251 -36 LINE SMOOTH",
"236 -85 OFFCURVE",
"214 -101 OFFCURVE",
"155 -101 CURVE SMOOTH",
"100 -101 LINE",
"100 -216 LINE"
);
}
);
width = 652;
},
{
layerId = "79D829DC-9C66-44C2-8B43-D291CF08F0E9";
paths = (
{
closed = 1;
nodes = (
"46 -208 LINE SMOOTH",
"127 -208 OFFCURVE",
"165 -191 OFFCURVE",
"248 -51 CURVE SMOOTH",
"603 547 LINE",
"509 547 LINE",
"258 128 LINE",
"167 547 LINE",
"72 547 LINE",
"193 20 LINE",
"165 -32 LINE SMOOTH",
"121 -112 OFFCURVE",
"93 -133 OFFCURVE",
"42 -133 CURVE SMOOTH",
"-10 -133 LINE",
"-25 -208 LINE"
);
}
);
width = 592;
},
{
layerId = "D5B43B4B-63DF-4B35-BEE3-B41B34784265";
paths = (
{
closed = 1;
nodes = (
"106 -216 LINE SMOOTH",
"210 -216 OFFCURVE",
"264 -187 OFFCURVE",
"341 -52 CURVE SMOOTH",
"687 547 LINE",
"500 547 LINE",
"306 168 LINE",
"231 547 LINE",
"66 547 LINE",
"198 -7 LINE",
"182 -36 LINE",
"158 -84 OFFCURVE",
"130 -101 OFFCURVE",
"73 -101 CURVE SMOOTH",
"18 -101 LINE",
"0 -216 LINE"
);
}
);
width = 652;
}
);
leftKerningGroup = y;
note = y;
rightKerningGroup = y;
unicode = 0079;
},
{
export = 0;
glyphname = y.alt;
layers = (
{
layerId = "EB88A49E-561A-4405-9552-C71224CBA53C";
paths = (
{
closed = 1;
nodes = (
"462 -208 OFFCURVE",
"543 -119 OFFCURVE",
"543 68 CURVE SMOOTH",
"543 547 LINE",
"453 547 LINE",
"453 237 LINE SMOOTH",
"453 130 OFFCURVE",
"393 64 OFFCURVE",
"296 64 CURVE SMOOTH",
"215 64 OFFCURVE",
"175 116 OFFCURVE",
"175 219 CURVE SMOOTH",
"175 547 LINE",
"85 547 LINE",
"85 216 LINE SMOOTH",
"85 65 OFFCURVE",
"152 -14 OFFCURVE",
"277 -14 CURVE SMOOTH",
"353 -14 OFFCURVE",
"409 17 OFFCURVE",
"453 84 CURVE",
"453 52 LINE SMOOTH",
"453 -73 OFFCURVE",
"394 -134 OFFCURVE",
"277 -134 CURVE SMOOTH",
"224 -134 OFFCURVE",
"173 -120 OFFCURVE",
"120 -92 CURVE",
"120 -179 LINE",
"173 -199 OFFCURVE",
"228 -208 OFFCURVE",
"291 -208 CURVE SMOOTH"
);
}
);
width = 634;
},
{
layerId = "5297CC84-2E5E-44C2-8BD8-B52BBF62A592";
paths = (
{
closed = 1;
nodes = (
"514 -216 OFFCURVE",
"628 -121 OFFCURVE",
"628 55 CURVE SMOOTH",
"628 547 LINE",
"453 547 LINE",
"453 277 LINE SMOOTH",
"453 177 OFFCURVE",
"409 118 OFFCURVE",
"336 118 CURVE SMOOTH",
"305 118 OFFCURVE",
"283 131 OFFCURVE",
"268 154 CURVE SMOOTH",
"263 163 OFFCURVE",
"259 177 OFFCURVE",
"257 196 CURVE SMOOTH",
"254 215 OFFCURVE",
"253 247 OFFCURVE",
"253 291 CURVE SMOOTH",
"253 306 OFFCURVE",
"253 336 OFFCURVE",
"254 381 CURVE SMOOTH",
"254 426 OFFCURVE",
"254 463 OFFCURVE",
"254 492 CURVE SMOOTH",
"254 547 LINE",
"78 547 LINE",
"78 213 LINE SMOOTH",
"78 65 OFFCURVE",
"145 -14 OFFCURVE",
"272 -14 CURVE SMOOTH",
"343 -14 OFFCURVE",
"401 15 OFFCURVE",
"453 79 CURVE",
"453 55 LINE SMOOTH",
"453 -52 OFFCURVE",
"401 -100 OFFCURVE",
"286 -100 CURVE SMOOTH",
"227 -100 OFFCURVE",
"169 -83 OFFCURVE",
"108 -48 CURVE",
"108 -184 LINE",
"172 -205 OFFCURVE",
"235 -216 OFFCURVE",
"303 -216 CURVE SMOOTH"
);
}
);
width = 712;
},
{
layerId = "79D829DC-9C66-44C2-8B43-D291CF08F0E9";
paths = (
{
closed = 1;
nodes = (
"360 -208 OFFCURVE",
"460 -117 OFFCURVE",
"496 68 CURVE SMOOTH",
"589 547 LINE",
"499 547 LINE",
"439 244 LINE SMOOTH",
"418 135 OFFCURVE",
"341 64 OFFCURVE",
"245 64 CURVE SMOOTH",
"184 64 OFFCURVE",
"148 95 OFFCURVE",
"148 151 CURVE SMOOTH",
"148 166 OFFCURVE",
"150 188 OFFCURVE",
"157 220 CURVE SMOOTH",
"221 547 LINE",
"131 547 LINE",
"67 217 LINE SMOOTH",
"60 185 OFFCURVE",
"57 154 OFFCURVE",
"57 135 CURVE SMOOTH",
"57 40 OFFCURVE",
"113 -14 OFFCURVE",
"209 -14 CURVE SMOOTH",
"288 -14 OFFCURVE",
"360 22 OFFCURVE",
"411 86 CURVE",
"404 47 LINE SMOOTH",
"381 -70 OFFCURVE",
"306 -134 OFFCURVE",
"191 -134 CURVE SMOOTH",
"135 -134 OFFCURVE",
"86 -120 OFFCURVE",
"42 -92 CURVE",
"25 -179 LINE",
"73 -199 OFFCURVE",
"126 -208 OFFCURVE",
"189 -208 CURVE SMOOTH"
);
}
);
width = 634;
},
{
layerId = "D5B43B4B-63DF-4B35-BEE3-B41B34784265";
paths = (
{
closed = 1;
nodes = (
"430 -216 OFFCURVE",
"552 -124 OFFCURVE",
"589 72 CURVE SMOOTH",
"681 547 LINE",
"506 547 LINE",
"453 278 LINE SMOOTH",
"433 178 OFFCURVE",
"378 119 OFFCURVE",
"306 119 CURVE SMOOTH",
"263 119 OFFCURVE",
"240 143 OFFCURVE",
"240 184 CURVE SMOOTH",
"240 191 OFFCURVE",
"241 202 OFFCURVE",
"243 215 CURVE",
"244 221 OFFCURVE",
"247 237 OFFCURVE",
"252 262 CURVE SMOOTH",
"307 547 LINE",
"132 547 LINE",
"68 213 LINE SMOOTH",
"65 199 OFFCURVE",
"63 186 OFFCURVE",
"62 173 CURVE SMOOTH",
"61 160 OFFCURVE",
"60 148 OFFCURVE",
"60 137 CURVE SMOOTH",
"60 41 OFFCURVE",
"117 -14 OFFCURVE",
"217 -14 CURVE SMOOTH",
"289 -14 OFFCURVE",
"355 17 OFFCURVE",
"415 80 CURVE",
"409 55 LINE",
"388 -53 OFFCURVE",
"329 -100 OFFCURVE",
"213 -100 CURVE SMOOTH",
"154 -100 OFFCURVE",
"100 -83 OFFCURVE",
"45 -48 CURVE",
"19 -184 LINE",
"80 -205 OFFCURVE",
"142 -216 OFFCURVE",
"210 -216 CURVE SMOOTH"
);
}
);
width = 712;
}
);
note = y.alt;
},
{
export = 0;
glyphname = z;
layers = (
{
layerId = "EB88A49E-561A-4405-9552-C71224CBA53C";
paths = (
{
closed = 1;
nodes = (
"482 0 LINE",
"482 72 LINE",
"144 72 LINE",
"482 465 LINE",
"482 547 LINE",
"55 547 LINE",
"55 475 LINE",
"381 475 LINE",
"43 82 LINE",
"43 0 LINE"
);
}
);
width = 525;
},
{
layerId = "5297CC84-2E5E-44C2-8BD8-B52BBF62A592";
paths = (
{
closed = 1;
nodes = (
"534 0 LINE",
"534 125 LINE",
"246 125 LINE",
"534 425 LINE",
"534 547 LINE",
"57 547 LINE",
"57 422 LINE",
"333 422 LINE",
"45 122 LINE",
"45 0 LINE"
);
}
);
width = 582;
},
{
layerId = "79D829DC-9C66-44C2-8B43-D291CF08F0E9";
paths = (
{
closed = 1;
nodes = (
"441 0 LINE",
"455 72 LINE",
"115 72 LINE",
"527 465 LINE",
"543 547 LINE",
"116 547 LINE",
"102 475 LINE",
"425 475 LINE",
"13 82 LINE",
"-3 0 LINE"
);
}
);
width = 525;
},
{
layerId = "D5B43B4B-63DF-4B35-BEE3-B41B34784265";
paths = (
{
closed = 1;
nodes = (
"480 0 LINE",
"504 125 LINE",
"221 125 LINE",
"562 425 LINE",
"586 547 LINE",
"109 547 LINE",
"85 422 LINE",
"356 422 LINE",
"14 122 LINE",
"-9 0 LINE"
);
}
);
width = 582;
}
);
note = z;
unicode = 007A;
},
{
export = 0;
glyphname = zero;
layers = (
{
layerId = "EB88A49E-561A-4405-9552-C71224CBA53C";
paths = (
{
closed = 1;
nodes = (
"481 -14 OFFCURVE",
"570 119 OFFCURVE",
"570 364 CURVE SMOOTH",
"570 609 OFFCURVE",
"481 742 OFFCURVE",
"318 742 CURVE SMOOTH",
"154 742 OFFCURVE",
"66 609 OFFCURVE",
"66 364 CURVE SMOOTH",
"66 119 OFFCURVE",
"154 -14 OFFCURVE",
"318 -14 CURVE SMOOTH"
);
},
{
closed = 1;
nodes = (
"217 64 OFFCURVE",
"165 164 OFFCURVE",
"165 364 CURVE SMOOTH",
"165 564 OFFCURVE",
"217 664 OFFCURVE",
"318 664 CURVE SMOOTH",
"421 664 OFFCURVE",
"471 564 OFFCURVE",
"471 364 CURVE SMOOTH",
"471 164 OFFCURVE",
"421 64 OFFCURVE",
"318 64 CURVE SMOOTH"
);
}
);
width = 636;
},
{
layerId = "5297CC84-2E5E-44C2-8BD8-B52BBF62A592";
paths = (
{
closed = 1;
nodes = (
"540 -14 OFFCURVE",
"648 123 OFFCURVE",
"648 364 CURVE SMOOTH",
"648 605 OFFCURVE",
"540 742 OFFCURVE",
"348 742 CURVE SMOOTH",
"156 742 OFFCURVE",
"48 605 OFFCURVE",
"48 364 CURVE SMOOTH",
"48 123 OFFCURVE",
"156 -14 OFFCURVE",
"348 -14 CURVE SMOOTH"
);
},
{
closed = 1;
nodes = (
"308 114 OFFCURVE",
"279 133 OFFCURVE",
"262 171 CURVE SMOOTH",
"245 208 OFFCURVE",
"236 273 OFFCURVE",
"236 365 CURVE SMOOTH",
"236 456 OFFCURVE",
"245 521 OFFCURVE",
"262 558 CURVE SMOOTH",
"279 595 OFFCURVE",
"308 614 OFFCURVE",
"348 614 CURVE SMOOTH",
"389 614 OFFCURVE",
"418 595 OFFCURVE",
"435 558 CURVE SMOOTH",
"452 521 OFFCURVE",
"460 456 OFFCURVE",
"460 365 CURVE SMOOTH",
"460 273 OFFCURVE",
"451 208 OFFCURVE",
"434 171 CURVE SMOOTH",
"417 133 OFFCURVE",
"388 114 OFFCURVE",
"348 114 CURVE SMOOTH"
);
}
);
width = 696;
},
{
layerId = "79D829DC-9C66-44C2-8B43-D291CF08F0E9";
paths = (
{
closed = 1;
nodes = (
"349 -14 OFFCURVE",
"432 38 OFFCURVE",
"492 135 CURVE SMOOTH",
"552 232 OFFCURVE",
"586 362 OFFCURVE",
"586 487 CURVE SMOOTH",
"586 651 OFFCURVE",
"514 742 OFFCURVE",
"382 742 CURVE SMOOTH",
"287 742 OFFCURVE",
"205 690 OFFCURVE",
"145 593 CURVE SMOOTH",
"85 496 OFFCURVE",
"50 365 OFFCURVE",
"50 241 CURVE SMOOTH",
"50 78 OFFCURVE",
"122 -14 OFFCURVE",
"250 -14 CURVE SMOOTH"
);
},
{
closed = 1;
nodes = (
"185 64 OFFCURVE",
"147 119 OFFCURVE",
"147 227 CURVE SMOOTH",
"147 363 OFFCURVE",
"185 499 OFFCURVE",
"245 586 CURVE SMOOTH",
"281 638 OFFCURVE",
"327 664 OFFCURVE",
"376 664 CURVE SMOOTH",
"451 664 OFFCURVE",
"489 609 OFFCURVE",
"489 501 CURVE SMOOTH",
"489 365 OFFCURVE",
"452 227 OFFCURVE",
"392 142 CURVE SMOOTH",
"356 91 OFFCURVE",
"312 64 OFFCURVE",
"260 64 CURVE SMOOTH"
);
}
);
width = 636;
},
{
layerId = "D5B43B4B-63DF-4B35-BEE3-B41B34784265";
paths = (
{
closed = 1;
nodes = (
"398 -14 OFFCURVE",
"493 35 OFFCURVE",
"558 130 CURVE SMOOTH",
"622 222 OFFCURVE",
"660 351 OFFCURVE",
"660 480 CURVE SMOOTH",
"660 648 OFFCURVE",
"572 742 OFFCURVE",
"413 742 CURVE SMOOTH",
"297 742 OFFCURVE",
"205 693 OFFCURVE",
"137 597 CURVE SMOOTH",
"73 506 OFFCURVE",
"36 377 OFFCURVE",
"36 249 CURVE SMOOTH",
"36 80 OFFCURVE",
"124 -14 OFFCURVE",
"283 -14 CURVE SMOOTH"
);
},
{
closed = 1;
nodes = (
"244 114 OFFCURVE",
"218 148 OFFCURVE",
"218 220 CURVE SMOOTH",
"218 255 OFFCURVE",
"224 306 OFFCURVE",
"235 365 CURVE SMOOTH",
"247 429 OFFCURVE",
"263 483 OFFCURVE",
"282 526 CURVE SMOOTH",
"307 585 OFFCURVE",
"346 614 OFFCURVE",
"397 614 CURVE SMOOTH",
"452 614 OFFCURVE",
"477 581 OFFCURVE",
"477 508 CURVE SMOOTH",
"477 473 OFFCURVE",
"471 424 OFFCURVE",
"460 365 CURVE SMOOTH",
"447 294 OFFCURVE",
"433 243 OFFCURVE",
"414 202 CURVE SMOOTH",
"389 145 OFFCURVE",
"348 114 OFFCURVE",
"299 114 CURVE SMOOTH"
);
}
);
width = 696;
}
);
note = zero;
unicode = 0030;
},
{
export = 0;
glyphname = one;
layers = (
{
layerId = "EB88A49E-561A-4405-9552-C71224CBA53C";
paths = (
{
closed = 1;
nodes = (
"544 0 LINE",
"544 83 LINE",
"383 83 LINE",
"383 729 LINE",
"284 729 LINE",
"110 694 LINE",
"110 604 LINE",
"285 639 LINE",
"285 83 LINE",
"124 83 LINE",
"124 0 LINE"
);
}
);
width = 636;
},
{
layerId = "5297CC84-2E5E-44C2-8BD8-B52BBF62A592";
paths = (
{
closed = 1;
nodes = (
"627 0 LINE",
"627 130 LINE",
"461 130 LINE",
"461 729 LINE",
"282 729 LINE",
"113 694 LINE",
"113 566 LINE",
"283 601 LINE",
"283 130 LINE",
"117 130 LINE",
"117 0 LINE"
);
}
);
width = 696;
},
{
layerId = "79D829DC-9C66-44C2-8B43-D291CF08F0E9";
paths = (
{
closed = 1;
nodes = (
"469 0 LINE",
"485 83 LINE",
"324 83 LINE",
"450 729 LINE",
"351 729 LINE",
"170 694 LINE",
"153 609 LINE",
"335 644 LINE",
"226 83 LINE",
"65 83 LINE",
"49 0 LINE"
);
}
);
width = 636;
},
{
layerId = "D5B43B4B-63DF-4B35-BEE3-B41B34784265";
paths = (
{
closed = 1;
nodes = (
"553 0 LINE",
"578 130 LINE",
"413 130 LINE",
"529 729 LINE",
"350 729 LINE",
"174 694 LINE",
"149 566 LINE",
"326 601 LINE",
"235 130 LINE",
"69 130 LINE",
"43 0 LINE"
);
}
);
width = 696;
}
);
note = one;
unicode = 0031;
},
{
export = 0;
glyphname = two;
layers = (
{
layerId = "EB88A49E-561A-4405-9552-C71224CBA53C";
paths = (
{
closed = 1;
nodes = (
"536 0 LINE",
"536 83 LINE",
"192 83 LINE",
"377 273 LINE SMOOTH",
"420 318 OFFCURVE",
"446 345 OFFCURVE",
"454 354 CURVE",
"514 427 OFFCURVE",
"532 474 OFFCURVE",
"532 534 CURVE SMOOTH",
"532 661 OFFCURVE",
"435 742 OFFCURVE",
"284 742 CURVE SMOOTH",
"227 742 OFFCURVE",
"158 726 OFFCURVE",
"78 694 CURVE",
"78 594 LINE",
"157 638 OFFCURVE",
"225 659 OFFCURVE",
"286 659 CURVE SMOOTH",
"374 659 OFFCURVE",
"433 605 OFFCURVE",
"433 528 CURVE SMOOTH",
"433 480 OFFCURVE",
"412 436 OFFCURVE",
"348 365 CURVE SMOOTH",
"331 346 OFFCURVE",
"291 304 OFFCURVE",
"226 239 CURVE SMOOTH",
"161 174 OFFCURVE",
"110 122 OFFCURVE",
"73 83 CURVE",
"73 0 LINE"
);
}
);
width = 636;
},
{
layerId = "5297CC84-2E5E-44C2-8BD8-B52BBF62A592";
paths = (
{
closed = 1;
nodes = (
"609 0 LINE",
"609 138 LINE",
"288 138 LINE",
"444 275 LINE SMOOTH",
"575 390 OFFCURVE",
"604 444 OFFCURVE",
"604 524 CURVE SMOOTH",
"604 661 OFFCURVE",
"503 742 OFFCURVE",
"328 742 CURVE SMOOTH",
"249 742 OFFCURVE",
"166 727 OFFCURVE",
"81 699 CURVE",
"81 539 LINE",
"161 588 OFFCURVE",
"230 614 OFFCURVE",
"289 614 CURVE SMOOTH",
"365 614 OFFCURVE",
"415 568 OFFCURVE",
"415 500 CURVE SMOOTH",
"415 456 OFFCURVE",
"393 416 OFFCURVE",
"345 373 CURVE SMOOTH",
"79 138 LINE",
"79 0 LINE"
);
}
);
width = 696;
},
{
layerId = "79D829DC-9C66-44C2-8B43-D291CF08F0E9";
paths = (
{
closed = 1;
nodes = (
"477 0 LINE",
"494 82 LINE",
"146 82 LINE",
"461 352 LINE SMOOTH",
"538 417 OFFCURVE",
"574 483 OFFCURVE",
"574 558 CURVE SMOOTH",
"574 669 OFFCURVE",
"490 742 OFFCURVE",
"362 742 CURVE SMOOTH",
"299 742 OFFCURVE",
"225 726 OFFCURVE",
"144 694 CURVE",
"126 596 LINE",
"211 639 OFFCURVE",
"289 661 OFFCURVE",
"350 661 CURVE SMOOTH",
"422 661 OFFCURVE",
"470 618 OFFCURVE",
"470 554 CURVE SMOOTH",
"470 494 OFFCURVE",
"437 441 OFFCURVE",
"349 365 CURVE SMOOTH",
"20 83 LINE",
"4 0 LINE"
);
}
);
width = 636;
},
{
layerId = "D5B43B4B-63DF-4B35-BEE3-B41B34784265";
paths = (
{
closed = 1;
nodes = (
"537 0 LINE",
"564 138 LINE",
"247 138 LINE",
"429 275 LINE SMOOTH",
"606 408 OFFCURVE",
"640 468 OFFCURVE",
"640 563 CURVE SMOOTH",
"640 674 OFFCURVE",
"549 742 OFFCURVE",
"401 742 CURVE SMOOTH",
"317 742 OFFCURVE",
"232 726 OFFCURVE",
"144 694 CURVE",
"113 539 LINE",
"209 590 OFFCURVE",
"284 614 OFFCURVE",
"345 614 CURVE SMOOTH",
"412 614 OFFCURVE",
"449 583 OFFCURVE",
"449 530 CURVE SMOOTH",
"449 479 OFFCURVE",
"413 425 OFFCURVE",
"345 373 CURVE SMOOTH",
"35 139 LINE",
"8 0 LINE"
);
}
);
width = 696;
}
);
note = two;
unicode = 0032;
},
{
export = 0;
glyphname = three;
layers = (
{
layerId = "EB88A49E-561A-4405-9552-C71224CBA53C";
paths = (
{
closed = 1;
nodes = (
"454 -14 OFFCURVE",
"556 68 OFFCURVE",
"556 212 CURVE SMOOTH",
"556 305 OFFCURVE",
"501 373 OFFCURVE",
"406 393 CURVE",
"491 414 OFFCURVE",
"539 473 OFFCURVE",
"539 553 CURVE SMOOTH",
"539 669 OFFCURVE",
"445 742 OFFCURVE",
"296 742 CURVE SMOOTH",
"237 742 OFFCURVE",
"173 732 OFFCURVE",
"98 711 CURVE",
"98 623 LINE",
"173 648 OFFCURVE",
"234 659 OFFCURVE",
"287 659 CURVE SMOOTH",
"386 659 OFFCURVE",
"441 618 OFFCURVE",
"441 543 CURVE SMOOTH",
"441 470 OFFCURVE",
"388 430 OFFCURVE",
"291 430 CURVE SMOOTH",
"202 430 LINE",
"202 349 LINE",
"287 349 LINE SMOOTH",
"395 349 OFFCURVE",
"458 297 OFFCURVE",
"458 212 CURVE SMOOTH",
"458 119 OFFCURVE",
"392 69 OFFCURVE",
"268 69 CURVE SMOOTH",
"197 69 OFFCURVE",
"131 85 OFFCURVE",
"76 117 CURVE",
"76 22 LINE",
"145 -2 OFFCURVE",
"210 -14 OFFCURVE",
"271 -14 CURVE SMOOTH"
);
}
);
width = 636;
},
{
layerId = "5297CC84-2E5E-44C2-8BD8-B52BBF62A592";
paths = (
{
closed = 1;
nodes = (
"503 -14 OFFCURVE",
"616 63 OFFCURVE",
"616 207 CURVE SMOOTH",
"616 304 OFFCURVE",
"565 368 OFFCURVE",
"466 393 CURVE",
"554 416 OFFCURVE",
"599 470 OFFCURVE",
"599 555 CURVE SMOOTH",
"599 680 OFFCURVE",
"505 742 OFFCURVE",
"316 742 CURVE SMOOTH",
"245 742 OFFCURVE",
"173 732 OFFCURVE",
"98 711 CURVE",
"98 573 LINE",
"159 600 OFFCURVE",
"222 614 OFFCURVE",
"282 614 CURVE SMOOTH",
"365 614 OFFCURVE",
"411 582 OFFCURVE",
"411 526 CURVE SMOOTH",
"411 465 OFFCURVE",
"366 436 OFFCURVE",
"271 436 CURVE SMOOTH",
"192 436 LINE",
"192 315 LINE",
"267 315 LINE SMOOTH",
"374 315 OFFCURVE",
"428 281 OFFCURVE",
"428 214 CURVE SMOOTH",
"428 150 OFFCURVE",
"374 114 OFFCURVE",
"274 114 CURVE SMOOTH",
"207 114 OFFCURVE",
"138 132 OFFCURVE",
"67 167 CURVE",
"67 22 LINE",
"140 -2 OFFCURVE",
"216 -14 OFFCURVE",
"291 -14 CURVE SMOOTH"
);
}
);
width = 696;
},
{
layerId = "79D829DC-9C66-44C2-8B43-D291CF08F0E9";
paths = (
{
closed = 1;
nodes = (
"287 -14 OFFCURVE",
"361 5 OFFCURVE",
"414 42 CURVE SMOOTH",
"485 91 OFFCURVE",
"523 163 OFFCURVE",
"523 240 CURVE SMOOTH",
"523 321 OFFCURVE",
"485 369 OFFCURVE",
"404 393 CURVE",
"508 418 OFFCURVE",
"572 489 OFFCURVE",
"572 584 CURVE SMOOTH",
"572 680 OFFCURVE",
"490 742 OFFCURVE",
"362 742 CURVE SMOOTH",
"297 742 OFFCURVE",
"230 732 OFFCURVE",
"158 711 CURVE",
"143 623 LINE",
"214 650 OFFCURVE",
"278 663 OFFCURVE",
"341 663 CURVE SMOOTH",
"424 663 OFFCURVE",
"471 628 OFFCURVE",
"471 567 CURVE SMOOTH",
"471 482 OFFCURVE",
"405 429 OFFCURVE",
"297 429 CURVE SMOOTH",
"207 429 LINE",
"192 349 LINE",
"277 349 LINE SMOOTH",
"372 349 OFFCURVE",
"424 311 OFFCURVE",
"424 243 CURVE SMOOTH",
"424 138 OFFCURVE",
"336 65 OFFCURVE",
"208 65 CURVE SMOOTH",
"143 65 OFFCURVE",
"81 82 OFFCURVE",
"20 115 CURVE",
"2 22 LINE",
"66 -2 OFFCURVE",
"129 -14 OFFCURVE",
"190 -14 CURVE SMOOTH"
);
}
);
width = 636;
},
{
layerId = "D5B43B4B-63DF-4B35-BEE3-B41B34784265";
paths = (
{
closed = 1;
nodes = (
"453 -14 OFFCURVE",
"589 86 OFFCURVE",
"589 247 CURVE SMOOTH",
"589 322 OFFCURVE",
"545 376 OFFCURVE",
"472 393 CURVE",
"577 414 OFFCURVE",
"637 482 OFFCURVE",
"637 579 CURVE SMOOTH",
"637 687 OFFCURVE",
"554 742 OFFCURVE",
"389 742 CURVE SMOOTH",
"316 742 OFFCURVE",
"242 732 OFFCURVE",
"165 711 CURVE",
"138 573 LINE",
"209 601 OFFCURVE",
"275 615 OFFCURVE",
"330 615 CURVE SMOOTH",
"409 615 OFFCURVE",
"451 588 OFFCURVE",
"451 539 CURVE SMOOTH",
"451 476 OFFCURVE",
"388 436 OFFCURVE",
"285 436 CURVE SMOOTH",
"206 436 LINE",
"182 315 LINE",
"257 315 LINE SMOOTH",
"356 315 OFFCURVE",
"404 285 OFFCURVE",
"404 228 CURVE SMOOTH",
"404 159 OFFCURVE",
"336 114 OFFCURVE",
"225 114 CURVE SMOOTH",
"157 114 OFFCURVE",
"85 134 OFFCURVE",
"28 167 CURVE",
"0 22 LINE",
"68 -2 OFFCURVE",
"145 -14 OFFCURVE",
"229 -14 CURVE SMOOTH"
);
}
);
width = 696;
}
);
note = three;
unicode = 0033;
},
{
export = 0;
glyphname = four;
layers = (
{
layerId = "EB88A49E-561A-4405-9552-C71224CBA53C";
paths = (
{
closed = 1;
nodes = (
"476 0 LINE",
"476 172 LINE",
"580 172 LINE",
"580 254 LINE",
"476 254 LINE",
"476 729 LINE",
"352 729 LINE",
"49 267 LINE",
"49 172 LINE",
"378 172 LINE",
"378 0 LINE"
);
},
{
closed = 1;
nodes = (
"378 643 LINE",
"378 254 LINE",
"129 254 LINE"
);
}
);
width = 636;
},
{
layerId = "5297CC84-2E5E-44C2-8BD8-B52BBF62A592";
paths = (
{
closed = 1;
nodes = (
"546 0 LINE",
"546 133 LINE",
"650 133 LINE",
"650 269 LINE",
"546 269 LINE",
"546 729 LINE",
"337 729 LINE",
"45 294 LINE",
"45 133 LINE",
"368 133 LINE",
"368 0 LINE"
);
},
{
closed = 1;
nodes = (
"368 574 LINE",
"368 269 LINE",
"162 269 LINE"
);
}
);
width = 696;
},
{
layerId = "79D829DC-9C66-44C2-8B43-D291CF08F0E9";
paths = (
{
closed = 1;
nodes = (
"412 0 LINE",
"445 172 LINE",
"549 172 LINE",
"565 254 LINE",
"461 254 LINE",
"554 729 LINE",
"430 729 LINE",
"37 267 LINE",
"18 172 LINE",
"347 172 LINE",
"314 0 LINE"
);
},
{
closed = 1;
nodes = (
"439 643 LINE",
"363 254 LINE",
"114 254 LINE"
);
}
);
width = 636;
},
{
layerId = "D5B43B4B-63DF-4B35-BEE3-B41B34784265";
paths = (
{
closed = 1;
nodes = (
"479 0 LINE",
"505 133 LINE",
"609 133 LINE",
"635 269 LINE",
"531 269 LINE",
"621 729 LINE",
"407 729 LINE",
"31 294 LINE",
"-1 133 LINE",
"327 133 LINE",
"301 0 LINE"
);
},
{
closed = 1;
nodes = (
"412 569 LINE",
"353 269 LINE",
"153 269 LINE"
);
}
);
width = 696;
}
);
note = four;
unicode = 0034;
},
{
export = 0;
glyphname = five;
layers = (
{
layerId = "EB88A49E-561A-4405-9552-C71224CBA53C";
paths = (
{
closed = 1;
nodes = (
"446 -14 OFFCURVE",
"549 77 OFFCURVE",
"549 234 CURVE SMOOTH",
"549 386 OFFCURVE",
"447 482 OFFCURVE",
"284 482 CURVE SMOOTH",
"256 482 OFFCURVE",
"227 478 OFFCURVE",
"198 467 CURVE",
"198 646 LINE",
"495 646 LINE",
"495 729 LINE",
"108 729 LINE",
"108 363 LINE",
"163 387 OFFCURVE",
"215 399 OFFCURVE",
"267 399 CURVE SMOOTH",
"380 399 OFFCURVE",
"450 335 OFFCURVE",
"450 234 CURVE SMOOTH",
"450 133 OFFCURVE",
"380 69 OFFCURVE",
"267 69 CURVE SMOOTH",
"198 69 OFFCURVE",
"136 84 OFFCURVE",
"77 116 CURVE",
"77 17 LINE",
"145 -4 OFFCURVE",
"208 -14 OFFCURVE",
"269 -14 CURVE SMOOTH"
);
}
);
width = 636;
},
{
layerId = "5297CC84-2E5E-44C2-8BD8-B52BBF62A592";
paths = (
{
closed = 1;
nodes = (
"512 -14 OFFCURVE",
"626 81 OFFCURVE",
"626 238 CURVE SMOOTH",
"626 397 OFFCURVE",
"523 490 OFFCURVE",
"344 490 CURVE SMOOTH",
"313 490 OFFCURVE",
"284 486 OFFCURVE",
"256 478 CURVE",
"256 591 LINE",
"573 591 LINE",
"573 729 LINE",
"106 729 LINE",
"106 319 LINE",
"177 348 OFFCURVE",
"236 362 OFFCURVE",
"291 362 CURVE SMOOTH",
"382 362 OFFCURVE",
"438 314 OFFCURVE",
"438 238 CURVE SMOOTH",
"438 162 OFFCURVE",
"382 114 OFFCURVE",
"291 114 CURVE SMOOTH",
"228 114 OFFCURVE",
"157 137 OFFCURVE",
"77 182 CURVE",
"77 34 LINE",
"157 2 OFFCURVE",
"238 -14 OFFCURVE",
"321 -14 CURVE SMOOTH"
);
}
);
width = 696;
},
{
layerId = "79D829DC-9C66-44C2-8B43-D291CF08F0E9";
paths = (
{
closed = 1;
nodes = (
"295 -14 OFFCURVE",
"373 10 OFFCURVE",
"425 51 CURVE SMOOTH",
"498 111 OFFCURVE",
"540 193 OFFCURVE",
"540 280 CURVE SMOOTH",
"540 404 OFFCURVE",
"457 481 OFFCURVE",
"322 481 CURVE SMOOTH",
"290 481 OFFCURVE",
"258 476 OFFCURVE",
"229 467 CURVE",
"264 647 LINE",
"566 647 LINE",
"581 729 LINE",
"189 729 LINE",
"118 363 LINE",
"177 387 OFFCURVE",
"233 399 OFFCURVE",
"284 399 CURVE SMOOTH",
"381 399 OFFCURVE",
"439 350 OFFCURVE",
"439 265 CURVE SMOOTH",
"439 150 OFFCURVE",
"346 65 OFFCURVE",
"219 65 CURVE SMOOTH",
"158 65 OFFCURVE",
"98 80 OFFCURVE",
"38 109 CURVE",
"20 17 LINE",
"87 -4 OFFCURVE",
"147 -14 OFFCURVE",
"206 -14 CURVE SMOOTH"
);
}
);
width = 636;
},
{
layerId = "D5B43B4B-63DF-4B35-BEE3-B41B34784265";
paths = (
{
closed = 1;
nodes = (
"469 -14 OFFCURVE",
"607 106 OFFCURVE",
"607 298 CURVE SMOOTH",
"607 418 OFFCURVE",
"518 490 OFFCURVE",
"369 490 CURVE SMOOTH",
"338 490 OFFCURVE",
"306 486 OFFCURVE",
"278 478 CURVE",
"300 591 LINE",
"617 591 LINE",
"644 729 LINE",
"177 729 LINE",
"97 319 LINE",
"173 348 OFFCURVE",
"235 362 OFFCURVE",
"290 362 CURVE SMOOTH",
"371 362 OFFCURVE",
"421 323 OFFCURVE",
"421 260 CURVE SMOOTH",
"421 172 OFFCURVE",
"354 114 OFFCURVE",
"251 114 CURVE SMOOTH",
"180 114 OFFCURVE",
"114 135 OFFCURVE",
"42 182 CURVE",
"13 34 LINE",
"89 2 OFFCURVE",
"165 -14 OFFCURVE",
"246 -14 CURVE SMOOTH"
);
}
);
width = 696;
}
);
note = five;
unicode = 0035;
},
{
export = 0;
glyphname = six;
layers = (
{
layerId = "EB88A49E-561A-4405-9552-C71224CBA53C";
paths = (
{
closed = 1;
nodes = (
"477 -14 OFFCURVE",
"573 85 OFFCURVE",
"573 234 CURVE SMOOTH",
"573 387 OFFCURVE",
"483 482 OFFCURVE",
"336 482 CURVE SMOOTH",
"267 482 OFFCURVE",
"207 451 OFFCURVE",
"168 394 CURVE",
"177 571 OFFCURVE",
"245 659 OFFCURVE",
"376 659 CURVE SMOOTH",
"425 659 OFFCURVE",
"477 647 OFFCURVE",
"526 623 CURVE",
"526 713 LINE",
"471 733 OFFCURVE",
"421 742 OFFCURVE",
"372 742 CURVE SMOOTH",
"188 742 OFFCURVE",
"70 595 OFFCURVE",
"70 364 CURVE SMOOTH",
"70 119 OFFCURVE",
"162 -14 OFFCURVE",
"330 -14 CURVE SMOOTH"
);
},
{
closed = 1;
nodes = (
"242 64 OFFCURVE",
"186 129 OFFCURVE",
"186 234 CURVE SMOOTH",
"186 339 OFFCURVE",
"242 404 OFFCURVE",
"330 404 CURVE SMOOTH",
"418 404 OFFCURVE",
"474 339 OFFCURVE",
"474 234 CURVE SMOOTH",
"474 129 OFFCURVE",
"418 64 OFFCURVE",
"330 64 CURVE SMOOTH"
);
}
);
width = 636;
},
{
layerId = "5297CC84-2E5E-44C2-8BD8-B52BBF62A592";
paths = (
{
closed = 1;
nodes = (
"532 -14 OFFCURVE",
"642 88 OFFCURVE",
"642 244 CURVE SMOOTH",
"642 385 OFFCURVE",
"542 481 OFFCURVE",
"393 481 CURVE SMOOTH",
"334 481 OFFCURVE",
"284 465 OFFCURVE",
"241 433 CURVE",
"252 556 OFFCURVE",
"315 618 OFFCURVE",
"427 618 CURVE SMOOTH",
"479 618 OFFCURVE",
"533 604 OFFCURVE",
"594 575 CURVE",
"594 710 LINE",
"533 731 OFFCURVE",
"470 741 OFFCURVE",
"403 741 CURVE SMOOTH",
"191 741 OFFCURVE",
"62 595 OFFCURVE",
"62 354 CURVE SMOOTH",
"62 119 OFFCURVE",
"171 -14 OFFCURVE",
"360 -14 CURVE SMOOTH"
);
},
{
closed = 1;
nodes = (
"297 104 OFFCURVE",
"263 147 OFFCURVE",
"263 232 CURVE SMOOTH",
"263 317 OFFCURVE",
"297 360 OFFCURVE",
"362 360 CURVE SMOOTH",
"429 360 OFFCURVE",
"461 317 OFFCURVE",
"461 232 CURVE SMOOTH",
"461 147 OFFCURVE",
"429 104 OFFCURVE",
"362 104 CURVE SMOOTH"
);
}
);
width = 696;
},
{
layerId = "79D829DC-9C66-44C2-8B43-D291CF08F0E9";
paths = (
{
closed = 1;
nodes = (
"348 -14 OFFCURVE",
"411 9 OFFCURVE",
"456 52 CURVE SMOOTH",
"523 113 OFFCURVE",
"558 197 OFFCURVE",
"558 292 CURVE SMOOTH",
"558 408 OFFCURVE",
"482 482 OFFCURVE",
"363 482 CURVE SMOOTH",
"290 482 OFFCURVE",
"226 453 OFFCURVE",
"178 398 CURVE",
"218 578 OFFCURVE",
"297 660 OFFCURVE",
"432 660 CURVE SMOOTH",
"488 660 OFFCURVE",
"538 647 OFFCURVE",
"575 622 CURVE",
"592 712 LINE",
"544 732 OFFCURVE",
"495 742 OFFCURVE",
"444 742 CURVE SMOOTH",
"328 742 OFFCURVE",
"231 690 OFFCURVE",
"164 591 CURVE SMOOTH",
"100 498 OFFCURVE",
"63 364 OFFCURVE",
"63 225 CURVE SMOOTH",
"63 77 OFFCURVE",
"145 -14 OFFCURVE",
"280 -14 CURVE SMOOTH"
);
},
{
closed = 1;
nodes = (
"206 64 OFFCURVE",
"162 116 OFFCURVE",
"162 201 CURVE SMOOTH",
"162 316 OFFCURVE",
"240 404 OFFCURVE",
"341 404 CURVE SMOOTH",
"414 404 OFFCURVE",
"459 353 OFFCURVE",
"459 270 CURVE SMOOTH",
"459 155 OFFCURVE",
"382 64 OFFCURVE",
"281 64 CURVE SMOOTH"
);
}
);
width = 636;
},
{
layerId = "D5B43B4B-63DF-4B35-BEE3-B41B34784265";
paths = (
{
closed = 1;
nodes = (
"496 -15 OFFCURVE",
"626 112 OFFCURVE",
"626 292 CURVE SMOOTH",
"626 403 OFFCURVE",
"542 481 OFFCURVE",
"422 481 CURVE SMOOTH",
"361 481 OFFCURVE",
"309 465 OFFCURVE",
"258 432 CURVE",
"274 551 OFFCURVE",
"352 618 OFFCURVE",
"473 618 CURVE SMOOTH",
"526 618 OFFCURVE",
"578 604 OFFCURVE",
"634 575 CURVE",
"660 710 LINE",
"601 731 OFFCURVE",
"544 741 OFFCURVE",
"483 741 CURVE SMOOTH",
"350 741 OFFCURVE",
"244 694 OFFCURVE",
"165 601 CURVE SMOOTH",
"92 514 OFFCURVE",
"50 387 OFFCURVE",
"50 255 CURVE SMOOTH",
"50 83 OFFCURVE",
"146 -15 OFFCURVE",
"311 -15 CURVE SMOOTH"
);
},
{
closed = 1;
nodes = (
"266 104 OFFCURVE",
"235 137 OFFCURVE",
"235 196 CURVE SMOOTH",
"235 292 OFFCURVE",
"287 360 OFFCURVE",
"362 360 CURVE SMOOTH",
"415 360 OFFCURVE",
"445 326 OFFCURVE",
"445 263 CURVE SMOOTH",
"445 171 OFFCURVE",
"391 104 OFFCURVE",
"318 104 CURVE SMOOTH"
);
}
);
width = 696;
}
);
note = six;
unicode = 0036;
},
{
export = 0;
glyphname = seven;
layers = (
{
layerId = "EB88A49E-561A-4405-9552-C71224CBA53C";
paths = (
{
closed = 1;
nodes = (
"286 0 LINE",
"551 687 LINE",
"551 729 LINE",
"82 729 LINE",
"82 646 LINE",
"432 646 LINE",
"183 0 LINE"
);
}
);
width = 636;
},
{
layerId = "5297CC84-2E5E-44C2-8BD8-B52BBF62A592";
paths = (
{
closed = 1;
nodes = (
"332 0 LINE",
"616 623 LINE",
"616 729 LINE",
"67 729 LINE",
"67 591 LINE",
"418 591 LINE",
"149 0 LINE"
);
}
);
width = 696;
},
{
layerId = "79D829DC-9C66-44C2-8B43-D291CF08F0E9";
paths = (
{
closed = 1;
nodes = (
"201 0 LINE",
"618 687 LINE",
"627 729 LINE",
"128 729 LINE",
"112 646 LINE",
"487 646 LINE",
"93 0 LINE"
);
}
);
width = 636;
},
{
layerId = "D5B43B4B-63DF-4B35-BEE3-B41B34784265";
paths = (
{
closed = 1;
nodes = (
"266 0 LINE",
"672 622 LINE",
"694 729 LINE",
"144 729 LINE",
"118 591 LINE",
"464 591 LINE",
"78 0 LINE"
);
}
);
width = 696;
}
);
note = seven;
unicode = 0037;
},
{
export = 0;
glyphname = eight;
layers = (
{
layerId = "EB88A49E-561A-4405-9552-C71224CBA53C";
paths = (
{
closed = 1;
nodes = (
"478 -14 OFFCURVE",
"568 64 OFFCURVE",
"568 205 CURVE SMOOTH",
"568 298 OFFCURVE",
"512 367 OFFCURVE",
"417 388 CURVE",
"501 409 OFFCURVE",
"551 470 OFFCURVE",
"551 553 CURVE SMOOTH",
"551 670 OFFCURVE",
"463 742 OFFCURVE",
"318 742 CURVE SMOOTH",
"173 742 OFFCURVE",
"85 670 OFFCURVE",
"85 553 CURVE SMOOTH",
"85 470 OFFCURVE",
"135 409 OFFCURVE",
"219 388 CURVE",
"124 367 OFFCURVE",
"68 298 OFFCURVE",
"68 205 CURVE SMOOTH",
"68 64 OFFCURVE",
"157 -14 OFFCURVE",
"318 -14 CURVE SMOOTH"
);
},
{
closed = 1;
nodes = (
"225 64 OFFCURVE",
"167 117 OFFCURVE",
"167 205 CURVE SMOOTH",
"167 293 OFFCURVE",
"225 346 OFFCURVE",
"318 346 CURVE SMOOTH",
"413 346 OFFCURVE",
"469 293 OFFCURVE",
"469 205 CURVE SMOOTH",
"469 118 OFFCURVE",
"411 64 OFFCURVE",
"318 64 CURVE SMOOTH"
);
},
{
closed = 1;
nodes = (
"233 424 OFFCURVE",
"183 468 OFFCURVE",
"183 544 CURVE SMOOTH",
"183 620 OFFCURVE",
"233 664 OFFCURVE",
"318 664 CURVE SMOOTH",
"402 664 OFFCURVE",
"453 620 OFFCURVE",
"453 544 CURVE SMOOTH",
"453 468 OFFCURVE",
"402 424 OFFCURVE",
"318 424 CURVE SMOOTH"
);
}
);
width = 636;
},
{
layerId = "5297CC84-2E5E-44C2-8BD8-B52BBF62A592";
paths = (
{
closed = 1;
nodes = (
"537 -14 OFFCURVE",
"634 61 OFFCURVE",
"634 205 CURVE SMOOTH",
"634 298 OFFCURVE",
"583 361 OFFCURVE",
"484 388 CURVE",
"572 415 OFFCURVE",
"618 470 OFFCURVE",
"618 553 CURVE SMOOTH",
"618 677 OFFCURVE",
"524 742 OFFCURVE",
"348 742 CURVE SMOOTH",
"171 742 OFFCURVE",
"77 677 OFFCURVE",
"77 553 CURVE SMOOTH",
"77 470 OFFCURVE",
"123 415 OFFCURVE",
"211 388 CURVE",
"112 361 OFFCURVE",
"61 298 OFFCURVE",
"61 205 CURVE SMOOTH",
"61 61 OFFCURVE",
"159 -14 OFFCURVE",
"348 -14 CURVE SMOOTH"
);
},
{
closed = 1;
nodes = (
"277 104 OFFCURVE",
"239 143 OFFCURVE",
"239 215 CURVE SMOOTH",
"239 287 OFFCURVE",
"277 326 OFFCURVE",
"348 326 CURVE SMOOTH",
"417 326 OFFCURVE",
"456 287 OFFCURVE",
"456 215 CURVE SMOOTH",
"456 143 OFFCURVE",
"417 104 OFFCURVE",
"348 104 CURVE SMOOTH"
);
},
{
closed = 1;
nodes = (
"288 444 OFFCURVE",
"255 477 OFFCURVE",
"255 534 CURVE SMOOTH",
"255 591 OFFCURVE",
"288 624 OFFCURVE",
"348 624 CURVE SMOOTH",
"407 624 OFFCURVE",
"440 593 OFFCURVE",
"440 534 CURVE SMOOTH",
"440 477 OFFCURVE",
"407 444 OFFCURVE",
"348 444 CURVE SMOOTH"
);
}
);
width = 696;
},
{
layerId = "79D829DC-9C66-44C2-8B43-D291CF08F0E9";
paths = (
{
closed = 1;
nodes = (
"427 -14 OFFCURVE",
"542 83 OFFCURVE",
"542 218 CURVE SMOOTH",
"542 298 OFFCURVE",
"501 356 OFFCURVE",
"428 384 CURVE",
"529 413 OFFCURVE",
"593 485 OFFCURVE",
"593 572 CURVE SMOOTH",
"593 671 OFFCURVE",
"505 742 OFFCURVE",
"380 742 CURVE SMOOTH",
"229 742 OFFCURVE",
"120 654 OFFCURVE",
"120 535 CURVE SMOOTH",
"120 464 OFFCURVE",
"157 415 OFFCURVE",
"225 391 CURVE",
"112 370 OFFCURVE",
"33 279 OFFCURVE",
"33 175 CURVE SMOOTH",
"33 60 OFFCURVE",
"122 -14 OFFCURVE",
"262 -14 CURVE SMOOTH"
);
},
{
closed = 1;
nodes = (
"185 64 OFFCURVE",
"130 110 OFFCURVE",
"130 185 CURVE SMOOTH",
"130 278 OFFCURVE",
"204 346 OFFCURVE",
"305 346 CURVE SMOOTH",
"389 346 OFFCURVE",
"445 294 OFFCURVE",
"445 221 CURVE SMOOTH",
"445 130 OFFCURVE",
"373 64 OFFCURVE",
"270 64 CURVE SMOOTH"
);
},
{
closed = 1;
nodes = (
"266 424 OFFCURVE",
"217 467 OFFCURVE",
"217 532 CURVE SMOOTH",
"217 608 OFFCURVE",
"281 664 OFFCURVE",
"370 664 CURVE SMOOTH",
"446 664 OFFCURVE",
"495 622 OFFCURVE",
"495 561 CURVE SMOOTH",
"495 481 OFFCURVE",
"430 424 OFFCURVE",
"341 424 CURVE SMOOTH"
);
}
);
width = 636;
},
{
layerId = "D5B43B4B-63DF-4B35-BEE3-B41B34784265";
paths = (
{
closed = 1;
nodes = (
"481 -14 OFFCURVE",
"605 80 OFFCURVE",
"605 229 CURVE SMOOTH",
"605 308 OFFCURVE",
"568 357 OFFCURVE",
"489 388 CURVE",
"598 417 OFFCURVE",
"659 486 OFFCURVE",
"659 578 CURVE SMOOTH",
"659 682 OFFCURVE",
"570 742 OFFCURVE",
"417 742 CURVE SMOOTH",
"225 742 OFFCURVE",
"111 662 OFFCURVE",
"111 530 CURVE SMOOTH",
"111 463 OFFCURVE",
"145 417 OFFCURVE",
"216 388 CURVE",
"95 353 OFFCURVE",
"22 272 OFFCURVE",
"22 168 CURVE SMOOTH",
"22 53 OFFCURVE",
"116 -14 OFFCURVE",
"277 -14 CURVE SMOOTH"
);
},
{
closed = 1;
nodes = (
"238 104 OFFCURVE",
"202 137 OFFCURVE",
"202 192 CURVE SMOOTH",
"202 268 OFFCURVE",
"260 326 OFFCURVE",
"336 326 CURVE SMOOTH",
"393 326 OFFCURVE",
"429 291 OFFCURVE",
"429 238 CURVE SMOOTH",
"429 162 OFFCURVE",
"372 104 OFFCURVE",
"295 104 CURVE SMOOTH"
);
},
{
closed = 1;
nodes = (
"321 444 OFFCURVE",
"290 474 OFFCURVE",
"290 518 CURVE SMOOTH",
"290 582 OFFCURVE",
"333 624 OFFCURVE",
"400 624 CURVE SMOOTH",
"448 624 OFFCURVE",
"479 594 OFFCURVE",
"479 550 CURVE SMOOTH",
"479 486 OFFCURVE",
"436 444 OFFCURVE",
"369 444 CURVE SMOOTH"
);
}
);
width = 696;
}
);
note = eight;
unicode = 0038;
},
{
export = 0;
glyphname = nine;
layers = (
{
layerId = "EB88A49E-561A-4405-9552-C71224CBA53C";
paths = (
{
closed = 1;
nodes = (
"448 -14 OFFCURVE",
"566 133 OFFCURVE",
"566 364 CURVE SMOOTH",
"566 609 OFFCURVE",
"475 742 OFFCURVE",
"306 742 CURVE SMOOTH",
"159 742 OFFCURVE",
"63 643 OFFCURVE",
"63 494 CURVE SMOOTH",
"63 341 OFFCURVE",
"153 247 OFFCURVE",
"300 247 CURVE SMOOTH",
"371 247 OFFCURVE",
"429 278 OFFCURVE",
"468 334 CURVE",
"457 155 OFFCURVE",
"389 69 OFFCURVE",
"260 69 CURVE SMOOTH",
"211 69 OFFCURVE",
"159 81 OFFCURVE",
"110 105 CURVE",
"110 15 LINE",
"165 -5 OFFCURVE",
"215 -14 OFFCURVE",
"264 -14 CURVE SMOOTH"
);
},
{
closed = 1;
nodes = (
"218 324 OFFCURVE",
"162 389 OFFCURVE",
"162 494 CURVE SMOOTH",
"162 599 OFFCURVE",
"218 664 OFFCURVE",
"306 664 CURVE SMOOTH",
"395 664 OFFCURVE",
"450 599 OFFCURVE",
"450 494 CURVE SMOOTH",
"450 389 OFFCURVE",
"395 324 OFFCURVE",
"306 324 CURVE SMOOTH"
);
}
);
width = 636;
},
{
layerId = "5297CC84-2E5E-44C2-8BD8-B52BBF62A592";
paths = (
{
closed = 1;
nodes = (
"502 -14 OFFCURVE",
"632 132 OFFCURVE",
"632 373 CURVE SMOOTH",
"632 608 OFFCURVE",
"524 741 OFFCURVE",
"333 741 CURVE SMOOTH",
"162 741 OFFCURVE",
"52 639 OFFCURVE",
"52 482 CURVE SMOOTH",
"52 339 OFFCURVE",
"152 245 OFFCURVE",
"301 245 CURVE SMOOTH",
"360 245 OFFCURVE",
"409 262 OFFCURVE",
"453 294 CURVE",
"442 171 OFFCURVE",
"379 109 OFFCURVE",
"267 109 CURVE SMOOTH",
"214 109 OFFCURVE",
"160 123 OFFCURVE",
"100 151 CURVE",
"100 16 LINE",
"160 -4 OFFCURVE",
"222 -14 OFFCURVE",
"290 -14 CURVE SMOOTH"
);
},
{
closed = 1;
nodes = (
"267 367 OFFCURVE",
"233 410 OFFCURVE",
"233 495 CURVE SMOOTH",
"233 580 OFFCURVE",
"267 623 OFFCURVE",
"332 623 CURVE SMOOTH",
"397 623 OFFCURVE",
"431 580 OFFCURVE",
"431 495 CURVE SMOOTH",
"431 410 OFFCURVE",
"397 367 OFFCURVE",
"332 367 CURVE SMOOTH"
);
}
);
width = 696;
},
{
layerId = "79D829DC-9C66-44C2-8B43-D291CF08F0E9";
paths = (
{
closed = 1;
nodes = (
"308 -14 OFFCURVE",
"404 38 OFFCURVE",
"472 137 CURVE SMOOTH",
"536 232 OFFCURVE",
"574 366 OFFCURVE",
"574 503 CURVE SMOOTH",
"574 651 OFFCURVE",
"491 742 OFFCURVE",
"356 742 CURVE SMOOTH",
"288 742 OFFCURVE",
"226 719 OFFCURVE",
"181 676 CURVE SMOOTH",
"114 615 OFFCURVE",
"79 531 OFFCURVE",
"79 436 CURVE SMOOTH",
"79 320 OFFCURVE",
"154 246 OFFCURVE",
"273 246 CURVE SMOOTH",
"346 246 OFFCURVE",
"411 276 OFFCURVE",
"459 331 CURVE",
"419 151 OFFCURVE",
"339 68 OFFCURVE",
"204 68 CURVE SMOOTH",
"149 68 OFFCURVE",
"99 81 OFFCURVE",
"62 106 CURVE",
"44 16 LINE",
"92 -4 OFFCURVE",
"141 -14 OFFCURVE",
"192 -14 CURVE SMOOTH"
);
},
{
closed = 1;
nodes = (
"223 324 OFFCURVE",
"177 376 OFFCURVE",
"177 459 CURVE SMOOTH",
"177 574 OFFCURVE",
"254 664 OFFCURVE",
"355 664 CURVE SMOOTH",
"430 664 OFFCURVE",
"474 612 OFFCURVE",
"474 527 CURVE SMOOTH",
"474 411 OFFCURVE",
"397 324 OFFCURVE",
"296 324 CURVE SMOOTH"
);
}
);
width = 636;
},
{
layerId = "D5B43B4B-63DF-4B35-BEE3-B41B34784265";
paths = (
{
closed = 1;
nodes = (
"352 -15 OFFCURVE",
"459 32 OFFCURVE",
"536 125 CURVE SMOOTH",
"609 213 OFFCURVE",
"652 339 OFFCURVE",
"652 471 CURVE SMOOTH",
"652 643 OFFCURVE",
"558 741 OFFCURVE",
"391 741 CURVE SMOOTH",
"206 741 OFFCURVE",
"76 614 OFFCURVE",
"76 434 CURVE SMOOTH",
"76 325 OFFCURVE",
"160 245 OFFCURVE",
"280 245 CURVE SMOOTH",
"340 245 OFFCURVE",
"392 261 OFFCURVE",
"443 294 CURVE",
"427 177 OFFCURVE",
"349 108 OFFCURVE",
"228 108 CURVE SMOOTH",
"175 108 OFFCURVE",
"123 122 OFFCURVE",
"67 151 CURVE",
"41 16 LINE",
"100 -5 OFFCURVE",
"158 -15 OFFCURVE",
"219 -15 CURVE SMOOTH"
);
},
{
closed = 1;
nodes = (
"286 366 OFFCURVE",
"256 400 OFFCURVE",
"256 463 CURVE SMOOTH",
"256 554 OFFCURVE",
"311 622 OFFCURVE",
"384 622 CURVE SMOOTH",
"436 622 OFFCURVE",
"466 589 OFFCURVE",
"466 530 CURVE SMOOTH",
"466 434 OFFCURVE",
"414 366 OFFCURVE",
"339 366 CURVE SMOOTH"
);
}
);
width = 696;
}
);
note = nine;
unicode = 0039;
},
{
export = 0;
glyphname = period;
layers = (
{
layerId = "EB88A49E-561A-4405-9552-C71224CBA53C";
paths = (
{
closed = 1;
nodes = (
"210 0 LINE",
"210 124 LINE",
"107 124 LINE",
"107 0 LINE"
);
}
);
width = 318;
},
{
layerId = "5297CC84-2E5E-44C2-8BD8-B52BBF62A592";
paths = (
{
closed = 1;
nodes = (
"278 0 LINE",
"278 189 LINE",
"102 189 LINE",
"102 0 LINE"
);
}
);
width = 380;
},
{
layerId = "79D829DC-9C66-44C2-8B43-D291CF08F0E9";
paths = (
{
closed = 1;
nodes = (
"161 0 LINE",
"185 124 LINE",
"82 124 LINE",
"58 0 LINE"
);
}
);
width = 318;
},
{
layerId = "D5B43B4B-63DF-4B35-BEE3-B41B34784265";
paths = (
{
closed = 1;
nodes = (
"222 0 LINE",
"259 189 LINE",
"83 189 LINE",
"46 0 LINE"
);
}
);
width = 380;
}
);
leftKerningGroup = period;
note = period;
unicode = 002E;
},
{
export = 0;
glyphname = comma;
layers = (
{
layerId = "EB88A49E-561A-4405-9552-C71224CBA53C";
paths = (
{
closed = 1;
nodes = (
"140 -116 LINE",
"220 40 LINE",
"220 124 LINE",
"117 124 LINE",
"117 40 LINE",
"77 -116 LINE"
);
}
);
width = 318;
},
{
layerId = "5297CC84-2E5E-44C2-8BD8-B52BBF62A592";
paths = (
{
closed = 1;
nodes = (
"157 -142 LINE",
"278 40 LINE",
"278 189 LINE",
"102 189 LINE",
"102 40 LINE",
"53 -142 LINE"
);
}
);
width = 380;
},
{
layerId = "79D829DC-9C66-44C2-8B43-D291CF08F0E9";
paths = (
{
closed = 1;
nodes = (
"66 -116 LINE",
"177 40 LINE",
"193 124 LINE",
"90 124 LINE",
"73 40 LINE",
"3 -116 LINE"
);
}
);
width = 318;
},
{
layerId = "D5B43B4B-63DF-4B35-BEE3-B41B34784265";
paths = (
{
closed = 1;
nodes = (
"70 -142 LINE",
"227 40 LINE",
"256 189 LINE",
"80 189 LINE",
"51 40 LINE",
"-34 -142 LINE"
);
}
);
width = 380;
}
);
note = comma;
unicode = 002C;
},
{
export = 0;
glyphname = colon;
layers = (
{
layerId = "EB88A49E-561A-4405-9552-C71224CBA53C";
paths = (
{
closed = 1;
nodes = (
"220 393 LINE",
"220 517 LINE",
"117 517 LINE",
"117 393 LINE"
);
},
{
closed = 1;
nodes = (
"220 0 LINE",
"220 124 LINE",
"117 124 LINE",
"117 0 LINE"
);
}
);
width = 337;
},
{
layerId = "5297CC84-2E5E-44C2-8BD8-B52BBF62A592";
paths = (
{
closed = 1;
nodes = (
"288 358 LINE",
"288 547 LINE",
"112 547 LINE",
"112 358 LINE"
);
},
{
closed = 1;
nodes = (
"288 0 LINE",
"288 189 LINE",
"112 189 LINE",
"112 0 LINE"
);
}
);
width = 400;
},
{
layerId = "79D829DC-9C66-44C2-8B43-D291CF08F0E9";
paths = (
{
closed = 1;
nodes = (
"232 393 LINE",
"256 517 LINE",
"153 517 LINE",
"129 393 LINE"
);
},
{
closed = 1;
nodes = (
"155 0 LINE",
"179 124 LINE",
"76 124 LINE",
"52 0 LINE"
);
}
);
width = 337;
},
{
layerId = "D5B43B4B-63DF-4B35-BEE3-B41B34784265";
paths = (
{
closed = 1;
nodes = (
"217 0 LINE",
"254 189 LINE",
"78 189 LINE",
"41 0 LINE"
);
},
{
closed = 1;
nodes = (
"287 358 LINE",
"323 547 LINE",
"147 547 LINE",
"111 358 LINE"
);
}
);
width = 400;
}
);
leftKerningGroup = colon;
note = colon;
unicode = 003A;
},
{
export = 0;
glyphname = semicolon;
layers = (
{
layerId = "EB88A49E-561A-4405-9552-C71224CBA53C";
paths = (
{
closed = 1;
nodes = (
"140 -116 LINE",
"220 40 LINE",
"220 124 LINE",
"117 124 LINE",
"117 40 LINE",
"77 -116 LINE"
);
},
{
closed = 1;
nodes = (
"220 393 LINE",
"220 517 LINE",
"117 517 LINE",
"117 393 LINE"
);
}
);
width = 337;
},
{
layerId = "5297CC84-2E5E-44C2-8BD8-B52BBF62A592";
paths = (
{
closed = 1;
nodes = (
"167 -142 LINE",
"288 40 LINE",
"288 189 LINE",
"112 189 LINE",
"112 40 LINE",
"63 -142 LINE"
);
},
{
closed = 1;
nodes = (
"288 358 LINE",
"288 547 LINE",
"112 547 LINE",
"112 358 LINE"
);
}
);
width = 400;
},
{
layerId = "79D829DC-9C66-44C2-8B43-D291CF08F0E9";
paths = (
{
closed = 1;
nodes = (
"64 -116 LINE",
"174 40 LINE",
"191 124 LINE",
"88 124 LINE",
"71 40 LINE",
"1 -116 LINE"
);
},
{
closed = 1;
nodes = (
"243 393 LINE",
"267 517 LINE",
"164 517 LINE",
"140 393 LINE"
);
}
);
width = 337;
},
{
layerId = "D5B43B4B-63DF-4B35-BEE3-B41B34784265";
paths = (
{
closed = 1;
nodes = (
"69 -142 LINE",
"225 40 LINE",
"254 189 LINE",
"78 189 LINE",
"49 40 LINE",
"-35 -142 LINE"
);
},
{
closed = 1;
nodes = (
"287 358 LINE",
"323 547 LINE",
"147 547 LINE",
"111 358 LINE"
);
}
);
width = 400;
}
);
note = semicolon;
unicode = 003B;
},
{
export = 0;
glyphname = exclam;
layers = (
{
layerId = "EB88A49E-561A-4405-9552-C71224CBA53C";
paths = (
{
closed = 1;
nodes = (
"240 235 LINE",
"250 409 LINE",
"250 729 LINE",
"151 729 LINE",
"151 409 LINE",
"161 235 LINE"
);
},
{
closed = 1;
nodes = (
"250 0 LINE",
"250 124 LINE",
"151 124 LINE",
"151 0 LINE"
);
}
);
width = 401;
},
{
layerId = "5297CC84-2E5E-44C2-8BD8-B52BBF62A592";
paths = (
{
closed = 1;
nodes = (
"291 245 LINE",
"316 449 LINE",
"316 729 LINE",
"140 729 LINE",
"140 449 LINE",
"165 245 LINE"
);
},
{
closed = 1;
nodes = (
"316 0 LINE",
"316 174 LINE",
"140 174 LINE",
"140 0 LINE"
);
}
);
width = 456;
},
{
layerId = "79D829DC-9C66-44C2-8B43-D291CF08F0E9";
paths = (
{
closed = 1;
nodes = (
"214 235 LINE",
"258 409 LINE",
"320 729 LINE",
"221 729 LINE",
"159 409 LINE",
"135 235 LINE"
);
},
{
closed = 1;
nodes = (
"179 0 LINE",
"203 124 LINE",
"104 124 LINE",
"79 0 LINE"
);
}
);
width = 401;
},
{
layerId = "D5B43B4B-63DF-4B35-BEE3-B41B34784265";
paths = (
{
closed = 1;
nodes = (
"268 245 LINE",
"332 449 LINE",
"387 729 LINE",
"211 729 LINE",
"156 449 LINE",
"142 245 LINE"
);
},
{
closed = 1;
nodes = (
"245 0 LINE",
"279 174 LINE",
"103 174 LINE",
"69 0 LINE"
);
}
);
width = 456;
}
);
note = exclam;
unicode = 0021;
},
{
export = 0;
glyphname = question;
layers = (
{
layerId = "EB88A49E-561A-4405-9552-C71224CBA53C";
paths = (
{
closed = 1;
nodes = (
"287 196 LINE",
"287 256 LINE SMOOTH",
"287 289 OFFCURVE",
"289 308 OFFCURVE",
"293 321 CURVE SMOOTH",
"298 337 OFFCURVE",
"308 351 OFFCURVE",
"339 382 CURVE SMOOTH",
"382 424 LINE SMOOTH",
"441 480 OFFCURVE",
"461 521 OFFCURVE",
"461 570 CURVE SMOOTH",
"461 673 OFFCURVE",
"382 742 OFFCURVE",
"262 742 CURVE SMOOTH",
"195 742 OFFCURVE",
"133 724 OFFCURVE",
"72 687 CURVE",
"72 595 LINE",
"135 639 OFFCURVE",
"194 662 OFFCURVE",
"245 662 CURVE SMOOTH",
"316 662 OFFCURVE",
"362 622 OFFCURVE",
"362 565 CURVE SMOOTH",
"362 533 OFFCURVE",
"346 504 OFFCURVE",
"309 469 CURVE SMOOTH",
"265 426 LINE SMOOTH",
"206 370 OFFCURVE",
"194 336 OFFCURVE",
"194 271 CURVE SMOOTH",
"194 196 LINE"
);
},
{
closed = 1;
nodes = (
"290 0 LINE",
"290 124 LINE",
"191 124 LINE",
"191 0 LINE"
);
}
);
width = 531;
},
{
layerId = "5297CC84-2E5E-44C2-8BD8-B52BBF62A592";
paths = (
{
closed = 1;
nodes = (
"346 246 LINE",
"346 268 LINE SMOOTH",
"346 297 OFFCURVE",
"356 317 OFFCURVE",
"400 357 CURVE SMOOTH",
"431 385 LINE SMOOTH",
"492 442 OFFCURVE",
"515 488 OFFCURVE",
"515 552 CURVE SMOOTH",
"515 676 OFFCURVE",
"430 742 OFFCURVE",
"271 742 CURVE SMOOTH",
"211 742 OFFCURVE",
"148 730 OFFCURVE",
"69 702 CURVE",
"69 549 LINE",
"136 592 OFFCURVE",
"197 614 OFFCURVE",
"250 614 CURVE SMOOTH",
"306 614 OFFCURVE",
"339 586 OFFCURVE",
"339 541 CURVE SMOOTH",
"339 512 OFFCURVE",
"322 483 OFFCURVE",
"285 448 CURVE SMOOTH",
"254 420 LINE SMOOTH",
"185 356 OFFCURVE",
"170 323 OFFCURVE",
"170 270 CURVE SMOOTH",
"170 246 LINE"
);
},
{
closed = 1;
nodes = (
"346 0 LINE",
"346 174 LINE",
"170 174 LINE",
"170 0 LINE"
);
}
);
width = 580;
},
{
layerId = "79D829DC-9C66-44C2-8B43-D291CF08F0E9";
paths = (
{
closed = 1;
nodes = (
"260 196 LINE",
"272 256 LINE SMOOTH",
"284 316 OFFCURVE",
"294 336 OFFCURVE",
"349 379 CURVE SMOOTH",
"400 420 LINE SMOOTH",
"479 484 OFFCURVE",
"511 539 OFFCURVE",
"511 606 CURVE SMOOTH",
"511 690 OFFCURVE",
"446 742 OFFCURVE",
"342 742 CURVE SMOOTH",
"273 742 OFFCURVE",
"208 724 OFFCURVE",
"141 687 CURVE",
"123 595 LINE",
"191 638 OFFCURVE",
"257 662 OFFCURVE",
"309 662 CURVE SMOOTH",
"372 662 OFFCURVE",
"409 632 OFFCURVE",
"409 583 CURVE SMOOTH",
"409 546 OFFCURVE",
"390 514 OFFCURVE",
"335 469 CURVE SMOOTH",
"283 426 LINE SMOOTH",
"211 366 OFFCURVE",
"194 332 OFFCURVE",
"182 271 CURVE SMOOTH",
"167 196 LINE"
);
},
{
closed = 1;
nodes = (
"225 0 LINE",
"249 124 LINE",
"150 124 LINE",
"126 0 LINE"
);
}
);
width = 531;
},
{
layerId = "D5B43B4B-63DF-4B35-BEE3-B41B34784265";
paths = (
{
closed = 1;
nodes = (
"328 246 LINE",
"332 268 LINE SMOOTH",
"337 296 OFFCURVE",
"351 317 OFFCURVE",
"403 357 CURVE SMOOTH",
"440 386 LINE SMOOTH",
"523 453 OFFCURVE",
"554 509 OFFCURVE",
"554 586 CURVE SMOOTH",
"554 683 OFFCURVE",
"479 742 OFFCURVE",
"352 742 CURVE SMOOTH",
"289 742 OFFCURVE",
"223 730 OFFCURVE",
"140 702 CURVE",
"110 549 LINE",
"185 592 OFFCURVE",
"251 614 OFFCURVE",
"303 614 CURVE SMOOTH",
"352 614 OFFCURVE",
"380 593 OFFCURVE",
"380 556 CURVE SMOOTH",
"380 521 OFFCURVE",
"358 488 OFFCURVE",
"306 448 CURVE SMOOTH",
"270 420 LINE SMOOTH",
"185 353 OFFCURVE",
"167 322 OFFCURVE",
"156 270 CURVE",
"152 246 LINE"
);
},
{
closed = 1;
nodes = (
"280 0 LINE",
"314 174 LINE",
"138 174 LINE",
"104 0 LINE"
);
}
);
width = 580;
}
);
note = question;
unicode = 003F;
},
{
export = 0;
glyphname = asterisk;
layers = (
{
layerId = "EB88A49E-561A-4405-9552-C71224CBA53C";
paths = (
{
closed = 1;
nodes = (
"278 286 LINE",
"278 470 LINE",
"442 371 LINE",
"470 419 LINE",
"295 514 LINE",
"470 609 LINE",
"442 657 LINE",
"278 558 LINE",
"278 742 LINE",
"222 742 LINE",
"222 558 LINE",
"58 657 LINE",
"30 609 LINE",
"205 514 LINE",
"30 419 LINE",
"58 371 LINE",
"222 470 LINE",
"222 286 LINE"
);
}
);
width = 500;
},
{
layerId = "5297CC84-2E5E-44C2-8BD8-B52BBF62A592";
paths = (
{
closed = 1;
nodes = (
"303 278 LINE",
"303 446 LINE",
"466 356 LINE",
"503 425 LINE",
"342 510 LINE",
"503 594 LINE",
"466 663 LINE",
"303 574 LINE",
"303 742 LINE",
"220 742 LINE",
"220 574 LINE",
"57 663 LINE",
"20 594 LINE",
"183 510 LINE",
"20 425 LINE",
"57 356 LINE",
"220 446 LINE",
"220 278 LINE"
);
}
);
width = 523;
},
{
layerId = "79D829DC-9C66-44C2-8B43-D291CF08F0E9";
paths = (
{
closed = 1;
nodes = (
"278 286 LINE",
"278 470 LINE",
"442 371 LINE",
"470 419 LINE",
"295 514 LINE",
"470 609 LINE",
"442 657 LINE",
"278 558 LINE",
"278 742 LINE",
"222 742 LINE",
"222 558 LINE",
"58 657 LINE",
"30 609 LINE",
"205 514 LINE",
"30 419 LINE",
"58 371 LINE",
"222 470 LINE",
"222 286 LINE"
);
}
);
width = 500;
},
{
layerId = "D5B43B4B-63DF-4B35-BEE3-B41B34784265";
paths = (
{
closed = 1;
nodes = (
"303 278 LINE",
"303 446 LINE",
"466 356 LINE",
"503 425 LINE",
"342 510 LINE",
"503 594 LINE",
"466 663 LINE",
"303 574 LINE",
"303 742 LINE",
"220 742 LINE",
"220 574 LINE",
"57 663 LINE",
"20 594 LINE",
"183 510 LINE",
"20 425 LINE",
"57 356 LINE",
"220 446 LINE",
"220 278 LINE"
);
}
);
width = 523;
}
);
note = asterisk;
unicode = 002A;
},
{
export = 0;
glyphname = numbersign;
layers = (
{
layerId = "EB88A49E-561A-4405-9552-C71224CBA53C";
paths = (
{
closed = 1;
nodes = (
"259 0 LINE",
"309 202 LINE",
"452 202 LINE",
"402 0 LINE",
"480 0 LINE",
"531 202 LINE",
"705 202 LINE",
"705 277 LINE",
"550 277 LINE",
"590 440 LINE",
"761 440 LINE",
"761 515 LINE",
"609 515 LINE",
"659 718 LINE",
"581 718 LINE",
"530 515 LINE",
"387 515 LINE",
"438 718 LINE",
"359 718 LINE",
"309 515 LINE",
"133 515 LINE",
"133 440 LINE",
"290 440 LINE",
"249 277 LINE",
"77 277 LINE",
"77 202 LINE",
"231 202 LINE",
"180 0 LINE"
);
},
{
closed = 1;
nodes = (
"369 440 LINE",
"511 440 LINE",
"471 277 LINE",
"328 277 LINE"
);
}
);
width = 838;
},
{
layerId = "5297CC84-2E5E-44C2-8BD8-B52BBF62A592";
paths = (
{
closed = 1;
nodes = (
"266 0 LINE",
"313 187 LINE",
"442 187 LINE",
"395 0 LINE",
"503 0 LINE",
"550 187 LINE",
"714 187 LINE",
"714 292 LINE",
"575 292 LINE",
"609 426 LINE",
"770 426 LINE",
"770 530 LINE",
"635 530 LINE",
"682 718 LINE",
"574 718 LINE",
"527 530 LINE",
"398 530 LINE",
"445 718 LINE",
"336 718 LINE",
"289 530 LINE",
"124 530 LINE",
"124 426 LINE",
"262 426 LINE",
"228 292 LINE",
"68 292 LINE",
"68 187 LINE",
"204 187 LINE",
"157 0 LINE"
);
},
{
closed = 1;
nodes = (
"371 426 LINE",
"500 426 LINE",
"466 292 LINE",
"337 292 LINE"
);
}
);
width = 838;
},
{
layerId = "79D829DC-9C66-44C2-8B43-D291CF08F0E9";
paths = (
{
closed = 1;
nodes = (
"259 0 LINE",
"309 202 LINE",
"452 202 LINE",
"402 0 LINE",
"480 0 LINE",
"531 202 LINE",
"698 202 LINE",
"716 277 LINE",
"550 277 LINE",
"590 440 LINE",
"754 440 LINE",
"773 515 LINE",
"609 515 LINE",
"659 718 LINE",
"581 718 LINE",
"530 515 LINE",
"387 515 LINE",
"438 718 LINE",
"359 718 LINE",
"309 515 LINE",
"145 515 LINE",
"126 440 LINE",
"290 440 LINE",
"249 277 LINE",
"88 277 LINE",
"70 202 LINE",
"231 202 LINE",
"180 0 LINE"
);
},
{
closed = 1;
nodes = (
"369 440 LINE",
"511 440 LINE",
"471 277 LINE",
"328 277 LINE"
);
}
);
width = 838;
},
{
layerId = "D5B43B4B-63DF-4B35-BEE3-B41B34784265";
paths = (
{
closed = 1;
nodes = (
"266 0 LINE",
"313 187 LINE",
"442 187 LINE",
"395 0 LINE",
"503 0 LINE",
"550 187 LINE",
"694 187 LINE",
"720 292 LINE",
"575 292 LINE",
"609 426 LINE",
"754 426 LINE",
"780 530 LINE",
"635 530 LINE",
"682 718 LINE",
"574 718 LINE",
"527 530 LINE",
"398 530 LINE",
"445 718 LINE",
"336 718 LINE",
"289 530 LINE",
"150 530 LINE",
"124 426 LINE",
"262 426 LINE",
"228 292 LINE",
"91 292 LINE",
"65 187 LINE",
"204 187 LINE",
"157 0 LINE"
);
},
{
closed = 1;
nodes = (
"371 426 LINE",
"500 426 LINE",
"466 292 LINE",
"337 292 LINE"
);
}
);
width = 696;
}
);
note = numbersign;
unicode = 0023;
},
{
export = 0;
glyphname = slash;
layers = (
{
layerId = "EB88A49E-561A-4405-9552-C71224CBA53C";
paths = (
{
closed = 1;
nodes = (
"83 -93 LINE",
"337 729 LINE",
"254 729 LINE",
"0 -93 LINE"
);
}
);
width = 337;
},
{
layerId = "5297CC84-2E5E-44C2-8BD8-B52BBF62A592";
paths = (
{
closed = 1;
nodes = (
"108 -93 LINE",
"365 729 LINE",
"257 729 LINE",
"0 -93 LINE"
);
}
);
width = 365;
},
{
layerId = "79D829DC-9C66-44C2-8B43-D291CF08F0E9";
paths = (
{
closed = 1;
nodes = (
"13 -93 LINE",
"427 729 LINE",
"340 729 LINE",
"-73 -93 LINE"
);
}
);
width = 337;
},
{
layerId = "D5B43B4B-63DF-4B35-BEE3-B41B34784265";
paths = (
{
closed = 1;
nodes = (
"17 -93 LINE",
"434 729 LINE",
"321 729 LINE",
"-96 -93 LINE"
);
}
);
width = 365;
}
);
note = slash;
unicode = 002F;
},
{
export = 0;
glyphname = backslash;
layers = (
{
layerId = "EB88A49E-561A-4405-9552-C71224CBA53C";
paths = (
{
closed = 1;
nodes = (
"337 -93 LINE",
"83 729 LINE",
"0 729 LINE",
"254 -93 LINE"
);
}
);
width = 337;
},
{
layerId = "5297CC84-2E5E-44C2-8BD8-B52BBF62A592";
paths = (
{
closed = 1;
nodes = (
"365 -93 LINE",
"108 729 LINE",
"0 729 LINE",
"257 -93 LINE"
);
}
);
width = 365;
},
{
layerId = "79D829DC-9C66-44C2-8B43-D291CF08F0E9";
paths = (
{
closed = 1;
nodes = (
"262 -93 LINE",
"168 729 LINE",
"85 729 LINE",
"180 -93 LINE"
);
}
);
width = 337;
},
{
layerId = "D5B43B4B-63DF-4B35-BEE3-B41B34784265";
paths = (
{
closed = 1;
nodes = (
"276 -93 LINE",
"179 729 LINE",
"71 729 LINE",
"168 -93 LINE"
);
}
);
width = 365;
}
);
note = backslash;
unicode = 005C;
},
{
export = 0;
glyphname = parenleft;
layers = (
{
layerId = "EB88A49E-561A-4405-9552-C71224CBA53C";
paths = (
{
closed = 1;
nodes = (
"310 -132 LINE",
"223 17 OFFCURVE",
"181 163 OFFCURVE",
"181 314 CURVE SMOOTH",
"181 465 OFFCURVE",
"223 608 OFFCURVE",
"310 759 CURVE",
"232 759 LINE",
"133 606 OFFCURVE",
"86 459 OFFCURVE",
"86 314 CURVE SMOOTH",
"86 169 OFFCURVE",
"135 21 OFFCURVE",
"232 -132 CURVE"
);
}
);
width = 390;
},
{
layerId = "5297CC84-2E5E-44C2-8BD8-B52BBF62A592";
paths = (
{
closed = 1;
nodes = (
"377 -132 LINE",
"293 23 OFFCURVE",
"252 170 OFFCURVE",
"252 314 CURVE SMOOTH",
"252 458 OFFCURVE",
"293 604 OFFCURVE",
"377 759 CURVE",
"232 759 LINE",
"133 599 OFFCURVE",
"86 456 OFFCURVE",
"86 313 CURVE SMOOTH",
"86 170 OFFCURVE",
"132 29 OFFCURVE",
"232 -132 CURVE"
);
}
);
width = 457;
},
{
layerId = "79D829DC-9C66-44C2-8B43-D291CF08F0E9";
paths = (
{
closed = 1;
nodes = (
"244 -132 LINE",
"195 -32 OFFCURVE",
"170 69 OFFCURVE",
"170 172 CURVE SMOOTH",
"170 352 OFFCURVE",
"254 543 OFFCURVE",
"427 759 CURVE",
"347 759 LINE",
"166 570 OFFCURVE",
"77 380 OFFCURVE",
"77 187 CURVE SMOOTH",
"77 86 OFFCURVE",
"106 -20 OFFCURVE",
"166 -132 CURVE"
);
}
);
width = 390;
},
{
layerId = "D5B43B4B-63DF-4B35-BEE3-B41B34784265";
paths = (
{
closed = 1;
nodes = (
"295 -132 LINE",
"260 -32 OFFCURVE",
"242 65 OFFCURVE",
"242 162 CURVE SMOOTH",
"242 361 OFFCURVE",
"316 556 OFFCURVE",
"468 759 CURVE",
"326 759 LINE",
"159 566 OFFCURVE",
"77 374 OFFCURVE",
"77 182 CURVE SMOOTH",
"77 79 OFFCURVE",
"102 -24 OFFCURVE",
"153 -132 CURVE"
);
}
);
width = 457;
}
);
note = parenleft;
unicode = 0028;
},
{
export = 0;
glyphname = parenright;
layers = (
{
layerId = "EB88A49E-561A-4405-9552-C71224CBA53C";
paths = (
{
closed = 1;
nodes = (
"158 -132 LINE",
"255 21 OFFCURVE",
"304 169 OFFCURVE",
"304 314 CURVE SMOOTH",
"304 459 OFFCURVE",
"255 606 OFFCURVE",
"158 759 CURVE",
"80 759 LINE",
"167 608 OFFCURVE",
"209 465 OFFCURVE",
"209 314 CURVE SMOOTH",
"209 163 OFFCURVE",
"167 17 OFFCURVE",
"80 -132 CURVE"
);
}
);
width = 390;
},
{
layerId = "5297CC84-2E5E-44C2-8BD8-B52BBF62A592";
paths = (
{
closed = 1;
nodes = (
"225 -132 LINE",
"325 29 OFFCURVE",
"371 170 OFFCURVE",
"371 313 CURVE SMOOTH",
"371 456 OFFCURVE",
"324 599 OFFCURVE",
"225 759 CURVE",
"80 759 LINE",
"164 604 OFFCURVE",
"205 458 OFFCURVE",
"205 314 CURVE SMOOTH",
"205 170 OFFCURVE",
"164 23 OFFCURVE",
"80 -132 CURVE"
);
}
);
width = 457;
},
{
layerId = "79D829DC-9C66-44C2-8B43-D291CF08F0E9";
paths = (
{
closed = 1;
nodes = (
"18 -132 LINE",
"198 56 OFFCURVE",
"288 246 OFFCURVE",
"288 441 CURVE SMOOTH",
"288 542 OFFCURVE",
"259 646 OFFCURVE",
"199 759 CURVE",
"121 759 LINE",
"170 659 OFFCURVE",
"195 558 OFFCURVE",
"195 455 CURVE SMOOTH",
"195 275 OFFCURVE",
"111 84 OFFCURVE",
"-62 -132 CURVE"
);
}
);
width = 390;
},
{
layerId = "D5B43B4B-63DF-4B35-BEE3-B41B34784265";
paths = (
{
closed = 1;
nodes = (
"116 -132 LINE",
"281 60 OFFCURVE",
"364 250 OFFCURVE",
"364 445 CURVE SMOOTH",
"364 549 OFFCURVE",
"340 652 OFFCURVE",
"289 759 CURVE",
"146 759 LINE",
"182 659 OFFCURVE",
"199 563 OFFCURVE",
"199 466 CURVE SMOOTH",
"199 266 OFFCURVE",
"125 71 OFFCURVE",
"-27 -132 CURVE"
);
}
);
width = 457;
}
);
note = parenright;
unicode = 0029;
},
{
export = 0;
glyphname = braceleft;
layers = (
{
layerId = "EB88A49E-561A-4405-9552-C71224CBA53C";
paths = (
{
closed = 1;
nodes = (
"511 -163 LINE",
"511 -93 LINE",
"478 -93 LINE SMOOTH",
"386 -93 OFFCURVE",
"367 -73 OFFCURVE",
"367 19 CURVE SMOOTH",
"367 140 LINE SMOOTH",
"367 241 OFFCURVE",
"341 282 OFFCURVE",
"269 299 CURVE",
"341 315 OFFCURVE",
"367 354 OFFCURVE",
"367 457 CURVE SMOOTH",
"367 578 LINE SMOOTH",
"367 670 OFFCURVE",
"386 690 OFFCURVE",
"478 690 CURVE SMOOTH",
"511 690 LINE",
"511 760 LINE",
"481 760 LINE SMOOTH",
"318 760 OFFCURVE",
"277 724 OFFCURVE",
"277 580 CURVE SMOOTH",
"277 463 LINE SMOOTH",
"277 366 OFFCURVE",
"248 334 OFFCURVE",
"155 334 CURVE SMOOTH",
"125 334 LINE",
"125 264 LINE",
"155 264 LINE SMOOTH",
"247 264 OFFCURVE",
"277 233 OFFCURVE",
"277 134 CURVE SMOOTH",
"277 17 LINE SMOOTH",
"277 -127 OFFCURVE",
"318 -163 OFFCURVE",
"481 -163 CURVE SMOOTH"
);
}
);
width = 636;
},
{
layerId = "5297CC84-2E5E-44C2-8BD8-B52BBF62A592";
paths = (
{
closed = 1;
nodes = (
"587 -163 LINE",
"587 -53 LINE",
"553 -53 LINE SMOOTH",
"461 -53 OFFCURVE",
"443 -34 OFFCURVE",
"443 59 CURVE SMOOTH",
"443 140 LINE SMOOTH",
"443 241 OFFCURVE",
"417 282 OFFCURVE",
"345 299 CURVE",
"417 315 OFFCURVE",
"443 354 OFFCURVE",
"443 457 CURVE SMOOTH",
"443 538 LINE SMOOTH",
"443 630 OFFCURVE",
"461 650 OFFCURVE",
"553 650 CURVE SMOOTH",
"587 650 LINE",
"587 760 LINE",
"481 760 LINE SMOOTH",
"340 760 OFFCURVE",
"277 705 OFFCURVE",
"277 580 CURVE SMOOTH",
"277 480 LINE SMOOTH",
"277 383 OFFCURVE",
"247 350 OFFCURVE",
"155 350 CURVE SMOOTH",
"125 350 LINE",
"125 241 LINE",
"155 241 LINE SMOOTH",
"247 241 OFFCURVE",
"277 208 OFFCURVE",
"277 111 CURVE SMOOTH",
"277 17 LINE SMOOTH",
"277 -108 OFFCURVE",
"340 -163 OFFCURVE",
"481 -163 CURVE SMOOTH"
);
}
);
width = 712;
},
{
layerId = "79D829DC-9C66-44C2-8B43-D291CF08F0E9";
paths = (
{
closed = 1;
nodes = (
"425 -163 LINE",
"439 -93 LINE",
"401 -93 LINE SMOOTH",
"338 -93 OFFCURVE",
"312 -75 OFFCURVE",
"312 -34 CURVE SMOOTH",
"312 -18 OFFCURVE",
"313 -2 OFFCURVE",
"317 19 CURVE SMOOTH",
"340 138 LINE SMOOTH",
"344 162 OFFCURVE",
"347 184 OFFCURVE",
"347 200 CURVE SMOOTH",
"347 249 OFFCURVE",
"320 284 OFFCURVE",
"272 296 CURVE",
"344 309 OFFCURVE",
"380 351 OFFCURVE",
"401 455 CURVE SMOOTH",
"426 578 LINE SMOOTH",
"446 675 OFFCURVE",
"465 690 OFFCURVE",
"553 690 CURVE SMOOTH",
"591 690 LINE",
"605 760 LINE",
"565 760 LINE SMOOTH",
"478 760 OFFCURVE",
"441 752 OFFCURVE",
"410 729 CURVE SMOOTH",
"374 704 OFFCURVE",
"353 660 OFFCURVE",
"336 580 CURVE SMOOTH",
"313 461 LINE SMOOTH",
"292 362 OFFCURVE",
"258 334 OFFCURVE",
"165 334 CURVE SMOOTH",
"135 334 LINE",
"121 262 LINE",
"151 262 LINE SMOOTH",
"224 262 OFFCURVE",
"254 240 OFFCURVE",
"254 184 CURVE SMOOTH",
"254 169 OFFCURVE",
"252 154 OFFCURVE",
"249 138 CURVE SMOOTH",
"248 135 OFFCURVE",
"248 133 OFFCURVE",
"248 132 CURVE",
"226 17 LINE SMOOTH",
"222 -7 OFFCURVE",
"219 -29 OFFCURVE",
"219 -50 CURVE SMOOTH",
"219 -130 OFFCURVE",
"267 -163 OFFCURVE",
"390 -163 CURVE SMOOTH"
);
}
);
width = 636;
},
{
layerId = "D5B43B4B-63DF-4B35-BEE3-B41B34784265";
paths = (
{
closed = 1;
nodes = (
"490 -163 LINE",
"511 -53 LINE",
"478 -53 LINE SMOOTH",
"402 -53 OFFCURVE",
"382 -39 OFFCURVE",
"382 5 CURVE SMOOTH",
"382 16 OFFCURVE",
"384 30 OFFCURVE",
"389 59 CURVE SMOOTH",
"405 140 LINE SMOOTH",
"410 167 OFFCURVE",
"413 187 OFFCURVE",
"413 207 CURVE SMOOTH",
"413 258 OFFCURVE",
"390 286 OFFCURVE",
"338 299 CURVE",
"413 315 OFFCURVE",
"446 356 OFFCURVE",
"466 457 CURVE SMOOTH",
"482 538 LINE SMOOTH",
"501 630 OFFCURVE",
"523 650 OFFCURVE",
"614 650 CURVE SMOOTH",
"648 650 LINE",
"669 760 LINE",
"563 760 LINE SMOOTH",
"420 760 OFFCURVE",
"348 705 OFFCURVE",
"324 580 CURVE SMOOTH",
"305 480 LINE SMOOTH",
"286 383 OFFCURVE",
"250 350 OFFCURVE",
"158 350 CURVE SMOOTH",
"128 350 LINE",
"106 241 LINE",
"137 241 LINE SMOOTH",
"213 241 OFFCURVE",
"239 220 OFFCURVE",
"239 163 CURVE SMOOTH",
"239 148 OFFCURVE",
"237 130 OFFCURVE",
"233 111 CURVE SMOOTH",
"215 17 LINE SMOOTH",
"210 -10 OFFCURVE",
"208 -28 OFFCURVE",
"208 -43 CURVE SMOOTH",
"208 -123 OFFCURVE",
"267 -163 OFFCURVE",
"384 -163 CURVE SMOOTH"
);
}
);
width = 712;
}
);
note = braceleft;
unicode = 007B;
},
{
export = 0;
glyphname = braceright;
layers = (
{
layerId = "EB88A49E-561A-4405-9552-C71224CBA53C";
paths = (
{
closed = 1;
nodes = (
"156 -163 LINE SMOOTH",
"317 -163 OFFCURVE",
"359 -127 OFFCURVE",
"359 17 CURVE SMOOTH",
"359 134 LINE SMOOTH",
"359 233 OFFCURVE",
"389 264 OFFCURVE",
"481 264 CURVE SMOOTH",
"511 264 LINE",
"511 334 LINE",
"481 334 LINE SMOOTH",
"389 334 OFFCURVE",
"359 366 OFFCURVE",
"359 463 CURVE SMOOTH",
"359 580 LINE SMOOTH",
"359 724 OFFCURVE",
"317 760 OFFCURVE",
"156 760 CURVE SMOOTH",
"125 760 LINE",
"125 690 LINE",
"159 690 LINE SMOOTH",
"251 690 OFFCURVE",
"269 670 OFFCURVE",
"269 578 CURVE SMOOTH",
"269 457 LINE SMOOTH",
"269 354 OFFCURVE",
"295 315 OFFCURVE",
"367 299 CURVE",
"295 282 OFFCURVE",
"269 241 OFFCURVE",
"269 140 CURVE SMOOTH",
"269 19 LINE SMOOTH",
"269 -74 OFFCURVE",
"251 -93 OFFCURVE",
"159 -93 CURVE SMOOTH",
"125 -93 LINE",
"125 -163 LINE"
);
}
);
width = 636;
},
{
layerId = "5297CC84-2E5E-44C2-8BD8-B52BBF62A592";
paths = (
{
closed = 1;
nodes = (
"231 -163 LINE SMOOTH",
"372 -163 OFFCURVE",
"435 -108 OFFCURVE",
"435 17 CURVE SMOOTH",
"435 111 LINE SMOOTH",
"435 208 OFFCURVE",
"465 241 OFFCURVE",
"557 241 CURVE SMOOTH",
"587 241 LINE",
"587 350 LINE",
"557 350 LINE SMOOTH",
"465 350 OFFCURVE",
"435 383 OFFCURVE",
"435 480 CURVE SMOOTH",
"435 580 LINE SMOOTH",
"435 705 OFFCURVE",
"372 760 OFFCURVE",
"231 760 CURVE SMOOTH",
"125 760 LINE",
"125 650 LINE",
"159 650 LINE SMOOTH",
"251 650 OFFCURVE",
"269 630 OFFCURVE",
"269 538 CURVE SMOOTH",
"269 457 LINE SMOOTH",
"269 354 OFFCURVE",
"295 315 OFFCURVE",
"367 299 CURVE",
"295 282 OFFCURVE",
"269 241 OFFCURVE",
"269 140 CURVE SMOOTH",
"269 59 LINE SMOOTH",
"269 -34 OFFCURVE",
"251 -53 OFFCURVE",
"159 -53 CURVE SMOOTH",
"125 -53 LINE",
"125 -163 LINE"
);
}
);
width = 712;
},
{
layerId = "79D829DC-9C66-44C2-8B43-D291CF08F0E9";
paths = (
{
closed = 1;
nodes = (
"47 -163 LINE SMOOTH",
"134 -163 OFFCURVE",
"171 -153 OFFCURVE",
"202 -132 CURVE SMOOTH",
"237 -107 OFFCURVE",
"258 -64 OFFCURVE",
"275 17 CURVE SMOOTH",
"301 136 LINE SMOOTH",
"320 233 OFFCURVE",
"352 263 OFFCURVE",
"447 263 CURVE SMOOTH",
"477 263 LINE",
"491 335 LINE",
"461 335 LINE SMOOTH",
"388 335 OFFCURVE",
"358 357 OFFCURVE",
"358 413 CURVE SMOOTH",
"358 428 OFFCURVE",
"360 443 OFFCURVE",
"363 459 CURVE",
"364 462 OFFCURVE",
"364 464 OFFCURVE",
"364 465 CURVE",
"386 580 LINE SMOOTH",
"391 605 OFFCURVE",
"393 627 OFFCURVE",
"393 647 CURVE SMOOTH",
"393 727 OFFCURVE",
"343 760 OFFCURVE",
"222 760 CURVE SMOOTH",
"186 760 LINE",
"173 690 LINE",
"211 690 LINE SMOOTH",
"274 690 OFFCURVE",
"300 672 OFFCURVE",
"300 631 CURVE SMOOTH",
"300 615 OFFCURVE",
"299 599 OFFCURVE",
"295 578 CURVE SMOOTH",
"272 459 LINE SMOOTH",
"268 434 OFFCURVE",
"265 413 OFFCURVE",
"265 397 CURVE SMOOTH",
"265 348 OFFCURVE",
"292 313 OFFCURVE",
"340 301 CURVE",
"268 288 OFFCURVE",
"232 246 OFFCURVE",
"211 142 CURVE SMOOTH",
"186 19 LINE SMOOTH",
"166 -78 OFFCURVE",
"147 -93 OFFCURVE",
"59 -93 CURVE SMOOTH",
"21 -93 LINE",
"7 -163 LINE"
);
}
);
width = 636;
},
{
layerId = "D5B43B4B-63DF-4B35-BEE3-B41B34784265";
paths = (
{
closed = 1;
nodes = (
"150 -163 LINE SMOOTH",
"293 -163 OFFCURVE",
"365 -108 OFFCURVE",
"389 17 CURVE SMOOTH",
"407 111 LINE SMOOTH",
"426 208 OFFCURVE",
"462 241 OFFCURVE",
"554 241 CURVE SMOOTH",
"584 241 LINE",
"606 350 LINE",
"575 350 LINE SMOOTH",
"500 350 OFFCURVE",
"473 371 OFFCURVE",
"473 428 CURVE SMOOTH",
"473 443 OFFCURVE",
"475 460 OFFCURVE",
"479 480 CURVE SMOOTH",
"498 580 LINE SMOOTH",
"502 603 OFFCURVE",
"505 621 OFFCURVE",
"505 640 CURVE SMOOTH",
"505 720 OFFCURVE",
"446 760 OFFCURVE",
"330 760 CURVE SMOOTH",
"223 760 LINE",
"202 650 LINE",
"235 650 LINE SMOOTH",
"311 650 OFFCURVE",
"331 636 OFFCURVE",
"331 592 CURVE SMOOTH",
"331 580 OFFCURVE",
"329 566 OFFCURVE",
"324 538 CURVE SMOOTH",
"308 457 LINE SMOOTH",
"303 428 OFFCURVE",
"300 406 OFFCURVE",
"300 390 CURVE SMOOTH",
"300 339 OFFCURVE",
"324 311 OFFCURVE",
"376 299 CURVE",
"301 282 OFFCURVE",
"267 241 OFFCURVE",
"247 140 CURVE SMOOTH",
"231 59 LINE SMOOTH",
"214 -33 OFFCURVE",
"190 -53 OFFCURVE",
"99 -53 CURVE SMOOTH",
"65 -53 LINE",
"44 -163 LINE"
);
}
);
width = 712;
}
);
note = braceright;
unicode = 007D;
},
{
export = 0;
glyphname = bracketleft;
layers = (
{
layerId = "EB88A49E-561A-4405-9552-C71224CBA53C";
paths = (
{
closed = 1;
nodes = (
"293 -132 LINE",
"293 -62 LINE",
"176 -62 LINE",
"176 690 LINE",
"293 690 LINE",
"293 760 LINE",
"86 760 LINE",
"86 -132 LINE"
);
}
);
width = 390;
},
{
layerId = "5297CC84-2E5E-44C2-8BD8-B52BBF62A592";
paths = (
{
closed = 1;
nodes = (
"389 -132 LINE",
"389 -22 LINE",
"252 -22 LINE",
"252 650 LINE",
"389 650 LINE",
"389 760 LINE",
"86 760 LINE",
"86 -132 LINE"
);
}
);
width = 457;
},
{
layerId = "79D829DC-9C66-44C2-8B43-D291CF08F0E9";
paths = (
{
closed = 1;
nodes = (
"247 -132 LINE",
"260 -62 LINE",
"143 -62 LINE",
"289 690 LINE",
"406 690 LINE",
"420 760 LINE",
"213 760 LINE",
"40 -132 LINE"
);
}
);
width = 390;
},
{
layerId = "D5B43B4B-63DF-4B35-BEE3-B41B34784265";
paths = (
{
closed = 1;
nodes = (
"292 -132 LINE",
"314 -22 LINE",
"177 -22 LINE",
"308 650 LINE",
"444 650 LINE",
"466 760 LINE",
"163 760 LINE",
"-10 -132 LINE"
);
}
);
width = 457;
}
);
note = bracketleft;
unicode = 005B;
},
{
export = 0;
glyphname = bracketright;
layers = (
{
layerId = "EB88A49E-561A-4405-9552-C71224CBA53C";
paths = (
{
closed = 1;
nodes = (
"304 -132 LINE",
"304 760 LINE",
"97 760 LINE",
"97 690 LINE",
"214 690 LINE",
"214 -62 LINE",
"97 -62 LINE",
"97 -132 LINE"
);
}
);
width = 390;
},
{
layerId = "5297CC84-2E5E-44C2-8BD8-B52BBF62A592";
paths = (
{
closed = 1;
nodes = (
"371 -132 LINE",
"371 760 LINE",
"68 760 LINE",
"68 650 LINE",
"205 650 LINE",
"205 -22 LINE",
"68 -22 LINE",
"68 -132 LINE"
);
}
);
width = 457;
},
{
layerId = "79D829DC-9C66-44C2-8B43-D291CF08F0E9";
paths = (
{
closed = 1;
nodes = (
"169 -132 LINE",
"342 760 LINE",
"135 760 LINE",
"122 690 LINE",
"238 690 LINE",
"92 -62 LINE",
"-25 -62 LINE",
"-38 -132 LINE"
);
}
);
width = 390;
},
{
layerId = "D5B43B4B-63DF-4B35-BEE3-B41B34784265";
paths = (
{
closed = 1;
nodes = (
"275 -132 LINE",
"448 760 LINE",
"145 760 LINE",
"124 650 LINE",
"261 650 LINE",
"130 -22 LINE",
"-7 -22 LINE",
"-28 -132 LINE"
);
}
);
width = 457;
}
);
note = bracketright;
unicode = 005D;
},
{
export = 0;
glyphname = hyphen;
layers = (
{
layerId = "EB88A49E-561A-4405-9552-C71224CBA53C";
paths = (
{
closed = 1;
nodes = (
"312 234 LINE",
"312 314 LINE",
"49 314 LINE",
"49 234 LINE"
);
}
);
width = 361;
},
{
layerId = "5297CC84-2E5E-44C2-8BD8-B52BBF62A592";
paths = (
{
closed = 1;
nodes = (
"361 217 LINE",
"361 359 LINE",
"54 359 LINE",
"54 217 LINE"
);
}
);
width = 415;
},
{
layerId = "79D829DC-9C66-44C2-8B43-D291CF08F0E9";
paths = (
{
closed = 1;
nodes = (
"309 234 LINE",
"324 314 LINE",
"61 314 LINE",
"45 234 LINE"
);
}
);
width = 361;
},
{
layerId = "D5B43B4B-63DF-4B35-BEE3-B41B34784265";
paths = (
{
closed = 1;
nodes = (
"332 217 LINE",
"360 359 LINE",
"53 359 LINE",
"25 217 LINE"
);
}
);
width = 415;
}
);
leftKerningGroup = hyphen;
note = hyphen;
rightKerningGroup = hyphen;
unicode = 002D;
},
{
export = 0;
glyphname = underscore;
layers = (
{
layerId = "EB88A49E-561A-4405-9552-C71224CBA53C";
paths = (
{
closed = 1;
nodes = (
"510 -236 LINE",
"510 -166 LINE",
"-10 -166 LINE",
"-10 -236 LINE"
);
}
);
width = 500;
},
{
layerId = "5297CC84-2E5E-44C2-8BD8-B52BBF62A592";
paths = (
{
closed = 1;
nodes = (
"500 -236 LINE",
"500 -143 LINE",
"0 -143 LINE",
"0 -236 LINE"
);
}
);
width = 500;
},
{
layerId = "79D829DC-9C66-44C2-8B43-D291CF08F0E9";
paths = (
{
closed = 1;
nodes = (
"510 -236 LINE",
"510 -166 LINE",
"-10 -166 LINE",
"-10 -236 LINE"
);
}
);
width = 500;
},
{
layerId = "D5B43B4B-63DF-4B35-BEE3-B41B34784265";
paths = (
{
closed = 1;
nodes = (
"510 -236 LINE",
"510 -143 LINE",
"-10 -143 LINE",
"-10 -236 LINE"
);
}
);
width = 500;
}
);
note = underscore;
unicode = 005F;
},
{
export = 0;
glyphname = quotedbl;
layers = (
{
layerId = "EB88A49E-561A-4405-9552-C71224CBA53C";
paths = (
{
closed = 1;
nodes = (
"364 458 LINE",
"364 729 LINE",
"281 729 LINE",
"281 458 LINE"
);
},
{
closed = 1;
nodes = (
"179 458 LINE",
"179 729 LINE",
"96 729 LINE",
"96 458 LINE"
);
}
);
width = 460;
},
{
layerId = "5297CC84-2E5E-44C2-8BD8-B52BBF62A592";
paths = (
{
closed = 1;
nodes = (
"426 458 LINE",
"426 729 LINE",
"310 729 LINE",
"310 458 LINE"
);
},
{
closed = 1;
nodes = (
"211 458 LINE",
"211 729 LINE",
"95 729 LINE",
"95 458 LINE"
);
}
);
width = 521;
},
{
layerId = "79D829DC-9C66-44C2-8B43-D291CF08F0E9";
paths = (
{
closed = 1;
nodes = (
"364 458 LINE",
"364 729 LINE",
"281 729 LINE",
"281 458 LINE"
);
},
{
closed = 1;
nodes = (
"179 458 LINE",
"179 729 LINE",
"96 729 LINE",
"96 458 LINE"
);
}
);
width = 460;
},
{
layerId = "D5B43B4B-63DF-4B35-BEE3-B41B34784265";
paths = (
{
closed = 1;
nodes = (
"426 458 LINE",
"426 729 LINE",
"310 729 LINE",
"310 458 LINE"
);
},
{
closed = 1;
nodes = (
"211 458 LINE",
"211 729 LINE",
"95 729 LINE",
"95 458 LINE"
);
}
);
width = 521;
}
);
note = quotedbl;
unicode = 0022;
},
{
export = 0;
glyphname = quotesingle;
layers = (
{
layerId = "EB88A49E-561A-4405-9552-C71224CBA53C";
paths = (
{
closed = 1;
nodes = (
"179 458 LINE",
"179 729 LINE",
"96 729 LINE",
"96 458 LINE"
);
}
);
width = 275;
},
{
layerId = "5297CC84-2E5E-44C2-8BD8-B52BBF62A592";
paths = (
{
closed = 1;
nodes = (
"211 458 LINE",
"211 729 LINE",
"95 729 LINE",
"95 458 LINE"
);
}
);
width = 306;
},
{
layerId = "79D829DC-9C66-44C2-8B43-D291CF08F0E9";
paths = (
{
closed = 1;
nodes = (
"179 458 LINE",
"179 729 LINE",
"96 729 LINE",
"96 458 LINE"
);
}
);
width = 275;
},
{
layerId = "D5B43B4B-63DF-4B35-BEE3-B41B34784265";
paths = (
{
closed = 1;
nodes = (
"211 458 LINE",
"211 729 LINE",
"95 729 LINE",
"95 458 LINE"
);
}
);
width = 306;
}
);
note = quotesingle;
unicode = 0027;
},
{
export = 0;
glyphname = dollar;
layers = (
{
layerId = "EB88A49E-561A-4405-9552-C71224CBA53C";
paths = (
{
closed = 1;
nodes = (
"338 -147 LINE",
"338 1 LINE",
"477 10 OFFCURVE",
"553 77 OFFCURVE",
"553 186 CURVE SMOOTH",
"553 287 OFFCURVE",
"486 344 OFFCURVE",
"338 367 CURVE",
"338 576 LINE",
"398 573 OFFCURVE",
"454 558 OFFCURVE",
"509 531 CURVE",
"509 616 LINE",
"454 633 OFFCURVE",
"398 645 OFFCURVE",
"338 646 CURVE",
"338 760 LINE",
"289 760 LINE",
"289 645 LINE",
"156 636 OFFCURVE",
"83 572 OFFCURVE",
"83 467 CURVE SMOOTH",
"83 370 OFFCURVE",
"145 316 OFFCURVE",
"289 292 CURVE",
"289 69 LINE",
"217 70 OFFCURVE",
"150 92 OFFCURVE",
"83 133 CURVE",
"83 45 LINE",
"152 16 OFFCURVE",
"220 1 OFFCURVE",
"289 0 CURVE",
"289 -147 LINE"
);
},
{
closed = 1;
nodes = (
"338 282 LINE",
"425 267 OFFCURVE",
"463 234 OFFCURVE",
"463 177 CURVE SMOOTH",
"463 118 OFFCURVE",
"421 82 OFFCURVE",
"338 71 CURVE"
);
},
{
closed = 1;
nodes = (
"208 389 OFFCURVE",
"173 419 OFFCURVE",
"173 475 CURVE SMOOTH",
"173 532 OFFCURVE",
"213 568 OFFCURVE",
"289 576 CURVE",
"289 376 LINE"
);
}
);
width = 636;
},
{
layerId = "5297CC84-2E5E-44C2-8BD8-B52BBF62A592";
paths = (
{
closed = 1;
nodes = (
"388 -147 LINE",
"388 1 LINE",
"549 10 OFFCURVE",
"628 74 OFFCURVE",
"628 194 CURVE SMOOTH",
"628 313 OFFCURVE",
"569 369 OFFCURVE",
"404 394 CURVE",
"388 397 LINE",
"388 537 LINE",
"455 534 OFFCURVE",
"519 519 OFFCURVE",
"584 491 CURVE",
"584 615 LINE",
"519 632 OFFCURVE",
"453 644 OFFCURVE",
"388 649 CURVE",
"388 760 LINE",
"309 760 LINE",
"309 647 LINE",
"161 642 OFFCURVE",
"78 573 OFFCURVE",
"78 457 CURVE SMOOTH",
"78 348 OFFCURVE",
"137 294 OFFCURVE",
"293 266 CURVE SMOOTH",
"309 263 LINE",
"309 111 LINE",
"230 114 OFFCURVE",
"154 134 OFFCURVE",
"79 173 CURVE",
"79 45 LINE",
"151 18 OFFCURVE",
"228 3 OFFCURVE",
"309 0 CURVE",
"309 -147 LINE"
);
},
{
closed = 1;
nodes = (
"388 249 LINE",
"449 242 OFFCURVE",
"473 222 OFFCURVE",
"473 178 CURVE SMOOTH",
"473 135 OFFCURVE",
"445 114 OFFCURVE",
"388 113 CURVE"
);
},
{
closed = 1;
nodes = (
"258 415 OFFCURVE",
"233 435 OFFCURVE",
"233 474 CURVE SMOOTH",
"233 509 OFFCURVE",
"262 533 OFFCURVE",
"309 536 CURVE",
"309 408 LINE"
);
}
);
width = 696;
},
{
layerId = "79D829DC-9C66-44C2-8B43-D291CF08F0E9";
paths = (
{
closed = 1;
nodes = (
"250 -147 LINE",
"279 0 LINE",
"434 8 OFFCURVE",
"534 90 OFFCURVE",
"534 203 CURVE SMOOTH",
"534 291 OFFCURVE",
"470 348 OFFCURVE",
"350 367 CURVE",
"391 576 LINE",
"443 575 OFFCURVE",
"497 557 OFFCURVE",
"553 528 CURVE",
"570 616 LINE",
"521 633 OFFCURVE",
"464 645 OFFCURVE",
"405 646 CURVE",
"427 760 LINE",
"378 760 LINE",
"355 646 LINE",
"208 634 OFFCURVE",
"111 552 OFFCURVE",
"111 444 CURVE SMOOTH",
"111 361 OFFCURVE",
"164 316 OFFCURVE",
"287 292 CURVE",
"244 69 LINE",
"175 72 OFFCURVE",
"110 94 OFFCURVE",
"50 135 CURVE",
"33 45 LINE",
"88 17 OFFCURVE",
"154 1 OFFCURVE",
"230 0 CURVE",
"201 -147 LINE"
);
},
{
closed = 1;
nodes = (
"334 282 LINE",
"409 270 OFFCURVE",
"440 242 OFFCURVE",
"440 187 CURVE SMOOTH",
"440 120 OFFCURVE",
"384 75 OFFCURVE",
"293 71 CURVE"
);
},
{
closed = 1;
nodes = (
"232 388 OFFCURVE",
"204 413 OFFCURVE",
"204 458 CURVE SMOOTH",
"204 523 OFFCURVE",
"255 567 OFFCURVE",
"342 576 CURVE",
"303 376 LINE"
);
}
);
width = 636;
},
{
layerId = "D5B43B4B-63DF-4B35-BEE3-B41B34784265";
paths = (
{
closed = 1;
nodes = (
"291 -147 LINE",
"319 0 LINE",
"498 5 OFFCURVE",
"600 90 OFFCURVE",
"600 234 CURVE SMOOTH",
"600 321 OFFCURVE",
"535 372 OFFCURVE",
"396 396 CURVE",
"424 537 LINE",
"501 532 OFFCURVE",
"565 516 OFFCURVE",
"606 492 CURVE",
"630 616 LINE",
"573 633 OFFCURVE",
"511 645 OFFCURVE",
"446 649 CURVE",
"467 760 LINE",
"388 760 LINE",
"367 648 LINE",
"200 643 OFFCURVE",
"96 556 OFFCURVE",
"96 427 CURVE SMOOTH",
"96 334 OFFCURVE",
"155 283 OFFCURVE",
"292 263 CURVE",
"262 111 LINE",
"185 114 OFFCURVE",
"114 134 OFFCURVE",
"51 170 CURVE",
"27 42 LINE",
"87 17 OFFCURVE",
"158 3 OFFCURVE",
"241 0 CURVE",
"212 -147 LINE"
);
},
{
closed = 1;
nodes = (
"368 250 LINE",
"419 243 OFFCURVE",
"442 225 OFFCURVE",
"442 192 CURVE SMOOTH",
"442 143 OFFCURVE",
"406 114 OFFCURVE",
"341 111 CURVE"
);
},
{
closed = 1;
nodes = (
"276 415 OFFCURVE",
"255 431 OFFCURVE",
"255 463 CURVE SMOOTH",
"255 503 OFFCURVE",
"290 531 OFFCURVE",
"345 536 CURVE",
"320 408 LINE"
);
}
);
width = 696;
}
);
note = dollar;
unicode = 0024;
},
{
export = 0;
glyphname = plus;
layers = (
{
layerId = "EB88A49E-561A-4405-9552-C71224CBA53C";
paths = (
{
closed = 1;
nodes = (
"460 0 LINE",
"460 272 LINE",
"732 272 LINE",
"732 355 LINE",
"460 355 LINE",
"460 627 LINE",
"378 627 LINE",
"378 355 LINE",
"106 355 LINE",
"106 272 LINE",
"378 272 LINE",
"378 0 LINE"
);
}
);
width = 838;
},
{
layerId = "5297CC84-2E5E-44C2-8BD8-B52BBF62A592";
paths = (
{
closed = 1;
nodes = (
"477 0 LINE",
"477 256 LINE",
"732 256 LINE",
"732 371 LINE",
"477 371 LINE",
"477 627 LINE",
"361 627 LINE",
"361 371 LINE",
"106 371 LINE",
"106 256 LINE",
"361 256 LINE",
"361 0 LINE"
);
}
);
width = 838;
},
{
layerId = "79D829DC-9C66-44C2-8B43-D291CF08F0E9";
paths = (
{
closed = 1;
nodes = (
"460 0 LINE",
"460 272 LINE",
"732 272 LINE",
"732 355 LINE",
"460 355 LINE",
"460 627 LINE",
"378 627 LINE",
"378 355 LINE",
"106 355 LINE",
"106 272 LINE",
"378 272 LINE",
"378 0 LINE"
);
}
);
width = 838;
},
{
layerId = "D5B43B4B-63DF-4B35-BEE3-B41B34784265";
paths = (
{
closed = 1;
nodes = (
"477 0 LINE",
"477 256 LINE",
"732 256 LINE",
"732 371 LINE",
"477 371 LINE",
"477 627 LINE",
"361 627 LINE",
"361 371 LINE",
"106 371 LINE",
"106 256 LINE",
"361 256 LINE",
"361 0 LINE"
);
}
);
width = 838;
}
);
note = plus;
unicode = 002B;
},
{
export = 0;
glyphname = equal;
layers = (
{
layerId = "EB88A49E-561A-4405-9552-C71224CBA53C";
paths = (
{
closed = 1;
nodes = (
"732 172 LINE",
"732 255 LINE",
"106 255 LINE",
"106 172 LINE"
);
},
{
closed = 1;
nodes = (
"732 372 LINE",
"732 454 LINE",
"106 454 LINE",
"106 372 LINE"
);
}
);
width = 838;
},
{
layerId = "5297CC84-2E5E-44C2-8BD8-B52BBF62A592";
paths = (
{
closed = 1;
nodes = (
"732 144 LINE",
"732 260 LINE",
"106 260 LINE",
"106 144 LINE"
);
},
{
closed = 1;
nodes = (
"732 367 LINE",
"732 482 LINE",
"106 482 LINE",
"106 367 LINE"
);
}
);
width = 838;
},
{
layerId = "79D829DC-9C66-44C2-8B43-D291CF08F0E9";
paths = (
{
closed = 1;
nodes = (
"732 172 LINE",
"732 255 LINE",
"106 255 LINE",
"106 172 LINE"
);
},
{
closed = 1;
nodes = (
"732 372 LINE",
"732 454 LINE",
"106 454 LINE",
"106 372 LINE"
);
}
);
width = 838;
},
{
layerId = "D5B43B4B-63DF-4B35-BEE3-B41B34784265";
paths = (
{
closed = 1;
nodes = (
"732 144 LINE",
"732 260 LINE",
"106 260 LINE",
"106 144 LINE"
);
},
{
closed = 1;
nodes = (
"732 367 LINE",
"732 482 LINE",
"106 482 LINE",
"106 367 LINE"
);
}
);
width = 838;
}
);
note = equal;
unicode = 003D;
},
{
export = 0;
glyphname = greater;
layers = (
{
layerId = "EB88A49E-561A-4405-9552-C71224CBA53C";
paths = (
{
closed = 1;
nodes = (
"732 273 LINE",
"732 354 LINE",
"106 581 LINE",
"106 492 LINE",
"609 313 LINE",
"106 135 LINE",
"106 46 LINE"
);
}
);
width = 838;
},
{
layerId = "5297CC84-2E5E-44C2-8BD8-B52BBF62A592";
paths = (
{
closed = 1;
nodes = (
"732 256 LINE",
"732 371 LINE",
"106 597 LINE",
"106 475 LINE",
"577 313 LINE",
"106 152 LINE",
"106 30 LINE"
);
}
);
width = 838;
},
{
layerId = "79D829DC-9C66-44C2-8B43-D291CF08F0E9";
paths = (
{
closed = 1;
nodes = (
"732 273 LINE",
"732 354 LINE",
"106 581 LINE",
"106 492 LINE",
"609 313 LINE",
"106 135 LINE",
"106 46 LINE"
);
}
);
width = 838;
},
{
layerId = "D5B43B4B-63DF-4B35-BEE3-B41B34784265";
paths = (
{
closed = 1;
nodes = (
"732 256 LINE",
"732 371 LINE",
"106 597 LINE",
"106 475 LINE",
"577 313 LINE",
"106 152 LINE",
"106 30 LINE"
);
}
);
width = 838;
}
);
note = greater;
unicode = 003E;
},
{
export = 0;
glyphname = less;
layers = (
{
layerId = "EB88A49E-561A-4405-9552-C71224CBA53C";
paths = (
{
closed = 1;
nodes = (
"732 135 LINE",
"228 313 LINE",
"732 492 LINE",
"732 581 LINE",
"106 354 LINE",
"106 273 LINE",
"732 46 LINE"
);
}
);
width = 838;
},
{
layerId = "5297CC84-2E5E-44C2-8BD8-B52BBF62A592";
paths = (
{
closed = 1;
nodes = (
"732 152 LINE",
"261 313 LINE",
"732 475 LINE",
"732 597 LINE",
"106 371 LINE",
"106 256 LINE",
"732 30 LINE"
);
}
);
width = 838;
},
{
layerId = "79D829DC-9C66-44C2-8B43-D291CF08F0E9";
paths = (
{
closed = 1;
nodes = (
"732 135 LINE",
"228 313 LINE",
"732 492 LINE",
"732 581 LINE",
"106 354 LINE",
"106 273 LINE",
"732 46 LINE"
);
}
);
width = 838;
},
{
layerId = "D5B43B4B-63DF-4B35-BEE3-B41B34784265";
paths = (
{
closed = 1;
nodes = (
"732 152 LINE",
"261 313 LINE",
"732 475 LINE",
"732 597 LINE",
"106 371 LINE",
"106 256 LINE",
"732 30 LINE"
);
}
);
width = 838;
}
);
note = less;
unicode = 003C;
},
{
export = 0;
glyphname = asciitilde;
layers = (
{
layerId = "EB88A49E-561A-4405-9552-C71224CBA53C";
paths = (
{
closed = 1;
nodes = (
"170 283 OFFCURVE",
"224 306 OFFCURVE",
"281 306 CURVE SMOOTH",
"312 306 OFFCURVE",
"352 296 OFFCURVE",
"402 276 CURVE SMOOTH",
"407 274 OFFCURVE",
"411 273 OFFCURVE",
"413 272 CURVE",
"421 269 LINE SMOOTH",
"468 250 OFFCURVE",
"510 240 OFFCURVE",
"546 240 CURVE SMOOTH",
"609 240 OFFCURVE",
"664 260 OFFCURVE",
"732 312 CURVE",
"732 399 LINE",
"665 344 OFFCURVE",
"613 321 OFFCURVE",
"557 321 CURVE SMOOTH",
"526 321 OFFCURVE",
"486 331 OFFCURVE",
"436 351 CURVE SMOOTH",
"431 353 OFFCURVE",
"428 354 OFFCURVE",
"425 355 CURVE",
"417 358 LINE SMOOTH",
"370 377 OFFCURVE",
"328 387 OFFCURVE",
"292 387 CURVE SMOOTH",
"229 387 OFFCURVE",
"174 367 OFFCURVE",
"106 315 CURVE",
"106 228 LINE"
);
}
);
width = 838;
},
{
layerId = "5297CC84-2E5E-44C2-8BD8-B52BBF62A592";
paths = (
{
closed = 1;
nodes = (
"170 265 OFFCURVE",
"224 290 OFFCURVE",
"281 290 CURVE SMOOTH",
"312 290 OFFCURVE",
"352 280 OFFCURVE",
"402 260 CURVE SMOOTH",
"407 258 OFFCURVE",
"411 257 OFFCURVE",
"413 256 CURVE",
"424 251 LINE",
"471 232 OFFCURVE",
"511 223 OFFCURVE",
"546 223 CURVE SMOOTH",
"609 223 OFFCURVE",
"663 244 OFFCURVE",
"732 296 CURVE",
"732 415 LINE",
"665 360 OFFCURVE",
"613 337 OFFCURVE",
"557 337 CURVE SMOOTH",
"526 337 OFFCURVE",
"486 347 OFFCURVE",
"436 367 CURVE SMOOTH",
"425 371 LINE SMOOTH",
"422 372 OFFCURVE",
"419 374 OFFCURVE",
"414 375 CURVE",
"367 394 OFFCURVE",
"327 404 OFFCURVE",
"292 404 CURVE SMOOTH",
"229 404 OFFCURVE",
"175 383 OFFCURVE",
"106 331 CURVE",
"106 212 LINE"
);
}
);
width = 838;
},
{
layerId = "79D829DC-9C66-44C2-8B43-D291CF08F0E9";
paths = (
{
closed = 1;
nodes = (
"170 283 OFFCURVE",
"224 306 OFFCURVE",
"281 306 CURVE SMOOTH",
"312 306 OFFCURVE",
"352 296 OFFCURVE",
"402 276 CURVE SMOOTH",
"407 274 OFFCURVE",
"411 273 OFFCURVE",
"413 272 CURVE SMOOTH",
"415 271 OFFCURVE",
"418 270 OFFCURVE",
"421 269 CURVE SMOOTH",
"468 250 OFFCURVE",
"510 240 OFFCURVE",
"546 240 CURVE SMOOTH",
"609 240 OFFCURVE",
"664 260 OFFCURVE",
"732 312 CURVE",
"732 399 LINE",
"665 344 OFFCURVE",
"613 321 OFFCURVE",
"557 321 CURVE SMOOTH",
"526 321 OFFCURVE",
"486 331 OFFCURVE",
"436 351 CURVE SMOOTH",
"431 353 OFFCURVE",
"428 354 OFFCURVE",
"425 355 CURVE",
"423 356 OFFCURVE",
"420 357 OFFCURVE",
"417 358 CURVE SMOOTH",
"370 377 OFFCURVE",
"328 387 OFFCURVE",
"292 387 CURVE SMOOTH",
"229 387 OFFCURVE",
"174 367 OFFCURVE",
"106 315 CURVE",
"106 228 LINE"
);
}
);
width = 838;
},
{
layerId = "D5B43B4B-63DF-4B35-BEE3-B41B34784265";
paths = (
{
closed = 1;
nodes = (
"170 265 OFFCURVE",
"224 290 OFFCURVE",
"281 290 CURVE SMOOTH",
"312 290 OFFCURVE",
"352 280 OFFCURVE",
"402 260 CURVE SMOOTH",
"407 258 OFFCURVE",
"411 257 OFFCURVE",
"413 256 CURVE",
"416 255 OFFCURVE",
"419 253 OFFCURVE",
"424 251 CURVE SMOOTH",
"471 232 OFFCURVE",
"511 223 OFFCURVE",
"546 223 CURVE SMOOTH",
"609 223 OFFCURVE",
"663 244 OFFCURVE",
"732 296 CURVE",
"732 415 LINE",
"665 360 OFFCURVE",
"613 337 OFFCURVE",
"557 337 CURVE SMOOTH",
"526 337 OFFCURVE",
"486 347 OFFCURVE",
"436 367 CURVE SMOOTH",
"431 369 OFFCURVE",
"427 370 OFFCURVE",
"425 371 CURVE",
"422 372 OFFCURVE",
"419 374 OFFCURVE",
"414 375 CURVE",
"367 394 OFFCURVE",
"327 404 OFFCURVE",
"292 404 CURVE SMOOTH",
"229 404 OFFCURVE",
"175 383 OFFCURVE",
"106 331 CURVE",
"106 212 LINE"
);
}
);
width = 838;
}
);
note = asciitilde;
unicode = 007E;
},
{
export = 0;
glyphname = asciicircum;
layers = (
{
layerId = "EB88A49E-561A-4405-9552-C71224CBA53C";
paths = (
{
closed = 1;
nodes = (
"204 457 LINE",
"419 650 LINE",
"634 457 LINE",
"732 457 LINE",
"467 729 LINE",
"371 729 LINE",
"106 457 LINE"
);
}
);
width = 838;
},
{
layerId = "5297CC84-2E5E-44C2-8BD8-B52BBF62A592";
paths = (
{
closed = 1;
nodes = (
"219 457 LINE",
"419 604 LINE",
"619 457 LINE",
"737 457 LINE",
"479 729 LINE",
"359 729 LINE",
"101 457 LINE"
);
}
);
width = 838;
},
{
layerId = "79D829DC-9C66-44C2-8B43-D291CF08F0E9";
paths = (
{
closed = 1;
nodes = (
"204 457 LINE",
"419 650 LINE",
"634 457 LINE",
"732 457 LINE",
"467 729 LINE",
"371 729 LINE",
"106 457 LINE"
);
}
);
width = 838;
},
{
layerId = "D5B43B4B-63DF-4B35-BEE3-B41B34784265";
paths = (
{
closed = 1;
nodes = (
"219 457 LINE",
"419 604 LINE",
"619 457 LINE",
"737 457 LINE",
"479 729 LINE",
"359 729 LINE",
"101 457 LINE"
);
}
);
width = 838;
}
);
note = asciicircum;
unicode = 005E;
},
